<?xml version="1.0" encoding="UTF-8" standalone="no"?>
<!-- Created with Inkscape (http://www.inkscape.org/) -->

<svg
   width="195.84457mm"
   height="56.715595mm"
   viewBox="0 0 195.84457 56.715595"
   version="1.1"
   id="svg1"
   xmlns="http://www.w3.org/2000/svg"
   xmlns:svg="http://www.w3.org/2000/svg">
  <defs
     id="defs1" />
  <g
     id="layer1"
     transform="translate(-16.585005,-118.78269)">
    <g
       id="g24"
       transform="matrix(0.26458333,0,0,0.26458333,3.0912542,70.337484)">
		<path
   d="m 315.8,316.8 c 3.2,-0.1 8.3,-0.4 11.1,-0.4 15.5,0 20.8,8.1 20.8,16.9 0,9.8 -6.1,14.6 -18.2,14.6 H 315.7 V 316.8 Z M 305.3,381 c 0,8 -2,10.4 -12.4,10.4 H 290 v 2.4 h 46.2 c 20.3,0 27.3,-14 27.3,-24 0,-9.8 -6.9,-17.6 -18.8,-21.1 v -0.3 c 8.5,-1.5 14.4,-8.2 14.4,-15.4 0,-6.1 -2.5,-10.4 -7.7,-14 -4.5,-3.3 -14.3,-4.9 -25.4,-4.9 -2.4,0 -12,0.1 -18.9,0.4 -3.7,0.1 -12.4,0.6 -15.9,0.8 v 2.4 h 4.4 c 8.8,0 9.7,3.8 9.7,11 z m 10.5,-30.6 h 13.6 c 14.8,0 22.2,10 22.2,19.7 0,9.8 -4.8,20.2 -21.5,20.2 -10.6,0 -14.4,-3.4 -14.4,-13 v -26.9 z"
   id="path1" />

		<path
   d="m 491.4,317.6 v -2.4 h -30.7 v 2.4 c 7.1,0.4 9.5,2.3 9.5,9.1 v 53.8 c 0,8.2 -1.6,10.3 -8.8,10.8 -9.6,-0.5 -13.7,-4.3 -20.6,-11.2 l -10,-10 c -5.9,-5.9 -9.7,-9.5 -14.4,-13.1 10.4,-3 16.8,-11 16.8,-20.5 0,-12.9 -10.5,-22.5 -33.8,-22.5 -8.2,0 -10.7,0.1 -15.9,0.4 -5.2,0.2 -12.9,0.8 -15.9,0.8 v 2.4 h 2.8 c 7.3,0 9.5,2.3 9.5,10.1 v 53.2 c 0,8.5 -2.7,10.5 -10.1,10.5 h -2.1 v 2.4 h 35.7 v -2.4 h -2.9 c -7.1,0 -10.1,-1.9 -10.1,-9.5 v -21.3 c 2,0.1 3.7,0.3 6.4,0.3 3.4,0 5.4,-0.1 8.6,-0.3 3,2 7.5,5.7 13,11.2 l 8.3,8.3 c 10.9,10.9 15.6,14.4 36.1,13.6 h 28.6 v -2.4 c -8.7,0 -10.7,-2.5 -10.7,-10 v -53.5 c 0,-8.5 2.7,-10.2 10.7,-10.2 z m -93.3,40.8 c -2.9,0 -4.8,0.1 -7.8,-0.3 v -41.4 c 2.3,-0.3 3.9,-0.3 6.3,-0.3 19.5,0 24.8,9.1 24.8,20.8 -0.1,15.2 -9.3,21.2 -23.3,21.2 z"
   id="path2" />

		<path
   d="m 500,374.5 c 2.7,11.2 11.5,17.8 21.3,17.8 8.5,0 17.4,-4.9 17.4,-14.9 0,-18.2 -40.5,-23.7 -40.5,-45.8 0,-10.5 9.6,-18.3 22.5,-18.3 10.6,0 12.8,3.2 17.2,3.2 1,0 1.5,-0.3 2.3,-1.3 h 2 l 2.1,16 h -2.1 c -3.5,-9.1 -11.6,-14.9 -20.3,-14.9 -8.3,0 -14.1,4.8 -14.1,11.9 0,17.9 40.5,22.7 40.5,46 0,12.4 -11,21.6 -25.8,21.6 -6.9,0 -15.8,-3.4 -17.5,-3.4 -1.1,0 -2,0.6 -2.5,1.4 h -2.1 l -2.6,-19.2 h 2.2 z"
   id="path3" />

		<path
   d="m 596.8,382.1 c 0,6.8 2.3,9.2 10,9.2 h 4.7 v 2.4 h -39.8 v -2.4 h 4.7 c 7.7,0 10,-2.4 10,-9.2 v -62.4 h -22 c -5,0 -7.3,2.9 -9.2,14 h -2.3 l 2,-20.5 h 2.4 c 0.1,0.8 0.6,1.3 1.4,1.5 0.8,0.3 1.6,0.4 2.5,0.4 H 622 c 1.8,0 3.7,-0.4 3.9,-1.9 h 2.4 l 2,20.5 H 628 c -1.9,-11.1 -4.2,-14 -9.2,-14 h -22 z"
   id="path4" />

		<path
   d="m 710.9,356.5 c 0,17.9 -9.8,36.1 -30.4,36.1 -20.3,0 -36.4,-16.7 -36.4,-40.3 0,-15.2 8.8,-35.9 31.1,-35.9 20.8,0 35.7,16.6 35.7,40.1 z m 11.8,-4.2 c 0,-22.7 -20.5,-39 -44.3,-39 -26.9,0 -46.2,17.8 -46.2,42.9 0,23.6 20.8,39.5 45.6,39.5 24.5,0 44.9,-17.9 44.9,-43.4 z"
   id="path5" />

		<path
   d="M 781.4,393.7 H 725 v -2.4 h 4.2 c 5.8,0 8,-1.9 8,-8.3 v -56 c 0,-6.7 -2,-9.5 -10,-9.5 h -1.8 v -2.4 h 37.2 v 2.4 h -4.7 c -8.2,0 -10.4,0.9 -10.4,8.7 v 58.2 c 0,3.4 1.4,4.7 5.1,4.7 h 18.6 c 7.4,0 9.7,-2.9 17.7,-13.9 h 2.3 z"
   id="path6" />

		<g
   id="g7">
			<path
   class="st0"
   d="m 191.5,279.1 c -0.1,-7.3 -2.6,-22.4 -20.2,-30.9 17.9,5.7 26.4,20.8 27.3,32 18.7,3.7 35.4,12.6 62.4,3.2 l 0.1,-0.1 c 0,0 -35.5,0.3 -50.4,-10.4 7.7,0.3 16.5,-1.4 19.4,-5.8 3.1,-4.6 3.4,-9.4 11,-9.7 4.3,-0.1 18.8,0.9 20.3,-20.3 -4.6,7.8 -9.7,11.1 -17.2,9.1 -4.8,-1.2 -13.7,-4.9 -20,2.6 -5.2,6.2 -10.8,9.5 -19.7,8.5 3.6,-4.8 56.8,-74 56.8,-74 0,0 -68.2,54.8 -72,57.9 -0.7,-10 2.3,-13.7 6.3,-18.1 3.3,-3.6 9,-8.5 4.4,-18.7 -3.7,-8.3 -3.2,-13.3 6.8,-21.3 -8,0.6 -20.1,5.9 -18.7,20.6 0.9,8.8 -5.4,9.6 -7.7,10.9 -5.9,3.3 -6.7,12.8 -6.9,20.3 -0.7,-2.4 -9.3,-39.6 -12.4,-51.6 0,0 0,100 0,100 h 0.2 c 11.7,-4.5 21.4,-5.2 30.2,-4.2 z"
   id="path7"
   style="fill:#be2b31" />

		</g>

		<g
   id="g9">
			<path
   class="st0"
   d="m 261,293.7 c -45,14.8 -60.4,-16.5 -99.8,0 0,0 0,100.1 0,100.1 42.9,-15.9 44.5,13.5 99.8,0 0,-0.1 0,-100.1 0,-100.1 z m -81.7,51.2 c -0.2,0.1 -0.4,0.3 -0.4,0.5 -0.4,0.9 -1.7,5.4 -2,6.6 -0.3,1.3 -0.7,1.4 -1.4,1.7 -0.6,0.2 -0.7,1.6 -0.1,1.7 1.6,0.5 1.3,1.6 1.2,1.8 0,0.3 -0.5,3.2 -2.6,5.2 -1.1,-2.1 -1.3,-4.1 -1.5,-4.6 -0.2,-0.5 -0.3,-1.1 -0.2,-1.6 0,-0.5 -0.1,-2.6 -0.2,-3.1 0,-0.5 0.2,-1 0.4,-1.4 0.4,-0.7 3.2,-6 4.5,-9.3 0.5,-1.2 3.3,-2.4 3.9,-2.1 0.8,0.3 1.7,1.4 5.7,3.1 0.1,1.1 0.3,3.3 0.9,4.2 -0.9,0.4 -2.4,0.5 -2.4,0.5 0,0 -3.3,-2.7 -4,-3.4 -0.1,-0.1 -0.4,-0.3 -0.6,-0.3 -0.4,0.2 -0.8,0.3 -1.2,0.5 z m 38,32.5 c -0.7,-0.6 -1.8,0.4 -1.2,1.3 0.7,1.1 0.6,1.7 0.6,1.7 0,0 -2.2,2.6 -5.2,3 -0.3,-0.3 0.8,-4.3 1.9,-6.5 0.9,-1.8 1.3,-2.1 2.5,-2.7 1.2,-0.6 6.2,-3.1 7.7,-4.4 1.6,-1.3 2.2,-3.2 2.2,-3.2 0,0 1.5,1.9 3.4,3.8 -0.4,0.7 -9.9,6.7 -10.4,7.1 -0.3,0.4 -1,0.4 -1.5,-0.1 z m 21.8,-5.1 c -0.4,0.7 -4.6,7.9 -5.7,10.5 -0.6,1.4 -1.2,1.1 -1.6,1.2 -0.4,0.1 -1.5,0.3 -1.4,1.6 0.1,0.9 -0.1,1.3 -0.1,1.3 0,0 -6.7,0 -7.3,0 0.3,-1.1 1,-2.4 3.9,-3.9 0.9,-0.5 2,-1.5 2.8,-2.7 0.4,-0.6 2.9,-5.1 3.4,-6.2 0.4,-0.8 0.2,-2.1 -0.2,-2.9 -0.4,-0.7 -1.1,-2 -2.1,-2.7 -3.2,-2.6 -5.2,-4.6 -7.9,-9.9 -0.4,-0.9 0.1,-1.9 -4.6,-0.6 -11.3,3 -19.4,-1.1 -19.8,-1.4 0.4,-2.1 1.2,-4 0,-4.9 -0.7,1.4 -1.4,2.4 -2.6,3.7 -0.4,0.4 -0.9,0.3 -1.7,0.2 -0.9,-0.1 -6.5,-0.8 -7.5,-1 -0.4,-0.1 -2,0.4 -1.1,2.2 0.2,0.3 1.4,2.6 2.8,4.6 0.7,1.1 0,1.8 0.1,2.6 0.2,0.8 0.6,1.1 0.9,1 0.3,-0.1 1.5,-1.5 2.4,-0.5 0.9,1 1.5,3.9 1.7,6.8 -0.8,0.1 -1.9,-0.3 -2.9,-1.1 -0.9,-0.7 -1.8,-2.1 -2.8,-2.9 -1,-0.8 -1.5,-0.7 -2.2,-1.4 -0.6,-0.6 -1.3,-1 -1.5,-2.8 -0.2,-1.8 -2.8,-7.7 -3.3,-8.4 -0.6,-0.9 0.5,-2.8 1,-3.4 0.4,-0.5 1.3,-0.6 2.4,-0.8 1.6,-0.4 4.2,-1.5 5.2,-1.8 -3.5,-6.7 0.7,-10.7 1.2,-11 1.2,-5.7 3.4,-8.9 4.3,-10.1 2.1,-0.4 4.1,-0.7 5.1,-4.9 0.6,-2.3 -0.5,-4.9 -1.3,-5.6 0.4,2.2 0.3,4.6 -0.9,6.3 -1.7,2.5 -4.5,2.2 -5,2.2 -0.5,0 -1.1,-0.1 -1.6,0.4 -0.4,0.4 -1.7,1.6 -2.5,2.1 -0.7,0.4 -0.6,0.7 -0.6,1.3 -0.1,0.6 -0.1,1 -0.8,1.1 -0.7,0.1 -1.7,-0.4 -2.3,-0.4 -1,0 -0.4,-0.6 0.2,-1.4 0.6,-0.8 0.7,-0.3 1.2,-0.4 0.7,-0.1 1,-0.4 1.6,-1.1 0.8,-1.2 -1.1,-1.4 -1.7,-0.8 -0.6,0.6 -1.4,1.7 -1.9,2.3 -0.5,0.6 -1,0.8 -1.2,0.1 -0.2,-0.5 -0.4,-1.5 -0.4,-2 -1.6,-0.4 -0.2,-2.2 -0.2,-2.2 l 4.7,-5.7 c 0,0 -1,-0.7 -0.3,-1.9 0.4,-0.7 3.2,-4 5.2,-5.4 -0.4,-1.1 -0.9,-2.2 -2.1,-3.4 1.8,0.3 3.2,0.3 6,3.2 0.7,0.8 1.5,0.5 1.2,-0.2 -0.3,-0.8 -0.8,-1.4 -1.7,-2.6 8.7,-2.3 12.9,5.4 13.5,6.2 -1.6,-0.1 -2.9,0.1 -3.7,0.4 -0.7,0.2 -0.6,0.5 0.4,0.6 2.9,0.3 3.3,0.5 4.2,0.7 1.2,1.4 1.8,4.7 1.8,4.9 -1.2,0.1 -2.8,-0.2 -4.4,0 -1.3,0.2 -0.8,0.8 -0.3,0.8 1.9,0.2 3.8,0.8 5.2,1.4 0.5,2.7 0.4,4.5 0.4,4.5 0,0 -3.4,-0.4 -4.3,-0.3 -0.9,0.1 -0.4,0.8 0.4,1.1 0.8,0.3 2.5,0.9 3.6,1.9 0,0.8 -0.3,2.7 -0.7,3.7 -0.3,0.9 -0.1,1.8 1.5,2.1 4.2,0.8 7.8,1.4 14.3,1.3 11.4,-0.2 15.2,12.9 10.1,19.3 -2.4,3 -2.5,4.7 -2.3,5.8 0.5,2.7 1.9,5 4.4,6.5 1,0.4 -0.3,2.2 -0.6,2.8 z M 251.7,324 c -3.4,2.9 0.2,8.4 -3,12.7 -1.7,2.9 -6.6,5.9 -11.3,3 2.8,-1 5.5,-3.3 4,-7.7 -2,-5.7 -4.7,-5.8 -7.8,-10.6 -2.4,-3.7 -3.7,-13.3 5.2,-16.4 -7.3,4.6 -3,12.9 -0.3,15.3 -4.7,-10.8 2.6,-15.9 7,-15.9 2.4,0 5.4,0.2 7.1,3.4 2.5,4.5 -1.2,7.9 -3.1,8 3.1,-1.5 2.9,-4.3 1.9,-5.7 -1.9,-2.7 -7,-1.4 -8,1.8 -1.4,4.9 2.5,7.7 3.8,10.9 2,-2.8 6.8,-3.1 8.9,-0.1 -1.9,0 -3.5,0.5 -4.4,1.3 z"
   id="path8"
   style="fill:#be2b31" />

			<path
   class="st0"
   d="m 176.5,357.3 c 0,0 0,0 0,0 0,-0.1 0,-0.1 0,0 z"
   id="path9"
   style="fill:#be2b31" />

		</g>

		<path
   d="m 361.2,225.1 v 1.8 c -6.3,0.1 -8.5,2.6 -8.5,8.6 v 25.3 c 0,11.6 -7.4,24.1 -27.7,24.1 -17.9,0 -27.1,-10.2 -27.1,-23.6 V 234 c 0,-6 -1.7,-6.9 -8.1,-7 v -1.8 h 24.1 v 1.8 h -0.8 c -5.1,0 -7.4,1.4 -7.4,6.8 v 26 c 0,12.6 7.4,20.2 21.3,20.2 10.6,0 21.3,-4.4 21.3,-20.3 v -21.8 c 0,-9 -1.4,-10.6 -9.2,-11 v -1.8 z"
   id="path10" />

		<path
   d="m 373.5,275.2 c 0,5.1 1.2,6.4 6.3,6.4 v 1.8 H 361 v -1.8 c 4.1,0 6.3,-2.2 6.3,-5.9 V 256 c 0,-3.5 -0.4,-4.1 -2.8,-4.6 l -3.2,-0.7 v -1.5 l 10.8,-3.9 h 1.5 v 7.3 c 6.3,-3.9 11.5,-7.4 16.1,-7.4 6.4,0 10,4.7 10,14 0,12.5 -0.7,14.9 -0.7,18.5 -0.1,2.5 1.4,3.7 5.2,3.7 h 2.1 v 1.8 h -20.1 v -1.8 c 2.7,-0.1 4.3,-0.7 5.3,-1.8 1.8,-1.8 2,-8.6 2,-21.1 0,-7.5 -3.7,-9.8 -7.4,-9.8 -3,0 -7.6,2.6 -12.5,6 v 20.5 z"
   id="path11" />

		<path
   d="m 424.1,276.2 c 0,3.3 1.8,5.3 6.7,5.3 v 1.8 H 410 v -1.8 c 5.7,0 7.8,-1.9 7.8,-6.8 v -18.8 c 0,-3.7 -0.5,-4.1 -2.9,-4.6 l -4.4,-0.8 V 249 l 12.2,-4.2 h 1.4 z m -3.8,-52.5 c 2.2,0 4.1,1.6 4.1,3.6 0,2 -1.9,3.6 -4.1,3.6 -2.2,0 -4,-1.6 -4,-3.6 0,-2 1.7,-3.6 4,-3.6 z"
   id="path12" />

		<path
   d="m 452.2,284.2 -13.6,-31.1 c -1.4,-3.3 -2.6,-4.4 -4.1,-4.7 l -2.9,-0.5 v -1.7 h 19.1 v 1.7 c -5.7,0.2 -7.5,0.9 -5.2,5.3 l 9.9,23.3 9.6,-21.5 c 1.7,-3.8 0.8,-6.6 -6,-7 v -1.7 h 16.3 v 1.7 c -3.6,0.7 -5.6,2.7 -7.4,6.8 L 455,284.2 Z"
   id="path13" />

		<path
   d="m 483.1,257.1 c 2.2,-8.7 6.8,-10.1 9.9,-10.1 4.5,0 8.2,4 9.3,10.1 z m 27.1,2.5 v -2.2 c -3.1,-3.1 -2.8,-12.2 -15.5,-12.2 -11.4,0 -18.1,10.1 -18.1,20 0,10.9 7.1,19.2 16.3,19.2 6.8,0 12.7,-4.7 16.7,-9.6 l -1,-1.1 c -3.6,4.2 -7.2,6.1 -11.9,6.1 -7.4,0 -14.2,-6.6 -14.2,-16.3 0,-1.2 0.2,-2.5 0.4,-3.9 z"
   id="path14" />

		<path
   d="m 528.3,276.5 c 0,3.8 1.4,5.1 6.1,5.1 h 3.6 v 1.8 h -22.2 v -1.8 c 4.8,-0.1 6.3,-2.1 6.3,-7 V 253 l -6.3,-2.2 v -1.6 l 10.7,-3.7 h 1.9 v 9.9 h 0.2 c 4.7,-7.7 5.8,-9.5 8.9,-9.5 1.1,0 1.4,0.1 3.2,0.8 0.9,0.4 2.6,0.7 4.9,1.4 l -2.2,5.6 c -1.4,-0.2 -3.2,-0.7 -5,-1.5 -1,-0.5 -2.2,-0.9 -3.3,-0.9 -1.7,0 -2.7,1.1 -3.7,2.4 -1.2,1.7 -2.2,3.3 -3,4.7 v 18.1 z"
   id="path15" />

		<path
   d="m 551.9,273.9 c 1.1,5.6 4.7,8.8 8.9,8.8 3.7,0 6.6,-2.8 6.6,-6.2 0,-2 -0.5,-3.2 -3,-5.7 -6.6,-6.6 -14,-7.3 -14,-15.1 0,-6.2 4.9,-10.5 12,-10.5 2.5,0 5.2,0.6 7.5,1.5 l 0.2,8.5 h -1.6 c -0.7,-4.8 -3.7,-7.8 -7.5,-7.8 -3.1,0 -5.7,2.2 -5.7,5.2 0,8.2 17.4,9.6 17.4,21.1 0,6.1 -5.1,10.7 -11.6,10.7 -1.8,0 -3.1,-0.3 -4.1,-0.7 -1,-0.3 -1.8,-0.6 -2.5,-0.6 -0.6,0 -1.1,0.4 -1.6,1.1 h -1.4 l -1,-10.5 h 1.4 z"
   id="path16" />

		<path
   d="m 592.4,276.2 c 0,3.3 1.8,5.3 6.7,5.3 v 1.8 h -20.8 v -1.8 c 5.7,0 7.8,-1.9 7.8,-6.8 v -18.8 c 0,-3.7 -0.5,-4.1 -2.9,-4.6 l -4.4,-0.8 V 249 l 12.2,-4.2 h 1.4 z m -3.8,-52.5 c 2.3,0 4.1,1.6 4.1,3.6 0,2 -1.9,3.6 -4.1,3.6 -2.2,0 -4,-1.6 -4,-3.6 0,-2 1.7,-3.6 4,-3.6 z"
   id="path17" />

		<path
   d="m 625.9,246.3 -1.5,4.1 h -11.9 v 21.8 c 0,5.9 4.2,7.9 6.2,7.9 2.1,0 3.9,-1.6 5.7,-4.7 l 1.5,1.4 c -2.2,4.9 -5.9,7.7 -10.2,7.7 -5.5,0 -9.5,-4.6 -9.5,-10.9 v -23.2 h -4.3 v -1.5 c 3.7,-1.8 6.8,-6.1 9,-11.9 h 1.6 v 9.3 z"
   id="path18" />

		<path
   d="m 662.9,256.7 c 2.8,-7.1 1,-8.5 -4.5,-8.7 v -1.7 h 15.5 v 1.7 c -3.8,0.5 -6,3.1 -7.8,7.5 l -15.9,39.7 c -2.8,6.9 -5,10 -8.2,10 -2.2,0 -3.8,-1.4 -3.8,-3.3 0,-3.8 5.4,-2.9 7.8,-5.2 1,-1 2.4,-3.5 3.2,-5.3 l 2.8,-7 -14.5,-30.8 c -1.8,-3.8 -3.5,-5.4 -7.4,-5.5 v -1.7 h 18.8 v 1.7 c -5.7,0.1 -6.4,1.8 -4.5,5.7 l 10.6,22.8 z"
   id="path19" />

		<path
   d="m 702,261.9 c 0,-8.1 5.7,-14.4 11.9,-14.4 7.9,0 14.4,9.1 14.4,19.8 0,9.4 -6.3,15 -11.8,15 -8.1,-0.1 -14.5,-9.1 -14.5,-20.4 z m -7,3.2 c 0,11 8.9,19.4 20.5,19.4 11.1,0 19.8,-8.5 19.8,-19.6 0,-11.1 -8.7,-19.7 -20.1,-19.7 -9.8,0 -20.2,7 -20.2,19.9 z"
   id="path20" />

		<path
   d="M 762.5,250.4 H 752.4 V 276 c 0,4.3 1.7,5.5 6.9,5.5 h 3.6 v 1.8 h -23.1 v -1.8 c 5.4,0 6.4,-1.2 6.4,-6.5 v -24.7 h -6.9 v -1.6 c 2.6,-0.6 4.9,-1.4 6.9,-2.5 0,-7.8 1.7,-13.7 7.2,-19.2 4.6,-4.6 9,-6.6 13.3,-6.6 5.2,0 9.6,3 9.6,4.4 0,0.7 -1.8,4.5 -2.5,4.5 -1.3,0 -4.8,-4.6 -11,-4.6 -6.7,0 -10.4,5.3 -10.4,14.4 v 7.1 h 9.5 z"
   id="path21" />

		<path
   class="st0"
   d="m 130.4,183.4 v 10.8 h -0.5 -11.7 -0.5 v -10.8 h -11.6 v 10.8 H 106 94.6 V 183.4 H 94.3 83.1 v 10.8 H 82.7 71.4 V 183.4 H 71 51 c 0,0 0,100.4 0,100 42.8,14.9 59.6,-15.8 99.8,0 0,-1.6 0,-100 0,-100 z m -2.1,33.6 c -4.1,8.1 -4.4,16.3 -3.7,20.5 -8.6,-2.2 -11.5,0 -11.5,0 0,0 0.2,-9.2 15.2,-20.5 z m -42,-10 c 3.4,-1.4 3.3,-0.6 3.1,0.3 -0.2,1 -0.8,2.6 1.1,2.2 5.2,-1.2 9.8,-4.4 10.2,-4.7 v 6.3 c -0.8,0.4 -6.2,2.8 -10.9,3.1 -4.3,0.3 -2.4,-4.6 -2.4,-4.6 -0.4,0.2 -5.9,3.1 -10.5,2.8 -5.5,-0.3 -5.8,-3.4 -5.2,-4.1 0,0.5 0.7,4.5 14.6,-1.3 z m -17.5,65 c 18.3,5.1 31.1,-8.3 43.6,-10 -13.7,-0.2 -21.1,5.5 -25.6,6 -2.3,-1.7 -4.9,-5.9 -5.8,-10.4 -0.7,-3.8 -4.5,-4.4 -4.5,-4.4 l -0.6,-2.8 c 0,0 10.8,1.6 12.7,1.8 2.5,4 7.2,5 9.6,5 0,0 0.1,-6.8 0,-7.2 0.5,-0.8 2.5,-1.4 2.5,-1.4 l 0.1,8.5 c 5.9,0 10.4,-3.8 10.3,-7.3 -0.1,-4.1 -4.6,-7.6 -11.8,-7.4 -7.2,0.1 -9.8,3.7 -10.5,4.9 -8.5,-8.5 -4.6,-18.9 -4.6,-18.9 0,0 -7.4,5 -0.7,17.6 -7,-1.9 -12.7,1.8 -12.7,4.7 0,2.7 2.1,4.8 6.3,4.9 -15.1,3 -18.4,-5.6 -11.2,-10.2 3.4,0.6 3.4,0.6 5.7,1.1 -7.3,-7.3 -3.8,-16.3 2.1,-20.2 8.5,-1.5 12.7,-2.2 12.7,-2.2 0,0 4.1,-5.9 7.7,-8.1 5.2,-0.5 23.4,-3.1 23.4,-3.1 0,0 -17,15.5 -0.7,32 6.7,0 14.7,0 14.7,0 0,0 -0.3,2.5 -0.8,4.9 -1.4,0.1 -2.2,0.2 -2.8,0.2 -0.2,7.5 -4.7,12.5 -4.7,12.5 0,0 8.5,1.1 14.2,4.5 -36.5,-7.1 -39.5,15 -68.6,5 z"
   id="path22"
   style="fill:#be2b31" />

		<path
   class="st0"
   d="m 189.2,319.4 c 0,0 -0.5,-0.2 0.4,-1 0.1,-0.1 0.3,0.1 0.8,0.1 0.7,0 1.1,-0.2 1.7,-0.9 0.9,-1.1 -1,-1.5 -1.6,-1 -0.7,0.6 -1.1,1.2 -1.7,1.7 0.1,0 -0.9,0.8 0.4,1.1 z"
   id="path23"
   style="fill:#be2b31" />

		<path
   class="st0"
   d="M 150.8,390.4 C 119,369.5 94.5,401 51,379.2 c 0,0 0,14.5 0,14.6 55.3,13.5 56.9,-15.9 99.8,0 z"
   id="path24"
   style="fill:#be2b31" />

	</g>
    <path
       class="st0"
       d="m 28.438337,168.4979 c -7.328958,0.0529 -11.853333,-4.39208 -11.853333,-4.39208 0,0 0,3.46604 0,3.46604 10.503958,7.17021 17.356666,-0.9525 26.405416,5.15937 v -0.92604 c -2.143125,-1.69333 -4.947708,-3.38666 -14.552083,-3.30729 z"
       id="path25"
       style="fill:#be2b31;stroke-width:0.264583" />
    <g
       id="g26"
       transform="matrix(0.26458333,0,0,0.26458333,3.0912542,70.337484)">
		<path
   class="st0"
   d="m 121.3,367.1 c 3.7,0.8 6.9,1.6 9.7,2.4 7.2,2.4 13.9,6 19.9,10.5 v -86.4 c -10.5,-4.4 -19.3,-5.4 -27.4,-4.8 v 46.4 l -10.8,-10.8 -10.8,10.8 v -42 c -14,3.8 -28.9,7.5 -50.8,0.3 0,0.9 0,23.6 0,43.3 0,0 11.4,24.2 42.2,26.5 11.6,1.1 20.7,2.3 28,3.8"
   id="path26"
   style="fill:#be2b31" />

	</g>
  </g>
</svg>
