<?xml version="1.0" encoding="UTF-8" standalone="no"?>
<!-- Created with Inkscape (http://www.inkscape.org/) -->

<svg
   version="1.1"
   id="svg1"
   width="473.33334"
   height="166.66667"
   viewBox="0 0 473.33334 166.66667"
   xmlns="http://www.w3.org/2000/svg"
   xmlns:svg="http://www.w3.org/2000/svg">
  <defs
     id="defs1">
    <clipPath
       clipPathUnits="userSpaceOnUse"
       id="clipPath1">
      <path
         d="M 0,0 H 355 V 125 H 0 Z"
         transform="scale(1.0042883,1)"
         id="path1" />
    </clipPath>
    <clipPath
       clipPathUnits="userSpaceOnUse"
       id="clipPath2">
      <path
         d="M 0,0 H 355 V 125 H 0 Z"
         transform="scale(1.3333333)"
         id="path2" />
    </clipPath>
    <clipPath
       clipPathUnits="userSpaceOnUse"
       id="clipPath3">
      <path
         d="M 0,0 H 355 V 125 H 0 Z"
         transform="matrix(0.49960839,-0.55254496,0.55018561,0.49747501,0,0)"
         id="path3" />
    </clipPath>
    <clipPath
       clipPathUnits="userSpaceOnUse"
       id="clipPath4">
      <path
         d="M 0,0 H 355 V 125 H 0 Z"
         transform="scale(1.0042883,1)"
         id="path4" />
    </clipPath>
    <clipPath
       clipPathUnits="userSpaceOnUse"
       id="clipPath5">
      <path
         d="M 0,0 H 355 V 125 H 0 Z"
         transform="matrix(-0.49980923,-0.55051315,0.54816247,-0.49767491,0,0)"
         id="path5" />
    </clipPath>
    <clipPath
       clipPathUnits="userSpaceOnUse"
       id="clipPath6">
      <path
         d="M 0,0 H 355 V 125 H 0 Z"
         transform="scale(1.0042883,1)"
         id="path6" />
    </clipPath>
    <clipPath
       clipPathUnits="userSpaceOnUse"
       id="clipPath7">
      <path
         d="M 0,0 H 355 V 125 H 0 Z"
         transform="matrix(-0.73451443,-0.44514367,0.44324274,-0.73137807,0,0)"
         id="path7" />
    </clipPath>
    <clipPath
       clipPathUnits="userSpaceOnUse"
       id="clipPath8">
      <path
         d="M 0,0 H 300 V 100 H 0 Z"
         id="path8" />
    </clipPath>
    <pattern
       patternTransform="matrix(0.00371892,0.00373487,-0.00371892,0.00373487,14.713791,-113.02379)"
       patternUnits="userSpaceOnUse"
       x="0"
       y="0"
       width="300"
       height="100"
       id="pattern9">
      <g
         id="g9">
        <path
           d="m 0,-50 100,0 0,200 -100,0 0,-200 z"
           style="fill:#000000;fill-opacity:1;fill-rule:nonzero;stroke:none"
           clip-path="url(#clipPath8)"
           id="path9" />
      </g>
    </pattern>
    <clipPath
       clipPathUnits="userSpaceOnUse"
       id="clipPath10">
      <path
         d="M 0,0 H 355 V 125 H 0 Z"
         id="path10" />
    </clipPath>
    <clipPath
       clipPathUnits="userSpaceOnUse"
       id="clipPath11">
      <path
         d="M 0,0 H 355 V 125 H 0 Z"
         transform="scale(1.0042883,1)"
         id="path11" />
    </clipPath>
    <clipPath
       clipPathUnits="userSpaceOnUse"
       id="clipPath12">
      <path
         d="M 0,0 H 355 V 125 H 0 Z"
         transform="scale(1.0042883,1)"
         id="path12" />
    </clipPath>
    <clipPath
       clipPathUnits="userSpaceOnUse"
       id="clipPath13">
      <path
         d="M 0,0 H 355 V 125 H 0 Z"
         transform="scale(1.0042883,1)"
         id="path13" />
    </clipPath>
    <clipPath
       clipPathUnits="userSpaceOnUse"
       id="clipPath24">
      <path
         d="M 0,0.773 H 156.188 V 114.93 L 0,114.93 Z m 4.473,-4.554 -4.879,4.554 4.879,4.555 m 152.476,-3.844 0.739,2.563 2.011,-1.879 z m -1.523,114.161 -2.746,0.683 2.011,1.879 z m -156.188,-1.426 -0.734,-2.563 -2.012,1.879 z M 4.879,4.949 0,0.395 -4.879,4.949"
         transform="scale(1.3333333)"
         id="path24" />
    </clipPath>
    <clipPath
       clipPathUnits="userSpaceOnUse"
       id="clipPath32">
      <path
         d="M 0,0 H 355 V 125 H 0 Z"
         transform="scale(1.0042883,1)"
         id="path32" />
    </clipPath>
    <clipPath
       clipPathUnits="userSpaceOnUse"
       id="clipPath33">
      <path
         d="M 0,0 H 355 V 125 H 0 Z"
         transform="matrix(0.49938551,-0.55470696,0.55233837,0.49725318,0,0)"
         id="path33" />
    </clipPath>
    <clipPath
       clipPathUnits="userSpaceOnUse"
       id="clipPath34">
      <path
         d="M 0,0 H 355 V 125 H 0 Z"
         transform="scale(1.0042883,1)"
         id="path34" />
    </clipPath>
    <clipPath
       clipPathUnits="userSpaceOnUse"
       id="clipPath35">
      <path
         d="M 0,0 H 355 V 125 H 0 Z"
         transform="matrix(-0.50180235,-0.52067416,0.51845089,-0.49965926,0,0)"
         id="path35" />
    </clipPath>
    <clipPath
       clipPathUnits="userSpaceOnUse"
       id="clipPath36">
      <path
         d="M 0,0 H 355 V 125 H 0 Z"
         transform="scale(1.0042883,1)"
         id="path36" />
    </clipPath>
    <clipPath
       clipPathUnits="userSpaceOnUse"
       id="clipPath37">
      <path
         d="M 0,0 H 355 V 125 H 0 Z"
         transform="matrix(-0.7393197,-0.44260188,0.44071218,-0.73616282,0,0)"
         id="path37" />
    </clipPath>
    <clipPath
       clipPathUnits="userSpaceOnUse"
       id="clipPath38">
      <path
         d="M 0,0 H 355 V 125 H 0 Z"
         transform="scale(1.0042883,1)"
         id="path38" />
    </clipPath>
    <clipPath
       clipPathUnits="userSpaceOnUse"
       id="clipPath39">
      <path
         d="M 0,0 H 355 V 125 H 0 Z"
         transform="matrix(0.51077403,-0.50206994,0.49992622,0.50859303,0,0)"
         id="path39" />
    </clipPath>
    <clipPath
       clipPathUnits="userSpaceOnUse"
       id="clipPath40">
      <path
         d="M 0,0 H 355 V 125 H 0 Z"
         transform="scale(1.0042883,1)"
         id="path40" />
    </clipPath>
    <clipPath
       clipPathUnits="userSpaceOnUse"
       id="clipPath41">
      <path
         d="M 0,0 H 355 V 125 H 0 Z"
         transform="matrix(-0.49933033,-0.55522849,0.55285768,-0.49719826,0,0)"
         id="path41" />
    </clipPath>
    <clipPath
       clipPathUnits="userSpaceOnUse"
       id="clipPath42">
      <path
         d="M 0,0 H 355 V 125 H 0 Z"
         transform="scale(1.0042883,1)"
         id="path42" />
    </clipPath>
    <clipPath
       clipPathUnits="userSpaceOnUse"
       id="clipPath43">
      <path
         d="M 0,0 H 355 V 125 H 0 Z"
         transform="matrix(-0.70156467,-0.46084732,0.45887943,-0.698569,0,0)"
         id="path43" />
    </clipPath>
    <clipPath
       clipPathUnits="userSpaceOnUse"
       id="clipPath44">
      <path
         d="M 0,0 H 355 V 125 H 0 Z"
         transform="scale(1.0042883,1)"
         id="path44" />
    </clipPath>
    <clipPath
       clipPathUnits="userSpaceOnUse"
       id="clipPath45">
      <path
         d="M 0,0 H 355 V 125 H 0 Z"
         transform="matrix(0.55006358,-0.49985269,0.49771788,0.54771482,0,0)"
         id="path45" />
    </clipPath>
    <clipPath
       clipPathUnits="userSpaceOnUse"
       id="clipPath46">
      <path
         d="M 0,0 H 355 V 125 H 0 Z"
         transform="scale(1.0042883,1)"
         id="path46" />
    </clipPath>
    <clipPath
       clipPathUnits="userSpaceOnUse"
       id="clipPath47">
      <path
         d="M 0,0 H 355 V 125 H 0 Z"
         transform="matrix(-0.49217022,-0.60173022,0.59916085,-0.49006835,0,0)"
         id="path47" />
    </clipPath>
    <clipPath
       clipPathUnits="userSpaceOnUse"
       id="clipPath48">
      <path
         d="M 0,0 H 355 V 125 H 0 Z"
         transform="scale(1.0042883,1)"
         id="path48" />
    </clipPath>
    <clipPath
       clipPathUnits="userSpaceOnUse"
       id="clipPath49">
      <path
         d="M 0,0 H 355 V 125 H 0 Z"
         transform="matrix(-0.66043405,-0.47654281,0.47450801,-0.65761402,0,0)"
         id="path49" />
    </clipPath>
    <clipPath
       clipPathUnits="userSpaceOnUse"
       id="clipPath50">
      <path
         d="M 0,0 H 355 V 125 H 0 Z"
         transform="scale(1.0042883,1)"
         id="path50" />
    </clipPath>
    <clipPath
       clipPathUnits="userSpaceOnUse"
       id="clipPath51">
      <path
         d="M 0,0 H 355 V 125 H 0 Z"
         transform="matrix(-0.50188983,-0.51813114,0.51591873,-0.49974632,0,0)"
         id="path51" />
    </clipPath>
    <clipPath
       clipPathUnits="userSpaceOnUse"
       id="clipPath52">
      <path
         d="M 0,0 H 355 V 125 H 0 Z"
         transform="scale(1.0042883,1)"
         id="path52" />
    </clipPath>
    <clipPath
       clipPathUnits="userSpaceOnUse"
       id="clipPath53">
      <path
         d="M 0,0 H 355 V 125 H 0 Z"
         transform="matrix(-0.5402103,-0.50069932,0.49856118,-0.53790361,0,0)"
         id="path53" />
    </clipPath>
    <clipPath
       clipPathUnits="userSpaceOnUse"
       id="clipPath54">
      <path
         d="M 0,0 H 355 V 125 H 0 Z"
         transform="scale(1.0042883,1)"
         id="path54" />
    </clipPath>
    <clipPath
       clipPathUnits="userSpaceOnUse"
       id="clipPath55">
      <path
         d="M 0,0 H 355 V 125 H 0 Z"
         transform="matrix(-0.56817637,-0.49778388,0.49565777,-0.56575027,0,0)"
         id="path55" />
    </clipPath>
    <clipPath
       clipPathUnits="userSpaceOnUse"
       id="clipPath56">
      <path
         d="M 0,0 H 300 V 100 H 0 Z"
         id="path56" />
    </clipPath>
    <pattern
       patternTransform="matrix(0.00434494,0.00436358,-0.00434494,0.00436358,-114.74105,-134.18573)"
       patternUnits="userSpaceOnUse"
       x="0"
       y="0"
       width="300"
       height="100"
       id="pattern57">
      <g
         id="g57">
        <path
           d="m 0,-50 100,0 0,200 -100,0 0,-200 z"
           style="fill:#000000;fill-opacity:1;fill-rule:nonzero;stroke:none"
           clip-path="url(#clipPath56)"
           id="path57" />
      </g>
    </pattern>
    <clipPath
       clipPathUnits="userSpaceOnUse"
       id="clipPath58">
      <path
         d="M 0,0 H 355 V 125 H 0 Z"
         id="path58" />
    </clipPath>
    <clipPath
       clipPathUnits="userSpaceOnUse"
       id="clipPath59">
      <path
         d="M 0,0 H 355 V 125 H 0 Z"
         transform="scale(1.0042883,1)"
         id="path59" />
    </clipPath>
    <clipPath
       clipPathUnits="userSpaceOnUse"
       id="clipPath60">
      <path
         d="M 0,0 H 355 V 125 H 0 Z"
         transform="scale(1.0042883,1)"
         id="path60" />
    </clipPath>
    <clipPath
       clipPathUnits="userSpaceOnUse"
       id="clipPath61">
      <path
         d="M 0,0 H 355 V 125 H 0 Z"
         transform="scale(1.0042883,1)"
         id="path61" />
    </clipPath>
    <clipPath
       clipPathUnits="userSpaceOnUse"
       id="clipPath62">
      <path
         d="M 0,0 H 355 V 125 H 0 Z"
         transform="scale(1.0042883,1)"
         id="path62" />
    </clipPath>
    <clipPath
       clipPathUnits="userSpaceOnUse"
       id="clipPath63">
      <path
         d="M 0,0 H 355 V 125 H 0 Z"
         transform="scale(1.0042883,1)"
         id="path63" />
    </clipPath>
    <clipPath
       clipPathUnits="userSpaceOnUse"
       id="clipPath64">
      <path
         d="M 0,0 H 355 V 125 H 0 Z"
         transform="scale(1.0042883,1)"
         id="path64" />
    </clipPath>
    <clipPath
       clipPathUnits="userSpaceOnUse"
       id="clipPath65">
      <path
         d="M 0,0 H 355 V 125 H 0 Z"
         transform="matrix(0,1.0042883,-1,0,0,0)"
         id="path65" />
    </clipPath>
    <clipPath
       clipPathUnits="userSpaceOnUse"
       id="clipPath66">
      <path
         d="M 0,0 H 355 V 125 H 0 Z"
         transform="matrix(0,-1.0042883,1,0,0,0)"
         id="path66" />
    </clipPath>
    <clipPath
       clipPathUnits="userSpaceOnUse"
       id="clipPath67">
      <path
         d="M 0,0 H 355 V 125 H 0 Z"
         transform="scale(1.0042883,1)"
         id="path67" />
    </clipPath>
    <clipPath
       clipPathUnits="userSpaceOnUse"
       id="clipPath68">
      <path
         d="M 0,0 H 355 V 125 H 0 Z"
         transform="matrix(-0.4619858,0.69891316,-0.69592882,-0.46001277,0,0)"
         id="path68" />
    </clipPath>
    <clipPath
       clipPathUnits="userSpaceOnUse"
       id="clipPath69">
      <path
         d="M 0,0 H 355 V 125 H 0 Z"
         transform="matrix(0.4619858,-0.69891316,0.69592882,0.46001277,0,0)"
         id="path69" />
    </clipPath>
    <clipPath
       clipPathUnits="userSpaceOnUse"
       id="clipPath70">
      <path
         d="M 0,0 H 355 V 125 H 0 Z"
         transform="scale(1.0042883,1)"
         id="path70" />
    </clipPath>
    <clipPath
       clipPathUnits="userSpaceOnUse"
       id="clipPath71">
      <path
         d="M 0,0 H 355 V 125 H 0 Z"
         transform="matrix(0.49928508,0.55565579,-0.55328315,0.49715248,0,0)"
         id="path71" />
    </clipPath>
    <clipPath
       clipPathUnits="userSpaceOnUse"
       id="clipPath72">
      <path
         d="M 0,0 H 355 V 125 H 0 Z"
         transform="matrix(-0.49928508,-0.55565579,0.55328315,-0.49715248,0,0)"
         id="path72" />
    </clipPath>
    <clipPath
       clipPathUnits="userSpaceOnUse"
       id="clipPath73">
      <path
         d="M 0,0 H 900 V 100 H 0 Z"
         id="path73" />
    </clipPath>
    <pattern
       patternTransform="matrix(0.00371892,0.00373487,-0.00371892,0.00373487,56.536614,-90.269613)"
       patternUnits="userSpaceOnUse"
       x="0"
       y="0"
       width="900"
       height="100"
       id="pattern74">
      <g
         id="g74">
        <path
           d="m 0,-50 100,0 0,200 -100,0 0,-200 z"
           style="fill:#000000;fill-opacity:1;fill-rule:nonzero;stroke:none"
           clip-path="url(#clipPath73)"
           id="path74" />
      </g>
    </pattern>
    <clipPath
       clipPathUnits="userSpaceOnUse"
       id="clipPath75">
      <path
         d="M 0,0 H 355 V 125 H 0 Z"
         id="path75" />
    </clipPath>
    <clipPath
       clipPathUnits="userSpaceOnUse"
       id="clipPath76">
      <path
         d="M 0,0 H 355 V 125 H 0 Z"
         transform="scale(1.0042883,1)"
         id="path76" />
    </clipPath>
    <clipPath
       clipPathUnits="userSpaceOnUse"
       id="clipPath77">
      <path
         d="M 0,0 H 900 V 100 H 0 Z"
         id="path77" />
    </clipPath>
    <pattern
       patternTransform="matrix(0.00360308,0.0043771,-0.00360308,0.0043771,64.991666,-123.35126)"
       patternUnits="userSpaceOnUse"
       x="0"
       y="0"
       width="900"
       height="100"
       id="pattern78">
      <g
         id="g78">
        <path
           d="m 0,-50 100,0 0,200 -100,0 0,-200 z"
           style="fill:#000000;fill-opacity:1;fill-rule:nonzero;stroke:none"
           clip-path="url(#clipPath77)"
           id="path78" />
      </g>
    </pattern>
    <clipPath
       clipPathUnits="userSpaceOnUse"
       id="clipPath79">
      <path
         d="M 0,0 H 355 V 125 H 0 Z"
         id="path79" />
    </clipPath>
    <clipPath
       clipPathUnits="userSpaceOnUse"
       id="clipPath80">
      <path
         d="M 0,0 H 355 V 125 H 0 Z"
         transform="scale(1.0042883,1)"
         id="path80" />
    </clipPath>
    <clipPath
       clipPathUnits="userSpaceOnUse"
       id="clipPath81">
      <path
         d="M 0,0 H 355 V 125 H 0 Z"
         transform="scale(1.0042883,1)"
         id="path81" />
    </clipPath>
    <clipPath
       clipPathUnits="userSpaceOnUse"
       id="clipPath82">
      <path
         d="M 0,0 H 355 V 125 H 0 Z"
         transform="matrix(-1.0042766,-0.00343188,0.00341722,-0.99998835,0,0)"
         id="path82" />
    </clipPath>
    <clipPath
       clipPathUnits="userSpaceOnUse"
       id="clipPath83">
      <path
         d="M 0,0 H 355 V 125 H 0 Z"
         transform="matrix(1.0042766,0.00343188,-0.00341722,0.99998835,0,0)"
         id="path83" />
    </clipPath>
    <clipPath
       clipPathUnits="userSpaceOnUse"
       id="clipPath84">
      <path
         d="M 0,0 H 355 V 125 H 0 Z"
         transform="scale(1.0042883,1)"
         id="path84" />
    </clipPath>
    <clipPath
       clipPathUnits="userSpaceOnUse"
       id="clipPath85">
      <path
         d="M 0,0 H 355 V 125 H 0 Z"
         transform="matrix(-1.0042766,-0.00343188,0.00341722,-0.99998835,0,0)"
         id="path85" />
    </clipPath>
    <clipPath
       clipPathUnits="userSpaceOnUse"
       id="clipPath86">
      <path
         d="M 0,0 H 355 V 125 H 0 Z"
         transform="matrix(1.0042766,0.00343188,-0.00341722,0.99998835,0,0)"
         id="path86" />
    </clipPath>
    <clipPath
       clipPathUnits="userSpaceOnUse"
       id="clipPath136">
      <path
         d="M 169.684,0.52 H 350.489 V 125 H 169.684 Z"
         transform="scale(1.3333333)"
         id="path136" />
    </clipPath>
    <clipPath
       clipPathUnits="userSpaceOnUse"
       id="clipPath141">
      <path
         d="M 169.684,0.52 H 350.489 V 125 H 169.684 Z"
         transform="matrix(1,0,0,0.99572969,-182.61123,-71.306586)"
         id="path141" />
    </clipPath>
  </defs>
  <g
     id="g1">
    <g
       id="g23"
       clip-path="url(#clipPath24)">
      <g
         clip-path="url(#clipPath2)"
         id="g14">
        <path
           d="m 38.975,72.031 c 3.437,2.321 10.259,8.531 14.715,13.461 4.594,5.078 11.667,15.223 12.271,16.465"
           style="fill:none;stroke:#000000;stroke-width:0.945461;stroke-linecap:butt;stroke-linejoin:miter;stroke-miterlimit:2;stroke-dasharray:none;stroke-opacity:1"
           transform="scale(1.32764,1.3333333)"
           clip-path="url(#clipPath1)"
           id="path14" />
      </g>
      <path
         d="m 73.691,12.992 -2.124,1.225 0.001,-2.455 z"
         style="fill:#000000;fill-opacity:1;fill-rule:evenodd;stroke:#000000;stroke-width:0.327269;stroke-linecap:butt;stroke-linejoin:miter;stroke-miterlimit:4;stroke-dasharray:none;stroke-opacity:1"
         transform="matrix(1.2004453,1.3333333,-1.32764,1.2055933,0,0)"
         clip-path="url(#clipPath3)"
         id="path15" />
      <path
         d="M 154.335,5.305 C 142.052,18.801 129.49,32.684 116.858,46.598 99.872,65.305 82.76,84.074 66.032,102.031"
         style="fill:none;stroke:#000000;stroke-width:0.945461;stroke-linecap:butt;stroke-linejoin:miter;stroke-miterlimit:2;stroke-dasharray:none;stroke-opacity:1"
         transform="scale(1.32764,1.3333333)"
         clip-path="url(#clipPath4)"
         id="path16" />
      <path
         d="m -31.687,-87.246 2.12,1.225 -0.002,-2.45 z"
         style="fill:#000000;fill-opacity:1;fill-rule:evenodd;stroke:#000000;stroke-width:0.326667;stroke-linecap:butt;stroke-linejoin:miter;stroke-miterlimit:4;stroke-dasharray:none;stroke-opacity:1"
         transform="matrix(-1.20536,1.3333333,-1.32764,-1.2105293,0,0)"
         clip-path="url(#clipPath5)"
         id="path17" />
      <path
         d="M 154.335,5.305 C 118.2,26.07 119.691,25.285 83.882,46.617 c -2.331,1.438 -42.6,23.891 -44.88,25.406"
         style="fill:none;stroke:#000000;stroke-width:0.945461;stroke-linecap:butt;stroke-linejoin:miter;stroke-miterlimit:2;stroke-dasharray:none;stroke-opacity:1"
         transform="scale(1.32764,1.3333333)"
         clip-path="url(#clipPath6)"
         id="path18" />
      <path
         d="m -41.313,-71.276 2.448,1.417 -0.002,-2.832 z"
         style="fill:#000000;fill-opacity:1;fill-rule:evenodd;stroke:#000000;stroke-width:0.37733;stroke-linecap:butt;stroke-linejoin:miter;stroke-miterlimit:4;stroke-dasharray:none;stroke-opacity:1"
         transform="matrix(-1.32764,0.80805067,-0.8046,-1.3333333,0,0)"
         clip-path="url(#clipPath7)"
         id="path19" />
      <path
         d="m 44.777,102.172 c 0.02,-2.152 -1.215,-4.254 -3.101,-5.277 -1.824,-1.032 -4.184,-0.993 -5.973,0.101 -1.848,1.086 -3.015,3.231 -2.918,5.383 0.051,2.219 1.442,4.332 3.453,5.25 1.977,0.957 4.469,0.683 6.196,-0.68 1.464,-1.117 2.355,-2.929 2.343,-4.777 z"
         style="fill:url(#pattern9);fill-opacity:1;fill-rule:nonzero;stroke:none"
         transform="scale(1.3333333)"
         clip-path="url(#clipPath10)"
         id="path20" />
      <path
         d="m 44.969,102.172 c 0.02,-2.152 -1.22,-4.254 -3.114,-5.277 -1.833,-1.032 -4.202,-0.993 -5.999,0.101 -1.855,1.086 -3.028,3.231 -2.93,5.383 0.051,2.219 1.447,4.332 3.468,5.25 1.985,0.957 4.488,0.683 6.222,-0.68 1.471,-1.117 2.365,-2.929 2.353,-4.777 z"
         style="fill:none;stroke:#000000;stroke-width:1.13184;stroke-linecap:butt;stroke-linejoin:miter;stroke-miterlimit:2;stroke-dasharray:none;stroke-opacity:1"
         transform="scale(1.32764,1.3333333)"
         clip-path="url(#clipPath11)"
         id="path21" />
      <path
         d="M 56.001,101.941 H 185.707"
         style="fill:none;stroke:#000000;stroke-width:1.32236;stroke-linecap:butt;stroke-linejoin:miter;stroke-miterlimit:2;stroke-dasharray:none;stroke-opacity:1"
         transform="scale(1.32764,1.3333333)"
         clip-path="url(#clipPath12)"
         id="path22" />
      <path
         d="M -68.296,101.941 H 21.769"
         style="fill:none;stroke:#000000;stroke-width:1.32236;stroke-linecap:butt;stroke-linejoin:miter;stroke-miterlimit:2;stroke-dasharray:none;stroke-opacity:1"
         transform="scale(1.32764,1.3333333)"
         clip-path="url(#clipPath13)"
         id="path23" />
    </g>
    <text
       id="text24"
       xml:space="preserve"
       transform="matrix(1.3333333,0,0,1.3390515,92.289821,44.074671)"><tspan
         id="tspan24"
         style="font-variant:normal;font-weight:normal;font-size:8.01427px;font-family:NimbusSanL;writing-mode:lr-tb;fill:#000000;fill-opacity:1;fill-rule:nonzero;stroke:none"
         x="0"
         y="0">Direct</tspan><tspan
         id="tspan25"
         style="font-variant:normal;font-weight:normal;font-size:8.01427px;font-family:NimbusSanL;writing-mode:lr-tb;fill:#000000;fill-opacity:1;fill-rule:nonzero;stroke:none"
         x="-20.505262"
         y="7.2128429">Component</tspan><tspan
         id="tspan26"
         style="font-variant:normal;font-weight:normal;font-size:8.01427px;font-family:NimbusSanL;writing-mode:lr-tb;fill:#000000;fill-opacity:1;fill-rule:nonzero;stroke:none"
         x="29.837816"
         y="39.165802">Reflected</tspan><tspan
         id="tspan27"
         style="font-variant:normal;font-weight:normal;font-size:8.01427px;font-family:NimbusSanL;writing-mode:lr-tb;fill:#000000;fill-opacity:1;fill-rule:nonzero;stroke:none"
         x="29.837816"
         y="46.378643">Component</tspan><tspan
         id="tspan28"
         style="font-variant:normal;font-weight:normal;font-size:8.01427px;font-family:NimbusSanL;writing-mode:lr-tb;fill:#000000;fill-opacity:1;fill-rule:nonzero;stroke:none"
         x="-63.751072"
         y="52.969948">Illuminating</tspan><tspan
         id="tspan29"
         style="font-variant:normal;font-weight:normal;font-size:8.01427px;font-family:NimbusSanL;writing-mode:lr-tb;fill:#000000;fill-opacity:1;fill-rule:nonzero;stroke:none"
         x="-51.052681"
         y="60.182793">Flux</tspan></text>
    <path
       id="path29"
       d="m 153.088,32.395 3.842,-6.12 c 0,0 -4.632,1.317 -7.003,1.7 -0.27,0.041 -0.815,0.068 -0.815,0.068"
       style="fill:none;stroke:#000000;stroke-width:0.450336;stroke-linecap:butt;stroke-linejoin:miter;stroke-miterlimit:2;stroke-dasharray:none;stroke-opacity:1"
       transform="matrix(1.32764,-0.22148533,0.22053867,1.3333333,0,0)" />
    <path
       id="path30"
       d="m 150.54,27.804 c 0,0 0.195,0.884 0.617,1.532 0.514,0.8 1.451,1.795 2.645,1.904"
       style="fill:none;stroke:#000000;stroke-width:0.450336;stroke-linecap:butt;stroke-linejoin:miter;stroke-miterlimit:2;stroke-dasharray:none;stroke-opacity:1"
       transform="matrix(1.32764,-0.22148533,0.22053867,1.3333333,0,0)" />
    <path
       id="path31"
       d="m 152.88,30.813 c -0.09,-0.518 -0.3,-1.26 -0.776,-1.82 -0.443,-0.523 -0.954,-1.033 -1.506,-0.996 z"
       style="fill:#000000;fill-opacity:1;fill-rule:nonzero;stroke:#000000;stroke-width:0.450336;stroke-linecap:butt;stroke-linejoin:miter;stroke-miterlimit:2;stroke-dasharray:none;stroke-opacity:1"
       transform="matrix(1.32764,-0.22148533,0.22053867,1.3333333,0,0)" />
    <g
       id="g135"
       clip-path="url(#clipPath136)">
      <path
         d="m 239.676,72.094 c 4.919,3.586 9.505,7.629 13.566,12.14 3.334,3.707 6.32,7.731 8.846,12.075"
         style="fill:none;stroke:#000000;stroke-width:0.945464;stroke-linecap:butt;stroke-linejoin:miter;stroke-miterlimit:2;stroke-dasharray:none;stroke-opacity:1"
         transform="scale(1.32764,1.3333333)"
         clip-path="url(#clipPath32)"
         id="path87" />
      <path
         d="m 172.393,-97.99 -2.127,1.231 -0.001,-2.46 z"
         style="fill:#000000;fill-opacity:1;fill-rule:evenodd;stroke:#000000;stroke-width:0.32791;stroke-linecap:butt;stroke-linejoin:miter;stroke-miterlimit:4;stroke-dasharray:none;stroke-opacity:1"
         transform="matrix(1.1952333,1.3333333,-1.32764,1.2003587,0,0)"
         clip-path="url(#clipPath33)"
         id="path88" />
      <path
         d="m 349.692,5.664 c -15.166,15.691 -30.285,31.43 -45.428,47.141 -14.013,14.539 -28.049,29.058 -42.16,43.504"
         style="fill:none;stroke:#000000;stroke-width:0.945464;stroke-linecap:butt;stroke-linejoin:miter;stroke-miterlimit:2;stroke-dasharray:none;stroke-opacity:1"
         transform="scale(1.32764,1.3333333)"
         clip-path="url(#clipPath34)"
         id="path89" />
      <path
         d="m -123.749,-184.13 2.062,1.191 10e-4,-2.382 z"
         style="fill:#000000;fill-opacity:1;fill-rule:evenodd;stroke:#000000;stroke-width:0.317691;stroke-linecap:butt;stroke-linejoin:miter;stroke-miterlimit:4;stroke-dasharray:none;stroke-opacity:1"
         transform="matrix(-1.2795187,1.3333333,-1.32764,-1.2850067,0,0)"
         clip-path="url(#clipPath35)"
         id="path90" />
      <path
         d="M 349.692,5.664 C 331.18,16.82 312.597,27.852 294.053,38.953 276.835,49.258 256.686,61.164 239.637,71.742"
         style="fill:none;stroke:#000000;stroke-width:0.945464;stroke-linecap:butt;stroke-linejoin:miter;stroke-miterlimit:2;stroke-dasharray:none;stroke-opacity:1"
         transform="scale(1.32764,1.3333333)"
         clip-path="url(#clipPath36)"
         id="path91" />
      <path
         d="m -199.931,-158.269 2.457,1.42 -0.003,-2.838 z"
         style="fill:#000000;fill-opacity:1;fill-rule:evenodd;stroke:#000000;stroke-width:0.378563;stroke-linecap:butt;stroke-linejoin:miter;stroke-miterlimit:4;stroke-dasharray:none;stroke-opacity:1"
         transform="matrix(-1.32764,0.79821467,-0.79480667,-1.3333333,0,0)"
         clip-path="url(#clipPath37)"
         id="path92" />
      <path
         d="m 248.644,72.094 c 5.021,3.551 9.694,7.551 14.072,11.851 2.899,2.852 5.672,5.84 8.332,8.914"
         style="fill:none;stroke:#000000;stroke-width:0.945464;stroke-linecap:butt;stroke-linejoin:miter;stroke-miterlimit:2;stroke-dasharray:none;stroke-opacity:1"
         transform="scale(1.32764,1.3333333)"
         clip-path="url(#clipPath38)"
         id="path93" />
      <path
         d="m 175.528,-88.643 -2.042,1.179 v -2.359 z"
         style="fill:#000000;fill-opacity:1;fill-rule:evenodd;stroke:#000000;stroke-width:0.314657;stroke-linecap:butt;stroke-linejoin:miter;stroke-miterlimit:4;stroke-dasharray:none;stroke-opacity:1"
         transform="matrix(1.32764,1.310612,-1.305016,1.3333333,0,0)"
         clip-path="url(#clipPath39)"
         id="path94" />
      <path
         d="m 349.692,5.664 c -13.24,14.688 -26.444,29.41 -39.665,44.113 -12.95,14.399 -25.923,28.782 -38.963,43.102"
         style="fill:none;stroke:#000000;stroke-width:0.945464;stroke-linecap:butt;stroke-linejoin:miter;stroke-miterlimit:2;stroke-dasharray:none;stroke-opacity:1"
         transform="scale(1.32764,1.3333333)"
         clip-path="url(#clipPath40)"
         id="path95" />
      <path
         d="m -125.694,-196.148 2.128,1.228 v -2.459 z"
         style="fill:#000000;fill-opacity:1;fill-rule:evenodd;stroke:#000000;stroke-width:0.328064;stroke-linecap:butt;stroke-linejoin:miter;stroke-miterlimit:4;stroke-dasharray:none;stroke-opacity:1"
         transform="matrix(-1.1939787,1.3333333,-1.32764,-1.1990987,0,0)"
         clip-path="url(#clipPath41)"
         id="path96" />
      <path
         d="m 349.692,5.664 c -21.019,13.816 -42.074,27.57 -63.097,41.383 -12.66,8.316 -25.307,16.648 -37.928,25.027"
         style="fill:none;stroke:#000000;stroke-width:0.945464;stroke-linecap:butt;stroke-linejoin:miter;stroke-miterlimit:2;stroke-dasharray:none;stroke-opacity:1"
         transform="scale(1.32764,1.3333333)"
         clip-path="url(#clipPath42)"
         id="path97" />
      <path
         d="m -179.23,-164.378 2.391,1.383 v -2.765 z"
         style="fill:#000000;fill-opacity:1;fill-rule:evenodd;stroke:#000000;stroke-width:0.368771;stroke-linecap:butt;stroke-linejoin:miter;stroke-miterlimit:4;stroke-dasharray:none;stroke-opacity:1"
         transform="matrix(-1.32764,0.87584667,-0.87210667,-1.3333333,0,0)"
         clip-path="url(#clipPath43)"
         id="path98" />
      <path
         d="m 257.616,72.094 c 4.225,3.168 8.269,6.574 12.181,10.125 3.06,2.781 6.041,5.656 8.96,8.582"
         style="fill:none;stroke:#000000;stroke-width:0.945464;stroke-linecap:butt;stroke-linejoin:miter;stroke-miterlimit:2;stroke-dasharray:none;stroke-opacity:1"
         transform="scale(1.32764,1.3333333)"
         clip-path="url(#clipPath44)"
         id="path99" />
      <path
         d="m 188.636,-89.249 -2.117,1.224 v -2.448 z"
         style="fill:#000000;fill-opacity:1;fill-rule:evenodd;stroke:#000000;stroke-width:0.326534;stroke-linecap:butt;stroke-linejoin:miter;stroke-miterlimit:4;stroke-dasharray:none;stroke-opacity:1"
         transform="matrix(1.32764,1.211624,-1.2064493,1.3333333,0,0)"
         clip-path="url(#clipPath45)"
         id="path100" />
      <path
         d="m 349.692,5.664 c -10.866,13.25 -21.698,26.524 -32.545,39.789 -12.318,15.059 -24.66,30.106 -37.092,45.07"
         style="fill:none;stroke:#000000;stroke-width:0.945464;stroke-linecap:butt;stroke-linejoin:miter;stroke-miterlimit:2;stroke-dasharray:none;stroke-opacity:1"
         transform="scale(1.32764,1.3333333)"
         clip-path="url(#clipPath46)"
         id="path101" />
      <path
         d="m -127.221,-212.297 2.214,1.279 -10e-4,-2.56 z"
         style="fill:#000000;fill-opacity:1;fill-rule:evenodd;stroke:#000000;stroke-width:0.341526;stroke-linecap:butt;stroke-linejoin:miter;stroke-miterlimit:4;stroke-dasharray:none;stroke-opacity:1"
         transform="matrix(-1.0859093,1.3333333,-1.32764,-1.0905667,0,0)"
         clip-path="url(#clipPath47)"
         id="path102" />
      <path
         d="m 349.692,5.664 c -22.518,16.242 -45.043,32.477 -67.558,48.723 -8.167,5.894 -16.335,11.789 -24.503,17.687"
         style="fill:none;stroke:#000000;stroke-width:0.945464;stroke-linecap:butt;stroke-linejoin:miter;stroke-miterlimit:2;stroke-dasharray:none;stroke-opacity:1"
         transform="scale(1.32764,1.3333333)"
         clip-path="url(#clipPath48)"
         id="path103" />
      <path
         d="m -160.325,-169.641 2.322,1.344 -0.001,-2.685 z"
         style="fill:#000000;fill-opacity:1;fill-rule:evenodd;stroke:#000000;stroke-width:0.357797;stroke-linecap:butt;stroke-linejoin:miter;stroke-miterlimit:4;stroke-dasharray:none;stroke-opacity:1"
         transform="matrix(-1.32764,0.96208,-0.957972,-1.3333333,0,0)"
         clip-path="url(#clipPath49)"
         id="path104" />
      <path
         d="m 230.708,72.094 c -4.123,3.008 -8.015,6.34 -11.561,10 -4.151,4.285 -7.827,9.019 -10.843,14.211"
         style="fill:none;stroke:#000000;stroke-width:0.945464;stroke-linecap:butt;stroke-linejoin:miter;stroke-miterlimit:2;stroke-dasharray:none;stroke-opacity:1"
         transform="scale(1.32764,1.3333333)"
         clip-path="url(#clipPath50)"
         id="path105" />
      <path
         d="m -66.265,-154.088 2.057,1.189 -0.001,-2.376 z"
         style="fill:#000000;fill-opacity:1;fill-rule:evenodd;stroke:#000000;stroke-width:0.316915;stroke-linecap:butt;stroke-linejoin:miter;stroke-miterlimit:4;stroke-dasharray:none;stroke-opacity:1"
         transform="matrix(-1.2860227,1.3333333,-1.32764,-1.2915387,0,0)"
         clip-path="url(#clipPath51)"
         id="path106" />
      <path
         d="m 221.744,72.094 c -3.986,2.816 -7.748,5.918 -11.318,9.226 -3.911,3.625 -7.595,7.504 -11.086,11.539"
         style="fill:none;stroke:#000000;stroke-width:0.945464;stroke-linecap:butt;stroke-linejoin:miter;stroke-miterlimit:2;stroke-dasharray:none;stroke-opacity:1"
         transform="scale(1.32764,1.3333333)"
         clip-path="url(#clipPath52)"
         id="path107" />
      <path
         d="m -71.727,-148.653 2.098,1.215 0.003,-2.428 z"
         style="fill:#000000;fill-opacity:1;fill-rule:evenodd;stroke:#000000;stroke-width:0.323597;stroke-linecap:butt;stroke-linejoin:miter;stroke-miterlimit:4;stroke-dasharray:none;stroke-opacity:1"
         transform="matrix(-1.32764,1.2358133,-1.230536,-1.3333333,0,0)"
         clip-path="url(#clipPath53)"
         id="path108" />
      <path
         d="m 212.772,72.094 c -3.268,2.449 -6.426,5.039 -9.498,7.73 -4.009,3.516 -7.877,7.203 -11.643,10.977"
         style="fill:none;stroke:#000000;stroke-width:0.945464;stroke-linecap:butt;stroke-linejoin:miter;stroke-miterlimit:2;stroke-dasharray:none;stroke-opacity:1"
         transform="scale(1.32764,1.3333333)"
         clip-path="url(#clipPath54)"
         id="path109" />
      <path
         d="m -74.496,-145.915 2.151,1.244 0.004,-2.489 z"
         style="fill:#000000;fill-opacity:1;fill-rule:evenodd;stroke:#000000;stroke-width:0.331867;stroke-linecap:butt;stroke-linejoin:miter;stroke-miterlimit:4;stroke-dasharray:none;stroke-opacity:1"
         transform="matrix(-1.32764,1.168144,-1.1631547,-1.3333333,0,0)"
         clip-path="url(#clipPath55)"
         id="path110" />
      <path
         d="m 240.141,102.102 c 0.023,-2.196 -1.262,-4.336 -3.211,-5.332 -1.903,-1.016 -4.348,-0.864 -6.11,0.382 -1.769,1.2 -2.785,3.403 -2.558,5.532 0.195,2.222 1.734,4.257 3.82,5.027 1.984,0.781 4.363,0.359 5.969,-1.043 1.316,-1.125 2.097,-2.832 2.09,-4.566 z"
         style="fill:url(#pattern57);fill-opacity:1;fill-rule:nonzero;stroke:none"
         transform="scale(1.3333333)"
         clip-path="url(#clipPath58)"
         id="path111" />
      <path
         d="m 241.17,102.102 c 0.024,-2.196 -1.267,-4.336 -3.224,-5.332 -1.911,-1.016 -4.367,-0.864 -6.136,0.382 -1.777,1.2 -2.797,3.403 -2.569,5.532 0.196,2.222 1.741,4.257 3.836,5.027 1.993,0.781 4.382,0.359 5.995,-1.043 1.322,-1.125 2.106,-2.832 2.098,-4.566 z"
         style="fill:none;stroke:#000000;stroke-width:1.13184;stroke-linecap:butt;stroke-linejoin:miter;stroke-miterlimit:2;stroke-dasharray:none;stroke-opacity:1"
         transform="scale(1.32764,1.3333333)"
         clip-path="url(#clipPath59)"
         id="path112" />
      <path
         d="m 384.662,122.672 c -34.001,-1.543 -68.24,-2.277 -101.806,-8.406 -10.356,-2.293 -21.757,-4.922 -29.544,-12.325 13.562,-10.753 31.565,-12.484 48.112,-14.941 27.626,-3.27 55.455,-4.379 83.238,-5.473"
         style="fill:none;stroke:#000000;stroke-width:1.32236;stroke-linecap:butt;stroke-linejoin:miter;stroke-miterlimit:2;stroke-dasharray:none;stroke-opacity:1"
         transform="scale(1.32764,1.3333333)"
         clip-path="url(#clipPath60)"
         id="path113" />
      <path
         d="m 85.725,122.672 c 34.001,-1.543 68.241,-2.277 101.806,-8.406 10.357,-2.293 21.757,-4.922 29.544,-12.325 C 203.51,91.188 185.507,89.457 168.964,87 141.334,83.73 113.504,82.621 85.725,81.527"
         style="fill:none;stroke:#000000;stroke-width:1.32236;stroke-linecap:butt;stroke-linejoin:miter;stroke-miterlimit:2;stroke-dasharray:none;stroke-opacity:1"
         transform="scale(1.32764,1.3333333)"
         clip-path="url(#clipPath61)"
         id="path114" />
      <path
         d="m 260.354,72.074 c 0,5 -11.216,9.059 -25.052,9.059 -13.837,0 -25.053,-4.059 -25.053,-9.059 0,-5.004 11.216,-9.058 25.053,-9.058 13.836,0 25.052,4.054 25.052,9.058 z"
         style="fill:none;stroke:#000000;stroke-width:0.723071;stroke-linecap:butt;stroke-linejoin:miter;stroke-miterlimit:2;stroke-dasharray:none;stroke-opacity:1"
         transform="scale(1.32764,1.3333333)"
         clip-path="url(#clipPath62)"
         id="path115" />
      <path
         d="m 264.085,65.996 c 0,10.227 -12.93,18.516 -28.881,18.516 -15.955,0 -28.885,-8.289 -28.885,-18.516 0,-10.226 12.93,-18.516 28.885,-18.516 15.951,0 28.881,8.29 28.881,18.516 z"
         style="fill:none;stroke:#000000;stroke-width:0.270316;stroke-linecap:butt;stroke-linejoin:miter;stroke-miterlimit:2;stroke-dasharray:0.540631, 0.270316;stroke-dashoffset:0;stroke-opacity:1"
         transform="scale(1.32764,1.3333333)"
         clip-path="url(#clipPath63)"
         id="path116" />
      <path
         d="M 235.863,61.762 V 48.484"
         style="fill:none;stroke:#000000;stroke-width:0.276168;stroke-linecap:butt;stroke-linejoin:miter;stroke-miterlimit:2;stroke-dasharray:none;stroke-opacity:1"
         transform="scale(1.32764,1.3333333)"
         clip-path="url(#clipPath64)"
         id="path117" />
      <path
         d="m -60.242,234.203 -1.656,1.66 1.656,1.655"
         style="fill:none;stroke:#000000;stroke-width:0.552336;stroke-linecap:butt;stroke-linejoin:miter;stroke-miterlimit:4;stroke-dasharray:none;stroke-opacity:1"
         transform="matrix(0,-1.3333333,1.32764,0,0,0)"
         clip-path="url(#clipPath65)"
         id="path118" />
      <path
         d="m 50.004,-237.518 -1.656,1.655 1.656,1.66"
         style="fill:none;stroke:#000000;stroke-width:0.552336;stroke-linecap:butt;stroke-linejoin:miter;stroke-miterlimit:4;stroke-dasharray:none;stroke-opacity:1"
         transform="matrix(0,1.3333333,-1.32764,0,0,0)"
         clip-path="url(#clipPath66)"
         id="path119" />
      <path
         d="m 221.1,62.664 -6.006,-9.09"
         style="fill:none;stroke:#000000;stroke-width:0.276168;stroke-linecap:butt;stroke-linejoin:miter;stroke-miterlimit:2;stroke-dasharray:none;stroke-opacity:1"
         transform="scale(1.32764,1.3333333)"
         clip-path="url(#clipPath67)"
         id="path120" />
      <path
         d="m -144.05,123.662 -1.382,1.382 1.382,1.384"
         style="fill:none;stroke:#000000;stroke-width:0.460772;stroke-linecap:butt;stroke-linejoin:miter;stroke-miterlimit:4;stroke-dasharray:none;stroke-opacity:1"
         transform="matrix(-0.87757733,-1.3333333,1.32764,-0.88134133,0,0)"
         clip-path="url(#clipPath68)"
         id="path121" />
      <path
         d="m 137.497,-126.424 -1.382,1.381 1.381,1.38"
         style="fill:none;stroke:#000000;stroke-width:0.460772;stroke-linecap:butt;stroke-linejoin:miter;stroke-miterlimit:4;stroke-dasharray:none;stroke-opacity:1"
         transform="matrix(0.87757733,1.3333333,-1.32764,0.88134133,0,0)"
         clip-path="url(#clipPath69)"
         id="path122" />
      <path
         d="m 248.703,62.965 7.269,-8.09"
         style="fill:none;stroke:#000000;stroke-width:0.276168;stroke-linecap:butt;stroke-linejoin:miter;stroke-miterlimit:2;stroke-dasharray:none;stroke-opacity:1"
         transform="scale(1.32764,1.3333333)"
         clip-path="url(#clipPath70)"
         id="path123" />
      <path
         d="m 89.937,167.674 -1.232,1.233 1.231,1.231"
         style="fill:none;stroke:#000000;stroke-width:0.410844;stroke-linecap:butt;stroke-linejoin:miter;stroke-miterlimit:4;stroke-dasharray:none;stroke-opacity:1"
         transform="matrix(1.1929507,-1.3333333,1.32764,1.198068,0,0)"
         clip-path="url(#clipPath71)"
         id="path124" />
      <path
         d="m -95.767,-170.141 -1.232,1.233 1.234,1.234"
         style="fill:none;stroke:#000000;stroke-width:0.410844;stroke-linecap:butt;stroke-linejoin:miter;stroke-miterlimit:4;stroke-dasharray:none;stroke-opacity:1"
         transform="matrix(-1.1929507,1.3333333,-1.32764,-1.198068,0,0)"
         clip-path="url(#clipPath72)"
         id="path125" />
      <path
         d="m 85.383,122.875 c 28.359,-1.559 56.918,-2.297 84.914,-8.488 8.637,-2.317 18.144,-4.973 24.641,-12.446 C 183.625,91.082 168.609,89.336 154.809,86.855 131.766,83.551 108.555,82.43 85.383,81.324"
         style="fill:url(#pattern74);fill-opacity:1;fill-rule:nonzero;stroke:none"
         transform="scale(1.3333333)"
         clip-path="url(#clipPath75)"
         id="path126" />
      <path
         d="m 85.749,122.875 c 28.481,-1.559 57.162,-2.297 85.278,-8.488 8.674,-2.317 18.223,-4.973 24.747,-12.446 C 184.412,91.082 169.332,89.336 155.473,86.855 132.331,83.551 109.02,82.43 85.749,81.324"
         style="fill:none;stroke:#000000;stroke-width:0.461789;stroke-linecap:butt;stroke-linejoin:miter;stroke-miterlimit:2;stroke-dasharray:none;stroke-opacity:1"
         transform="scale(1.32764,1.3333333)"
         clip-path="url(#clipPath76)"
         id="path127" />
      <path
         d="m 381.297,122.59 c -27.852,-1.539 -55.899,-2.266 -83.391,-8.367 -8.484,-2.282 -17.824,-4.899 -24.203,-12.262 11.113,-10.703 25.859,-12.422 39.41,-14.867 22.633,-3.254 45.43,-4.36 68.184,-5.449"
         style="fill:url(#pattern78);fill-opacity:1;fill-rule:nonzero;stroke:none"
         transform="scale(1.3333333)"
         clip-path="url(#clipPath79)"
         id="path128" />
      <path
         d="m 382.932,122.59 c -27.971,-1.539 -56.138,-2.266 -83.748,-8.367 -8.521,-2.282 -17.901,-4.899 -24.307,-12.262 11.161,-10.703 25.97,-12.422 39.579,-14.867 22.73,-3.254 45.625,-4.36 68.476,-5.449"
         style="fill:none;stroke:#000000;stroke-width:0.492071;stroke-linecap:butt;stroke-linejoin:miter;stroke-miterlimit:2;stroke-dasharray:none;stroke-opacity:1"
         transform="scale(1.32764,1.3333333)"
         clip-path="url(#clipPath80)"
         id="path129" />
      <path
         d="m 212.132,101.992 -14.13,0.047"
         style="fill:none;stroke:#000000;stroke-width:0.276168;stroke-linecap:butt;stroke-linejoin:miter;stroke-miterlimit:2;stroke-dasharray:none;stroke-opacity:1"
         transform="scale(1.32764,1.3333333)"
         clip-path="url(#clipPath81)"
         id="path130" />
      <path
         d="m -210.261,-104.371 -1.658,1.655 1.658,1.658"
         style="fill:none;stroke:#000000;stroke-width:0.552333;stroke-linecap:butt;stroke-linejoin:miter;stroke-miterlimit:4;stroke-dasharray:none;stroke-opacity:1"
         transform="matrix(-1.32764,0.00455635,-0.00453689,-1.3333333,0,0)"
         clip-path="url(#clipPath82)"
         id="path131" />
      <path
         d="m 199.171,101.06 -1.658,1.654 1.654,1.658"
         style="fill:none;stroke:#000000;stroke-width:0.552333;stroke-linecap:butt;stroke-linejoin:miter;stroke-miterlimit:4;stroke-dasharray:none;stroke-opacity:1"
         transform="matrix(1.32764,-0.00455635,0.00453689,1.3333333,0,0)"
         clip-path="url(#clipPath83)"
         id="path132" />
      <path
         d="m 272.723,101.844 -14.13,0.051"
         style="fill:none;stroke:#000000;stroke-width:0.276168;stroke-linecap:butt;stroke-linejoin:miter;stroke-miterlimit:2;stroke-dasharray:none;stroke-opacity:1"
         transform="scale(1.32764,1.3333333)"
         clip-path="url(#clipPath84)"
         id="path133" />
      <path
         d="m -270.852,-104.433 -1.657,1.658 1.653,1.654"
         style="fill:none;stroke:#000000;stroke-width:0.552333;stroke-linecap:butt;stroke-linejoin:miter;stroke-miterlimit:4;stroke-dasharray:none;stroke-opacity:1"
         transform="matrix(-1.32764,0.00455635,-0.00453689,-1.3333333,0,0)"
         clip-path="url(#clipPath85)"
         id="path134" />
      <path
         d="m 259.761,101.118 -1.657,1.659 1.658,1.658"
         style="fill:none;stroke:#000000;stroke-width:0.552333;stroke-linecap:butt;stroke-linejoin:miter;stroke-miterlimit:4;stroke-dasharray:none;stroke-opacity:1"
         transform="matrix(1.32764,-0.00455635,0.00453689,1.3333333,0,0)"
         clip-path="url(#clipPath86)"
         id="path135" />
    </g>
    <text
       id="text136"
       xml:space="preserve"
       transform="matrix(1.3333333,0,0,1.3390515,243.48163,95.483191)"
       clip-path="url(#clipPath141)"><tspan
         id="tspan136"
         style="font-variant:normal;font-weight:normal;font-size:8.01427px;font-family:NimbusSanL;writing-mode:lr-tb;fill:#000000;fill-opacity:1;fill-rule:nonzero;stroke:none"
         x="0"
         y="0">Seed</tspan><tspan
         id="tspan137"
         style="font-variant:normal;font-weight:normal;font-size:8.01427px;font-family:NimbusSanL;writing-mode:lr-tb;fill:#000000;fill-opacity:1;fill-rule:nonzero;stroke:none"
         x="-10.690907"
         y="6.4114161">Photons</tspan><tspan
         id="tspan138"
         style="font-variant:normal;font-weight:normal;font-size:8.01427px;font-family:NimbusSanL;writing-mode:lr-tb;fill:#000000;fill-opacity:1;fill-rule:nonzero;stroke:none"
         x="18.186382"
         y="-35.073299">Expanding/variable</tspan><tspan
         id="tspan139"
         style="font-variant:normal;font-weight:normal;font-size:8.01427px;font-family:NimbusSanL;writing-mode:lr-tb;fill:#000000;fill-opacity:1;fill-rule:nonzero;stroke:none"
         x="39.127968"
         y="-27.860456">Corona</tspan><tspan
         id="tspan140"
         style="font-variant:normal;font-weight:normal;font-size:8.01427px;font-family:NimbusSanL;writing-mode:lr-tb;fill:#000000;fill-opacity:1;fill-rule:nonzero;stroke:none"
         x="58.69112"
         y="42.964413">Thick</tspan><tspan
         id="tspan141"
         style="font-variant:normal;font-weight:normal;font-size:8.01427px;font-family:NimbusSanL;writing-mode:lr-tb;fill:#000000;fill-opacity:1;fill-rule:nonzero;stroke:none"
         x="28.841097"
         y="50.177258">accretion disc</tspan></text>
    <path
       id="path142"
       d="m 342.802,64.319 3.841,-6.12 c 0,0 -4.632,1.317 -7.003,1.7 -0.27,0.045 -0.815,0.068 -0.815,0.068"
       style="fill:none;stroke:#000000;stroke-width:0.450336;stroke-linecap:butt;stroke-linejoin:miter;stroke-miterlimit:2;stroke-dasharray:none;stroke-opacity:1"
       transform="matrix(1.32764,-0.22148533,0.22053867,1.3333333,0,0)" />
    <path
       id="path143"
       d="m 340.253,59.728 c 0,0 0.199,0.884 0.616,1.536 0.515,0.796 1.452,1.795 2.646,1.9"
       style="fill:none;stroke:#000000;stroke-width:0.450336;stroke-linecap:butt;stroke-linejoin:miter;stroke-miterlimit:2;stroke-dasharray:none;stroke-opacity:1"
       transform="matrix(1.32764,-0.22148533,0.22053867,1.3333333,0,0)" />
    <path
       id="path144"
       d="m 342.594,62.738 c -0.091,-0.519 -0.297,-1.261 -0.777,-1.821 -0.442,-0.523 -0.954,-1.033 -1.505,-0.996 z"
       style="fill:#000000;fill-opacity:1;fill-rule:nonzero;stroke:#000000;stroke-width:0.450336;stroke-linecap:butt;stroke-linejoin:miter;stroke-miterlimit:2;stroke-dasharray:none;stroke-opacity:1"
       transform="matrix(1.32764,-0.22148533,0.22053867,1.3333333,0,0)" />
  </g>
</svg>
