<?xml version="1.0" encoding="UTF-8" standalone="no"?>
<!-- Created with Inkscape (http://www.inkscape.org/) -->

<svg
   version="1.1"
   id="svg1"
   width="150.19679"
   height="321.94962"
   viewBox="0 0 150.19679 321.94961"
   xml:space="preserve"
   xmlns="http://www.w3.org/2000/svg"
   xmlns:svg="http://www.w3.org/2000/svg"><defs
     id="defs1" /><g
     id="g1"
     transform="translate(72.395685,137.65117)"><g
       id="g55"
       style="display:inline"><path
         style="font-variation-settings:normal;opacity:1;vector-effect:none;fill:#b4c100;fill-opacity:1;stroke:#b4c100;stroke-width:1.241;stroke-linecap:butt;stroke-linejoin:round;stroke-miterlimit:2;stroke-dasharray:none;stroke-dashoffset:0;stroke-opacity:1;-inkscape-stroke:none;stop-color:#000000;stop-opacity:1"
         d="m -51.953125,67.628555 c -0.859375,-0.38934 -2.556206,-1.616715 -3.770735,-2.727504 -1.788934,-1.636129 -2.294855,-2.380691 -2.664417,-3.921195 -0.769528,-3.207754 0.01462,-5.204414 5.846192,-14.886106 3.509155,-5.825965 11.855292,-21.748043 21.28267,-40.6013398 3.520334,-7.0401211 6.163039,-12.9385587 7.700599,-17.1875002 6.12375,-16.922558 10.986355,-28.03852 14.2785269,-32.640848 7.1006992,-9.92651 11.4001016,-11.611034 27.5481021,-10.79346 6.956363,0.352201 8.314027,0.529406 10.574332,1.380182 7.123382,2.681235 8.673011,4.666344 11.007433,14.100778 l 1.063203,4.296875 -0.215058,11.132813 C 40.467574,-12.304594 39.43975,-2.0712969 37.502707,7.5917383 36.543738,12.375617 35.716688,14.132551 34.355969,14.2765 27.471438,15.004797 19.758535,15.268348 8.3984375,15.163477 -3.9582227,15.049402 -5.2036875,14.976738 -6.589086,14.289078 -8.2214571,13.478824 -9.5665118,11.659676 -9.5688516,10.25902 -9.5696563,9.7784336 -8.323543,5.9991367 -6.7997149,1.860582 c 1.5238282,-4.1385547 2.7735,-7.7883164 2.7770508,-8.110582 0.00355,-0.3222657 0.7662383,-3.1347657 1.6948633,-6.25 2.03525783,-6.827603 4.7349688,-16.673151 5.0882383,-18.556224 0.2207969,-1.176965 0.1521016,-1.365651 -0.497207,-1.365651 -0.6469531,0 -1.0125039,0.979677 -2.58714847,6.933594 C -4.0532891,-11.387086 -6.2497266,-4.8692344 -9.3738868,1.3671875 -14.761606,12.122113 -28.698049,36.93957 -41.441058,58.471114 c -5.265485,8.896961 -7.257228,10.632039 -10.512067,9.157441 z M 3.0693516,-41.463551 c 0.1380273,-1.320578 0.2509609,-3.781516 0.2509609,-5.46875 0,-2.49437 -0.1117969,-3.067699 -0.5981953,-3.067699 -0.8149453,0 -0.8659375,0.268042 -1.1332695,5.957031 -0.2204414,4.691135 -0.1915235,4.980469 0.4977539,4.980469 0.6087187,0 0.774,-0.403816 0.98275,-2.401051 z"
         id="path54" /><path
         style="font-variation-settings:normal;opacity:1;fill:#b4c100;fill-opacity:1;stroke:#b4c100;stroke-width:1.241;stroke-linecap:butt;stroke-linejoin:round;stroke-miterlimit:2;stroke-dasharray:none;stroke-dashoffset:0;stroke-opacity:1"
         d="M 39.667435,51.903735 C 38.707849,50.341563 35.885,41.872711 35.138268,38.315742 34.736856,36.403664 34.667947,33.439293 34.846976,25.784766 c 0.22515,-9.626455 0.266553,-10.040759 1.037924,-10.386058 0.441881,-0.197805 1.130757,-0.925271 1.530836,-1.616592 1.584284,-2.737578 3.994866,-18.6248531 4.817571,-31.750866 l 0.281558,-4.492188 0.699802,4.492188 c 1.268891,8.1453023 1.888246,13.5851226 2.882761,25.3193903 2.118391,24.9948907 2.100997,24.8592547 4.101516,31.9837387 2.089373,7.440922 1.514644,9.385926 -3.533961,11.95966 -1.606821,0.819145 -3.656473,1.587934 -4.554783,1.708422 -1.53114,0.205371 -1.683917,0.136653 -2.442765,-1.098726 z"
         id="path55" /></g><path
       style="font-variation-settings:normal;opacity:1;vector-effect:none;fill:#0037ad;fill-opacity:1;stroke:#0037ad;stroke-width:0.484766;stroke-linecap:butt;stroke-linejoin:round;stroke-miterlimit:2;stroke-dasharray:none;stroke-dashoffset:0;stroke-opacity:1;-inkscape-stroke:none"
       d="m 37.565422,166.47854 c -1.263402,-1.39604 -1.250336,-1.32556 -6.127109,-33.0455 -1.483473,-9.64893 -2.835844,-17.65623 -3.00527,-17.794 -0.169422,-0.13777 -2.856871,-1.94491 -5.972105,-4.01589 C 12.242,104.82972 9.4991606,102.26489 -0.23545078,90.399731 -9.7360993,78.819739 -19.561128,65.604211 -22.267678,60.764449 -25.049026,55.790934 -27.021656,49.472391 -27.945395,42.578125 l -0.444877,-3.320312 3.402102,-5.859375 c 1.871156,-3.222657 5.754084,-10.156967 8.62873,-15.409579 4.750144,-8.6795617 5.227213,-9.4095912 5.233053,-8.007812 0.0097,2.324976 1.4000362,4.440709 3.6938346,5.621008 l 1.9424473,0.999508 H 10.340887 c 8.707043,0 17.480203,-0.131569 19.495906,-0.292375 l 3.664918,-0.292374 -0.265012,10.448624 c -0.145754,5.746744 -0.566886,13.259897 -0.935851,16.695897 l -0.670844,6.247275 -3.104863,-6.735556 c -1.707672,-3.704555 -3.199422,-6.732862 -3.315,-6.729572 -0.115578,0.0033 -0.442196,0.15312 -0.725821,0.332955 -0.402351,0.255118 -0.07496,1.305398 1.48977,4.779175 3.149191,6.991369 9.275469,18.693185 13.476383,25.741263 5.884195,9.872196 11.208289,21.586707 16.155601,35.546875 l 1.591977,4.49219 0.620871,10.54687 c 0.341477,5.80078 0.871223,13.56872 1.177207,17.26208 0.644153,7.7751 1.563617,30.51151 1.246707,30.82842 -0.452226,0.45223 -13.190461,1.69081 -17.506512,1.70222 -3.888804,0.0103 -4.620031,-0.0883 -5.170902,-0.69699 z"
       id="path56" /><path
       style="font-variation-settings:normal;opacity:1;vector-effect:none;fill:#0037ad;fill-opacity:1;stroke:#0037ad;stroke-width:0.484766;stroke-linecap:butt;stroke-linejoin:round;stroke-miterlimit:2;stroke-dasharray:none;stroke-dashoffset:0;stroke-opacity:1;-inkscape-stroke:none;stop-color:#000000;stop-opacity:1"
       d="m -34.318198,150.56624 c -1.683287,-1.83741 -4.600814,-6.70652 -5.722633,-9.55061 l -0.847427,-2.14844 1.498816,-1.32287 c 3.323136,-2.93304 21.150257,-15.77927 23.845276,-17.18292 0.626754,-0.32644 1.187833,-1.46593 2.055396,-4.17428 1.038174,-3.24097 4.8312043,-18.236541 6.8727352,-27.171053 l 0.6800422,-2.97612 4.335184,5.294029 c 6.8351055,8.346877 10.5130274,12.314984 13.8855116,14.981054 1.721262,1.36072 3.128621,2.64981 3.127461,2.86466 -0.0012,0.21484 -2.362199,5.40039 -5.24675,11.52344 l -5.2446405,11.13281 -4.60882428,3.25233 C -9.8695758,142.27313 -21.682197,149.3236 -26.222165,150.9254 c -0.877525,0.3096 -2.75436,0.68703 -4.170745,0.83871 l -2.575244,0.27578 z"
       id="path57" /><path
       style="font-variation-settings:normal;opacity:1;vector-effect:none;fill:#0037ad;fill-opacity:1;stroke:#0037ad;stroke-width:0.0473404;stroke-linecap:butt;stroke-linejoin:round;stroke-miterlimit:2;stroke-dasharray:none;stroke-dashoffset:0;stroke-opacity:1;-inkscape-stroke:none"
       d="m -10.914955,-115.06348 c 1.7309606,-3.35241 3.6297679,-5.93009 6.287844,-8.53593 2.7974762,-2.74249 5.6728405,-4.72105 9.081112,-6.24877 1.3609766,-0.61004 4.1408155,-1.57979 4.2410947,-1.47951 0.1387354,0.13873 -2.065831,3.57775 -3.5933779,5.6055 -1.3625713,1.80874 -2.7895322,3.28997 -4.17398342,4.33272 -2.47577148,1.86472 -5.64169248,3.95961 -8.59375008,5.68649 -1.4738185,0.86214 -3.8218043,2.12876 -3.9461853,2.12876 -0.03944,0 0.274321,-0.67017 0.697246,-1.48926 z"
       id="path58" /><path
       style="font-variation-settings:normal;opacity:1;vector-effect:none;fill:#b4c100;fill-opacity:1;stroke:#b4c100;stroke-width:0.267798;stroke-linecap:butt;stroke-linejoin:round;stroke-miterlimit:2;stroke-dasharray:none;stroke-dashoffset:0;stroke-opacity:1;-inkscape-stroke:none"
       d="m -14.423706,-100.87119 c 0.210865,-2.4014 0.765496,-5.74904 1.232512,-7.43919 0.809304,-2.92891 1.008972,-3.16007 4.2580218,-4.9296 8.89653081,-4.84535 13.3198301,-8.58953 17.6298686,-14.92312 l 2.4435376,-3.59078 6.307067,0.0498 c 5.126379,0.0405 6.901703,0.28061 9.483524,1.28265 1.747051,0.67805 3.176456,1.56645 3.176456,1.97422 0,1.15191 -12.006717,13.03107 -16.020388,15.85019 -4.0869811,2.87062 -8.8947631,5.61119 -20.6618006,11.77782 l -8.2321894,4.314164 z"
       id="path59" /><path
       id="path60"
       style="font-variation-settings:normal;opacity:1;vector-effect:none;fill:#238be9;fill-opacity:1;stroke:#238be9;stroke-width:0.267798;stroke-linecap:butt;stroke-linejoin:round;stroke-miterlimit:2;stroke-dasharray:none;stroke-dashoffset:0;stroke-opacity:1;-inkscape-stroke:none"
       d="m 32.326172,-127.75391 -3.730469,4.07618 c -10.046771,10.98255 -14.185579,13.95612 -33.1367186,23.798824 -5.2497,2.726551 -9.5449224,5.209941 -9.5449224,5.519531 0,1.835091 2.038468,7.903063 3.769532,11.21875 3.9757053,7.61508 12.5392134,14.24274 20.689453,16.013672 4.892833,1.063141 8.437063,0.994611 13.333984,-0.257813 6.00171,-1.534979 9.355925,-3.499148 14.152344,-8.287109 6.729283,-6.717418 9.999553,-14.679433 9.855469,-23.992187 -0.03325,-2.149038 -0.07646,-3.167088 -0.169922,-3.249998 l -0.002,-0.002 -0.002,-0.002 h -0.002 -0.002 l -0.002,-0.002 h -0.002 -0.002 l -0.002,0.002 h -0.002 -0.002 c -0.06151,0.0385 -0.144484,0.41653 -0.253907,1.08594 -0.455686,2.787765 -1.41765,4.052733 -3.078125,4.052733 -1.70642,0 -2.577757,-1.22567 -2.851562,-4.005863 -0.4168,-4.2321 2.319714,-6.78924 4.832031,-4.51562 0.64687,0.58541 1.058594,0.703 1.058594,0.30273 0,-1.31309 -2.327048,-7.58351 -3.613281,-9.73633 -2.444695,-4.09176 -2.32271,-3.98749 -3.251953,-2.75781 -0.458087,0.60619 -0.841863,1.75751 -0.851563,2.56055 -0.01765,1.46647 -1.359311,2.53595 -1.960937,1.5625 -0.477281,-0.77225 0.644771,-4.37763 1.738281,-5.58594 0.909538,-1.00503 0.869447,-1.13656 -0.910157,-2.97265 -1.024187,-1.05669 -2.80564,-2.57379 -3.958984,-3.37305 z m -22.115234,27.21289 c 1.74429,0 4.954281,1.494888 5.333984,2.484379 0.555863,1.448556 -0.08931,1.495788 -2.75,0.203125 -3.0359617,-1.474985 -4.7024425,-0.994732 -6.4414064,1.857422 -1.9278471,3.16195 -1.15825,10.325596 1.4140625,13.167969 1.832054,2.024398 5.8906909,0.940108 8.3535159,-2.232422 0.519463,-0.669153 0.794881,-0.701417 1.345703,-0.158203 0.55423,0.546575 0.424562,0.970348 -0.652344,2.123047 -0.740372,0.79248 -1.968929,1.756381 -2.728515,2.140625 -5.8570533,2.962839 -9.8863936,-0.558533 -10.3789068,-9.066406 -0.2051056,-3.543085 -0.053814,-4.609288 0.9296876,-6.53711 1.194306,-2.341034 3.4928014,-3.982426 5.5742192,-3.982426 z m 5.257812,8.285161 c 0.59591,0 0.828125,0.609662 0.828125,2.169921 0,1.685889 -0.324035,2.424776 -1.455078,3.314454 -2.184666,1.718459 -3.805803,1.440896 -6.4394532,-1.101563 -2.2553321,-2.177239 -2.2931334,-2.269053 -1.2324219,-3.052734 1.2658792,-0.935265 2.8472071,-0.766973 2.6171875,0.279297 -0.5021259,2.283974 1.6648686,3.925651 3.7265626,2.822265 0.800155,-0.428229 1.125,-1.157077 1.125,-2.517578 0,-1.3331 0.252947,-1.914062 0.830078,-1.914062 z m -8.8046875,2.140625 v 0.002 h -0.00195 l -0.00195,0.002 v 0.002 c -8.328e-4,0.0021 -0.00156,0.0048 -0.00195,0.0078 -0.011044,0.08473 0.1149028,0.314572 0.3027344,0.550781 0.09076,0.114136 0.5155496,0.556381 0.9453125,0.982422 0.429763,0.426041 0.7849025,0.771778 0.7890625,0.767578 0.00416,-0.0042 -0.034846,-0.108167 -0.087891,-0.230469 -0.191769,-0.442145 -0.3206529,-0.950581 -0.3730469,-1.474609 l -0.029297,-0.28711 -0.085937,0.05273 c -0.0477,0.02876 -0.2343134,0.145745 -0.4140625,0.259765 -0.244033,0.154757 -0.3144586,0.191768 -0.34375,0.177735 -0.0019,-0.0013 -0.00624,-0.0041 -0.00781,-0.0059 l -0.00195,-0.002 C 7.3366245,-89.330941 7.17543,-89.530937 6.9941556,-89.75387 6.7894092,-90.005666 6.7055485,-90.100883 6.6738431,-90.113245 l -0.00195,-0.002 h -0.00195 -0.00195 -0.00195 z" /><path
       style="font-variation-settings:normal;opacity:1;vector-effect:none;fill:#5b6200;fill-opacity:1;stroke:none;stroke-width:1.233;stroke-linecap:round;stroke-linejoin:round;stroke-miterlimit:2;stroke-dasharray:none;stroke-dashoffset:0;stroke-opacity:1;-inkscape-stroke:none"
       d="m 2.6930825,14.915534 c 0,0 -3.65983006,0.966747 -5.9385922,-5.8004856 -2.2787621,-6.7672329 0.2071602,-20.4398054 0.2071602,-20.4398054 0,0 -7.4577665,18.9206307 -7.4577665,19.3349511 0,0.4143203 0.6214802,5.4552179 0.8976938,5.7314319 0.2762136,0.276214 5.1790048,2.278762 5.731432,2.416869 0.5524271,0.138107 6.6291261,0.62148 6.6291261,0.62148 z"
       id="path68" /><path
       style="font-variation-settings:normal;opacity:1;vector-effect:none;fill:#238be9;fill-opacity:1;stroke:#238be9;stroke-width:0.0669495;stroke-linecap:butt;stroke-linejoin:round;stroke-miterlimit:2;stroke-dasharray:none;stroke-dashoffset:0;stroke-opacity:1;-inkscape-stroke:none"
       d="m -62.598584,80.489052 -0.72674,-0.132501 0.864847,-0.945336 c 0.475666,-0.519935 1.532939,-1.656583 2.349495,-2.525886 1.100675,-1.171774 1.484648,-1.673319 1.484648,-1.939246 0,-0.339346 -0.325064,-0.644628 -0.6864,-0.644628 -0.08367,0 -1.372981,1.176528 -2.86513,2.614507 l -2.712998,2.614508 -0.664651,-0.50838 -0.66465,-0.508378 2.766009,-2.693082 c 2.301209,-2.240537 2.765186,-2.757401 2.761113,-3.075837 -0.0035,-0.272503 -0.105265,-0.428486 -0.353345,-0.541519 -0.425152,-0.193712 -0.289735,-0.287874 -3.964723,2.756843 l -2.724944,2.257608 -0.486034,-0.387807 c -0.267319,-0.213294 -0.486037,-0.429345 -0.486039,-0.480114 -2e-6,-0.05077 1.165272,-1.101782 2.589498,-2.335587 3.244831,-2.81099 3.763411,-3.305275 3.763411,-3.587102 0,-0.273841 -0.426536,-0.683184 -0.711877,-0.683184 -0.113715,0 -1.661527,1.246143 -3.439582,2.769207 l -3.232828,2.769207 -0.378292,-0.455918 c -0.208061,-0.250755 -0.379964,-0.490063 -0.382007,-0.531795 -0.002,-0.04173 2.50686,-2.542081 5.575342,-5.556332 l 5.579057,-5.480456 0.244923,0.377327 c 1.153297,1.776772 5.502915,5.17565 7.303908,5.70742 0.345403,0.101985 0.628006,0.231324 0.628006,0.287419 0,0.07519 -1.850547,3.722074 -2.002732,3.946799 -0.01688,0.02493 -3.017021,0.448433 -3.176727,0.448433 -0.0099,0 -1.225747,1.488924 -2.701863,3.308719 -1.476117,1.819798 -2.714922,3.303968 -2.752901,3.298158 -0.03798,-0.0058 -0.396087,-0.07019 -0.795794,-0.143067 z"
       id="path61" /><path
       style="font-variation-settings:normal;opacity:1;vector-effect:none;fill:#001f5f;fill-opacity:1;stroke:none;stroke-width:1.233;stroke-linecap:round;stroke-linejoin:round;stroke-miterlimit:2;stroke-dasharray:none;stroke-dashoffset:0;stroke-opacity:1;-inkscape-stroke:none"
       d="M -17.125242,69.882038 -25.41165,55.933252 -29.27864,40.05097 -11.739077,8.010194 c 0,0 1.381067,4.281311 2.347815,4.971845 0.9667476,0.690534 9.25315521,2.762136 9.25315521,2.762136 l 9.25315519,0.552427 c 0,0 -7.1815533,-3.176457 -14.086893,3.86699 -6.9053394,7.043446 -12.7918614,20.816262 -14.0868934,29.692961 -1.578865,10.822214 1.923292,20.09351 1.933496,20.025485 z"
       id="path67" /><path
       style="font-variation-settings:normal;opacity:1;vector-effect:none;fill:#238be9;fill-opacity:1;stroke:#238be9;stroke-width:0.0669495;stroke-linecap:butt;stroke-linejoin:round;stroke-miterlimit:2;stroke-dasharray:none;stroke-dashoffset:0;stroke-opacity:1;-inkscape-stroke:none"
       d="m -55.842263,80.210868 c -0.07762,-0.249807 -0.312384,-1.075675 -0.521704,-1.835262 -0.209321,-0.759588 -0.430464,-1.401574 -0.491429,-1.426635 -0.06097,-0.02506 0.175278,-0.397951 0.524985,-0.828641 0.636629,-0.784058 0.930175,-0.941764 1.812754,-0.973894 l 0.448847,-0.01634 -8.28e-4,1.484648 c -4.55e-4,0.816556 -0.04033,1.992105 -0.08862,2.61233 l -0.08779,1.127682 -0.498333,0.08812 c -0.274083,0.04846 -0.601478,0.118283 -0.727544,0.155153 -0.164854,0.04821 -0.268836,-0.06049 -0.370334,-0.387157 z"
       id="path62" /><path
       style="font-variation-settings:normal;opacity:1;vector-effect:none;fill:#238be9;fill-opacity:1;stroke:#238be9;stroke-width:0.0167374;stroke-linecap:butt;stroke-linejoin:round;stroke-miterlimit:2;stroke-dasharray:none;stroke-dashoffset:0;stroke-opacity:1;-inkscape-stroke:none"
       d="m 53.550909,64.946584 c -0.358563,-0.01419 -0.510569,-0.03404 -0.588697,-0.07687 -0.175225,-0.09607 -1.579884,-1.088698 -2.915763,-2.060473 -0.933426,-0.679014 -4.154498,-3.048961 -4.20035,-3.090463 -0.0029,-0.0027 -0.318205,-1.286653 -0.700576,-2.853302 -0.382371,-1.566648 -0.701292,-2.866376 -0.708712,-2.888284 -0.0077,-0.0226 0.07886,-0.07371 0.199939,-0.118141 1.059883,-0.388883 2.964797,-1.296547 4.218528,-2.010067 1.103615,-0.628087 2.000919,-1.322133 2.463342,-1.905346 l 0.108897,-0.137341 v 0.158073 0.158073 l 0.457479,0.02376 c 0.529398,0.02749 3.926491,0.259318 3.98174,0.271724 0.05024,0.01128 -0.264722,1.827806 -0.320119,1.846272 -0.0224,0.0075 -0.752956,-0.144293 -1.62346,-0.337244 -1.419895,-0.314726 -1.596948,-0.346992 -1.720898,-0.313615 -0.09122,0.02456 -0.477973,0.290173 -1.138355,0.781793 -0.550105,0.409524 -1.005035,0.758418 -1.010956,0.775321 -0.01928,0.05505 0.692036,0.971733 0.739811,0.9534 0.02469,-0.0095 0.417482,-0.297162 0.87287,-0.639305 l 0.827978,-0.62208 0.526952,0.120978 c 0.289824,0.06654 0.534353,0.128378 0.543398,0.137423 0.009,0.009 -0.02826,0.06311 -0.08291,0.120145 -0.08624,0.09001 -0.09274,0.10998 -0.04927,0.151285 0.02754,0.02617 1.75915,1.45646 3.848015,3.178417 2.088865,1.721957 3.797937,3.144475 3.797937,3.161151 0,0.01668 -0.157176,0.161984 -0.349279,0.322908 l -0.349278,0.292588 -3.086128,-2.035149 C 55.590015,57.189152 54.14866,56.261262 54.076929,56.2418 c -0.23718,-0.06435 -0.499216,0.03677 -0.660953,0.255048 -0.103263,0.139366 -0.103269,0.528828 -1e-5,0.668207 0.05324,0.07186 4.561219,3.671225 5.157042,4.117605 l 0.08478,0.06352 -0.200703,0.245318 c -0.119889,0.146541 -0.216587,0.235763 -0.240152,0.221586 -0.0217,-0.01305 -1.322837,-1.013983 -2.891422,-2.224289 -1.568585,-1.210306 -2.908128,-2.238664 -2.976761,-2.28524 -0.06863,-0.04658 -0.179463,-0.09494 -0.246287,-0.107477 -0.265834,-0.04987 -0.595573,0.136692 -0.676847,0.382952 -0.0543,0.164546 -0.02387,0.443778 0.06081,0.55788 0.03771,0.05081 1.391057,1.156662 3.007447,2.457455 1.61639,1.300793 2.955162,2.381588 2.975048,2.401765 0.02531,0.02569 -0.06284,0.1758 -0.293993,0.500637 -0.181582,0.255173 -0.34332,0.468598 -0.359417,0.474278 -0.0161,0.0057 -1.347625,-0.863482 -2.958951,-1.931469 -1.611327,-1.067988 -2.990757,-1.96302 -3.065401,-1.988961 -0.24101,-0.08376 -0.51993,0.01498 -0.68975,0.244173 -0.09536,0.128697 -0.10262,0.51518 -0.01227,0.653068 0.03298,0.05033 0.677762,0.600408 1.432858,1.222401 2.047666,1.686718 3.358187,2.77705 3.358187,2.793957 0,0.01783 -0.651744,0.0092 -1.329278,-0.01762 z"
       id="path63" /><path
       style="font-variation-settings:normal;opacity:1;fill:none;fill-opacity:1;stroke:#000000;stroke-width:2.389;stroke-linecap:round;stroke-linejoin:round;stroke-miterlimit:2;stroke-dasharray:none;stroke-dashoffset:0;stroke-opacity:1"
       d="m 53.991379,-101.08519 c 0,0 -1.785203,2.522827 -3.547872,1.170848 -1.810851,-1.388938 -2.148017,-4.704438 -2.148017,-4.704438"
       id="path64" /><path
       style="font-variation-settings:normal;opacity:1;vector-effect:none;fill:#800000;fill-opacity:1;stroke:#800000;stroke-width:1.233;stroke-linecap:round;stroke-linejoin:round;stroke-miterlimit:2;stroke-dasharray:none;stroke-dashoffset:0;stroke-opacity:1;-inkscape-stroke:none;stop-color:#000000;stop-opacity:1"
       d="m -37.660719,162.14909 c -0.772743,-0.46628 -2.104734,-2.54 -3.445778,-5.36459 -1.243022,-2.61813 -4.433277,-10.50706 -4.611801,-11.40416 -0.105752,-0.53141 -0.01791,-0.61078 1.977151,-1.78643 1.148301,-0.67667 2.109655,-1.20401 2.136344,-1.17188 0.02669,0.0321 0.593259,1.13241 1.259045,2.44504 1.400552,2.76126 2.856163,5.06408 3.967196,6.27622 l 0.779395,0.85032 -1.121315,1.13314 c -0.729467,0.73716 -1.120324,1.29317 -1.118478,1.59109 0.0016,0.25187 0.376959,1.73236 0.834219,3.28997 0.45726,1.55762 0.822812,3.00154 0.812338,3.20871 -0.01047,0.20717 -0.221077,0.57661 -0.468008,0.82097 -0.433776,0.42926 -0.467616,0.43303 -1.000308,0.1116 z"
       id="path65" /><path
       style="font-variation-settings:normal;opacity:1;fill:#800000;fill-opacity:1;stroke:#800000;stroke-width:1.233;stroke-linecap:round;stroke-linejoin:round;stroke-miterlimit:2;stroke-dasharray:none;stroke-dashoffset:0;stroke-opacity:1"
       d="m 40.734091,181.54297 c -0.501831,-0.39133 -0.680568,-1.67114 -0.900138,-6.44531 l -0.273971,-5.95703 h 3.753181 c 2.06425,0 6.311288,-0.27926 9.437864,-0.62058 3.126576,-0.34132 5.906662,-0.5354 6.177971,-0.43129 0.271308,0.10411 0.706786,0.90189 0.967728,1.77283 0.556865,1.85865 0.743725,1.99883 8.389167,6.29326 3.182241,1.78746 5.643179,3.37756 5.46875,3.53355 -0.34961,0.31266 -26.754234,2.36796 -30.222951,2.35252 -1.194289,-0.005 -2.453209,-0.2294 -2.797601,-0.49795 z"
       id="path66" /><path
       id="path20"
       style="fill:none;fill-opacity:1;stroke:#000000;stroke-width:1.989;stroke-linejoin:round;stroke-miterlimit:2;stroke-dasharray:none;stroke-opacity:1"
       d="m 60.302735,167.08984 1.220703,3.8086 15.283203,8.64258 -0.634766,1.31836 c 0,0 -29.785156,2.53906 -33.447265,2.4414 -3.66211,-0.0977 -3.90625,-2.00195 -3.90625,-2.00195 l -0.341797,-13.37891 m -79.977655,-26.91288 c 0,0 -5.800485,3.24551 -5.731432,3.52172 0.06905,0.27621 5.179005,14.77743 8.148301,17.88483 2.969296,3.1074 4.143204,-1.24296 4.143204,-1.24296 l -1.864442,-6.42197 2.554976,-2.62403 M 43.7108,53.585436 l 1.588228,6.491019 c 0,0 7.319661,5.455219 7.595874,5.455219 0.276214,0 3.797937,0.20716 3.45267,-0.138107 C 56.002305,65.0483 50.61614,60.628883 50.61614,60.628883 l 6.352913,4.212257 1.381067,-1.933495 -6.352912,-5.109952 6.352912,4.902791 1.173908,-1.450121 -5.593325,-4.419417 6.491019,4.28131 1.657282,-1.381068 -8.286408,-6.836286 m -2.347815,-3.383616 c 0.41432,0 5.179005,0.345267 5.179005,0.345267 l -0.552428,3.176456 -3.728883,-0.828641 -1.933495,1.450121 M -53.378276,74.163348 c 0,0.414321 -0.138107,6.69818 -0.138107,6.69818 l -2.693082,0.552427 -1.173908,-4.212257 m -1.795388,-15.260801 c -0.06905,0.345267 -12.222451,12.222451 -12.222451,12.222451 l 1.519174,2.209709 6.836287,-5.938592 -6.836287,5.869539 2.140656,1.795388 6.421965,-5.317112 -5.869538,5.731432 c 0,0 2.140655,1.933495 2.416869,1.795389 0.276213,-0.138107 5.524271,-5.317112 5.524271,-5.317112 l -5.455218,5.800485 3.24551,0.552428 5.455218,-6.69818 3.24551,-0.41432 2.762136,-5.317112 m 66.567474,40.05097 -11.0485432,23.47816 c 0,0 -25.2735438,18.3682 -33.2837378,19.74927 -8.010194,1.38106 -6.214805,-0.55243 -7.872087,-1.9335 -1.657281,-1.38107 -5.938592,-9.66747 -5.938592,-11.32476 0,-1.65728 14.501213,-11.73907 14.501213,-11.73907 0,0 9.94369,-7.04345 11.462864,-7.73398 1.519175,-0.69054 9.2531555,-35.217236 9.2531555,-35.217236 M 33.698058,36.874514 32.178883,51.651941 M -29.101563,39.355469 c 0,0.390625 0.683594,12.011719 5.859375,21.386719 5.175782,9.375 27.5234986,37.313636 33.323984,42.699802 5.800485,5.38616 17.953883,12.84393 17.953883,12.84393 0,0 5.386165,36.18398 6.214806,40.18908 0.828641,4.00509 0.690534,9.52937 3.45267,11.18665 2.762136,1.65728 23.478155,-1.38107 23.478155,-1.38107 0,0 -0.414321,-21.26845 -1.242961,-29.69296 -0.828641,-8.42452 -1.933496,-29.83107 -1.933496,-29.83107 0,0 -8.286407,-25.135435 -16.987135,-38.946114 C 32.31699,53.999756 24.721116,36.322087 24.721116,36.322087 M 1.9334951,-39.153276 c 0,0 1.2429612,-8.079248 0.5524272,-10.496116 m 31.7645627,64.841139 -13.81068,0.966748 c 0,0 -16.5728148,0 -23.7543681,-0.276214 -7.1815529,-0.276213 -7.1815529,-6.2148054 -7.1815529,-6.2148054 0,0 4.4514901,-13.9822965 5.6944512,-16.7444324 M 41.601563,-34.472656 c 0,0 0,15.625 -0.390625,20.800781 -0.390625,5.1757812 -2.734375,23.828125 -4.199219,26.660156 -1.464844,2.832032 -2.734375,1.953125 -2.734375,1.953125 0,0 -0.585938,20.703125 -0.195313,22.851563 0.390625,2.148437 3.90625,13.769531 5.273438,15.429688 1.367187,1.660156 4.785156,0.390625 8.203125,-1.367188 3.417969,-1.757812 3.90625,-2.734375 4.589844,-5.273438 C 52.832032,44.042969 50.585938,38.183594 49.609375,34.375 48.632813,30.566406 47.265625,11.230469 46.289063,-0.1953125 45.3125,-11.621094 42.626953,-25.585938 42.431641,-29.736328 c -0.195313,-4.150391 -2.832031,-16.015625 -4.980469,-19.53125 -2.148437,-3.515625 -11.035156,-6.25 -11.035156,-6.25 0,0 -13.134766,-0.878907 -18.1152347,-0.53711 -4.9804688,0.341797 -8.02456771,1.778718 -8.02456771,1.778718 -3.03834949,0.966748 -6.35291249,3.728883 -11.18665059,10.77233 -4.833738,7.043446 -13.879733,32.869417 -15.2608,36.7364071 -1.381068,3.8669902 -23.823422,47.0944169 -23.823422,47.0944169 0,0 -7.388714,11.739077 -8.700728,15.05364 -1.312015,3.314563 -0.552428,5.800486 -0.138107,7.250607 0.41432,1.450121 3.45267,3.728884 3.45267,3.728884 0,0 3.525355,3.073279 5.576136,2.584998 2.050781,-0.488281 3.710938,-1.171875 7.226563,-6.933594 3.515625,-5.761719 19.53125,-33.59375 19.53125,-33.59375 0,0 15.0390625,-26.855469 16.9921875,-31.933594 1.953125,-5.078125 7.9881826,-26.177336 8.2643962,-28.801365 m -8.1483009,-101.09417 c 2e-7,1.79245 -1.5303546,3.24551 -3.418143,3.24551 -1.8877888,0 -3.4181428,-1.45306 -3.4181428,-3.24551 0,-1.79245 1.530354,-3.24551 3.4181428,-3.24551 1.8877884,0 3.4181432,1.45306 3.418143,3.24551 z m -9.0760558,37.830105 c 0,0 18.471546,-9.012185 27.221679,-14.575195 10.151132,-6.45372 19.628907,-18.65234 19.628907,-18.65234 M 7.0129395,-89.752197 c 0.2624512,-0.213623 2.4475094,-1.50757 2.4475094,-1.50757 m 5.9692391,-6.103515 c 0,0 -4.164195,-3.386298 -6.9335942,-1.953125 -6.6764087,3.455074 -3.9967231,13.886922 -2.0507813,16.40625 4.5754095,5.923589 10.5569225,-1.59071 11.0351565,-2.148437 M 38.48877,-114.51416 c -0.335235,-0.58754 -0.282704,-4.80368 3.503417,-6.33545 4.862394,-1.96721 7.421876,1.51367 7.421876,1.51367 m -0.585938,21.337893 c 0,0 3.18269,0.209459 4.370117,-0.708009 1.796245,-1.387874 1.312548,-3.394904 -0.659179,-7.177734 -1.841332,-3.53266 -6.3543,-7.2712 -6.3543,-7.2712 0,0 1.108199,1.96395 1.78887,4.95187 0.403116,1.76954 1.318359,6.78192 0.854492,10.205073 z m -6.8178,-4.548983 c -1e-6,2.20739 1.029099,3.996834 2.298559,3.996833 1.269459,0 2.298559,-1.789443 2.298558,-3.996833 0,-2.20739 -1.029099,-3.99683 -2.298558,-3.99683 -1.269459,0 -2.298559,1.78944 -2.298559,3.99683 z m 6.734579,3.230624 c 0,18.669156 -14.347342,33.803497 -32.045685,33.803497 -17.69834312,0 -32.045685,-15.134341 -32.045685,-33.803497 2e-6,-18.669154 14.34734299,-33.803494 32.045685,-33.803494 17.698342,0 32.045683,15.13434 32.045685,33.803494 z m -39.8260195,8.303569 c -0.2110488,0.422098 -0.601402,5.046685 3.9062495,4.345704 2.92558,-0.454955 2.775856,-2.593901 2.783204,-5.273438 m -28.503602,-20.277819 c 0,0 6.3847037,-2.76311 14.584907,-8.91282 4.0901213,-3.06737 8.373203,-11.12552 8.373203,-11.12552" /></g></svg>
