<?xml version="1.0" encoding="UTF-8" standalone="no"?>
<svg
   width="314.4877"
   height="336.02621"
   viewBox="0 0 314.4877 336.02621"
   version="1.1"
   id="svg37"
   xmlns="http://www.w3.org/2000/svg"
   xmlns:svg="http://www.w3.org/2000/svg">
  <defs
     id="defs37">
    <marker
       style="overflow:visible"
       id="DartArrow"
       refX="0"
       refY="0"
       orient="auto-start-reverse"
       markerWidth="0.80000001"
       markerHeight="0.80000001"
       viewBox="0 0 1 1"
       preserveAspectRatio="xMidYMid">
      <path
         style="fill:context-stroke;fill-rule:evenodd;stroke:none"
         d="M 0,0 5,-5 -12.5,0 5,5 Z"
         transform="scale(-0.5)"
         id="path40" />
    </marker>
  </defs>
  <path
     fill="none"
     stroke-width="1.3"
     stroke-linecap="butt"
     stroke-linejoin="miter"
     stroke="#000000"
     stroke-opacity="1"
     stroke-miterlimit="2"
     d="m 157.22421,22.291423 c -47.82123,-0.297771 -95.024658,22.919733 -123.988738,60.96903 -29.26292,37.486637 -39.76795,88.679337 -27.62,134.660157 11.68484,46.53353 46.12744,86.56078 90.4088,105.03572 44.188018,19.0876 97.110728,16.00404 138.773438,-8.11235 41.87213,-23.53381 71.43864,-67.3758 77.57142,-115.01366 6.82782,-48.0301 -10.48576,-98.64775 -45.2425,-132.476397 -28.89827,-28.687534 -69.18048,-45.201414 -109.90242,-45.0625 z"
     id="path1" />
  <path
     fill="none"
     stroke-width="0.8"
     stroke-linecap="butt"
     stroke-linejoin="miter"
     stroke="#000000"
     stroke-opacity="1"
     stroke-dasharray="2.4, 2.4"
     stroke-miterlimit="2"
     d="m 189.2203,25.627361 c -0.78906,-0.166667 -1.57812,-0.333333 -2.36718,-0.5"
     id="path3" />
  <path
     fill="none"
     stroke-width="0.8"
     stroke-linecap="butt"
     stroke-linejoin="miter"
     stroke="#000000"
     stroke-opacity="1"
     stroke-dasharray="2.4, 2.4"
     stroke-miterlimit="2"
     d="m 132.07187,24.338298 c -7.89989,1.848725 -18.31122,2.291162 -23.12891,9.707031 0.44321,7.010147 9.65627,8.133698 15.11327,9.953125 23.5766,4.746133 48.58909,4.973472 71.83617,-1.586671 4.44063,-1.113118 13.30499,-5.641125 7.88645,-10.866463 -4.11918,-3.352293 -9.50871,-4.661763 -14.5586,-5.917968"
     id="path4" />
  <path
     fill="none"
     stroke-width="0.8"
     stroke-linecap="butt"
     stroke-linejoin="miter"
     stroke="#000000"
     stroke-opacity="1"
     stroke-dasharray="2.4, 2.4"
     stroke-miterlimit="2"
     d="m 72.087492,47.471111 c -5.87822,2.562768 -9.87535,10.885132 -3.54152,15.327312 14.42703,10.75991 33.258808,12.61072 50.561838,15.20561 35.94107,3.64105 72.93677,3.29405 108.00539,-6.1438 8.10233,-2.90519 18.94839,-5.44085 22.11492,-14.4633 0.51042,-3.788205 -2.45892,-6.792772 -5.25778,-8.847658"
     id="path5" />
  <path
     fill="none"
     stroke-width="0.8"
     stroke-linecap="butt"
     stroke-linejoin="miter"
     stroke="#000000"
     stroke-opacity="1"
     stroke-dasharray="2.4, 2.4"
     stroke-miterlimit="2"
     d="m 33.064052,83.486733 c -6.5846,7.43951 1.31754,16.44538 8.36468,19.722107 24.54064,12.62752 52.67485,15.48264 79.771778,18.04359 43.65474,2.85532 88.23916,1.71598 130.71779,-9.59783 11.33809,-3.81404 25.02395,-7.23915 31.3606,-18.343597 1.08435,-2.73909 0.67783,-5.75166 -0.80858,-8.25781"
     id="path6" />
  <path
     fill="none"
     stroke-width="0.8"
     stroke-linecap="butt"
     stroke-linejoin="miter"
     stroke="#000000"
     stroke-opacity="1"
     stroke-dasharray="2.4, 2.4"
     stroke-miterlimit="2"
     d="m 9.708582,126.92033 c -5.12281,10.12378 5.97817,18.35789 13.97628,22.25717 28.78902,13.68152 61.12612,17.15189 92.515398,19.95475 49.50436,3.19866 99.92951,1.7764 148.25054,-10.28292 14.13297,-4.25815 30.05222,-8.314 39.67966,-20.33529 1.86936,-2.87195 2.54229,-6.43801 1.43359,-9.72657"
     id="path7" />
  <path
     fill="none"
     stroke-width="0.8"
     stroke-linecap="butt"
     stroke-linejoin="miter"
     stroke="#000000"
     stroke-opacity="1"
     stroke-dasharray="2.4, 2.4"
     stroke-miterlimit="2"
     d="M 0.67343201,178.50626 C 1.828012,190.97708 15.520572,196.3243 25.467032,200.81935 c 37.46422,13.92704 77.911658,17.07887 117.549018,18.46596 45.85,0.66708 92.47172,-1.80659 136.62613,-15.07206 12.21535,-4.53109 26.76987,-8.91667 33.33984,-21.16015 0.23047,-0.85547 0.46094,-1.71094 0.69141,-2.56641"
     id="path8" />
  <path
     fill="none"
     stroke-width="0.8"
     stroke-linecap="butt"
     stroke-linejoin="miter"
     stroke="#000000"
     stroke-opacity="1"
     stroke-dasharray="2.4, 2.4"
     stroke-miterlimit="2"
     d="m 8.560152,227.69767 c 4.36005,12.31761 18.49481,16.75212 29.58565,21.12888 41.72786,13.36192 86.095968,15.68146 129.629188,15.37889 38.722,-1.21521 78.28094,-4.08753 114.86632,-17.75581 8.56292,-3.73345 18.39495,-7.98278 22.68446,-16.86919"
     id="path9" />
  <path
     fill="none"
     stroke-width="0.8"
     stroke-linecap="butt"
     stroke-linejoin="miter"
     stroke="#000000"
     stroke-opacity="1"
     stroke-dasharray="2.4, 2.4"
     stroke-miterlimit="2"
     d="m 32.653902,273.66642 c 11.03359,12.3179 28.42805,15.53821 43.77343,19.47266 47.959408,9.48292 97.625708,9.78217 145.950088,2.8637 19.55996,-3.61136 40.6763,-6.76161 56.73659,-19.37038 0.47423,-0.4626 0.94847,-0.92521 1.4227,-1.38781"
     id="path10" />
  <path
     fill="none"
     stroke-width="0.8"
     stroke-linecap="butt"
     stroke-linejoin="miter"
     stroke="#000000"
     stroke-opacity="1"
     stroke-dasharray="2.4, 2.4"
     stroke-miterlimit="2"
     d="m 71.501552,309.86173 c 19.68145,11.07957 42.969778,12.80196 65.048678,14.66115 32.15812,1.46196 65.23264,0.59603 96.04507,-9.61033 2.95689,-1.1344 5.86362,-2.39691 8.61719,-3.96875"
     id="path11" />
  <path
     fill="none"
     stroke-width="0.8"
     stroke-linecap="butt"
     stroke-linejoin="miter"
     stroke="#000000"
     stroke-opacity="1"
     stroke-dasharray="2.4, 2.4"
     stroke-miterlimit="2"
     d="m 128.82577,332.81486 c 18.07294,3.15668 36.73622,3.19881 54.85156,0.34768"
     id="path12" />
  <path
     fill="none"
     stroke-width="0.8"
     stroke-linecap="butt"
     stroke-linejoin="miter"
     stroke="#000000"
     stroke-opacity="1"
     stroke-dasharray="2.4, 2.4"
     stroke-miterlimit="2"
     d="M 194.17343,26.744548 C 164.47649,18.804446 133.94515,33.934849 113.2515,54.700673 77.509942,90.482343 58.766662,140.61756 54.334442,190.39538 c -3.05487,39.12159 2.58409,81.38452 26.79582,113.46493 9.21074,11.94664 21.623728,21.60998 36.090138,26.2358"
     id="path13" />
  <path
     fill="none"
     stroke-width="0.8"
     stroke-linecap="butt"
     stroke-linejoin="miter"
     stroke="#000000"
     stroke-opacity="1"
     stroke-dasharray="2.4, 2.4"
     stroke-miterlimit="2"
     d="m 166.41171,22.666423 c -8.95135,-0.350566 -12.53225,10.336127 -15.87252,16.982392 -13.23011,34.382798 -17.39322,71.422585 -21.11981,107.834825 -4.07171,50.46626 -5.48927,101.66089 2.60804,151.80866 2.65197,11.89534 4.30657,25.41028 13.23585,34.44053 1.15858,0.78482 2.31273,1.30515 3.71485,1.46484"
     id="path14" />
  <path
     fill="none"
     stroke-width="0.8"
     stroke-linecap="butt"
     stroke-linejoin="miter"
     stroke="#000000"
     stroke-opacity="1"
     stroke-dasharray="2.4, 2.4"
     stroke-miterlimit="2"
     d="m 142.39608,23.053142 c 14.26916,-1.38797 23.50619,12.499021 29.98426,23.230233 18.67047,34.234718 26.16367,73.262515 31.23977,111.553825 5.11544,46.00832 6.21728,93.39358 -5.20059,138.58313 -4.3162,13.72107 -9.09963,29.98459 -22.74415,37.12211 -0.70507,0.26789 -1.41015,0.53578 -2.11522,0.80367"
     id="path15" />
  <path
     fill="none"
     stroke-width="0.8"
     stroke-linecap="butt"
     stroke-linejoin="miter"
     stroke="#000000"
     stroke-opacity="1"
     stroke-dasharray="2.4, 2.4"
     stroke-miterlimit="2"
     d="m 108.44296,30.174235 c 32.65584,-12.038278 69.42222,-0.666608 95.61012,20.533105 44.72471,35.968733 68.94756,93.49537 70.74144,150.16611 0.90882,40.01281 -10.39788,83.15932 -41.32259,110.46205 -8.98904,7.80874 -19.51885,13.76617 -30.87673,17.35826"
     id="path16" />
  <path
     fill="none"
     stroke-width="0.8"
     stroke-linecap="butt"
     stroke-linejoin="miter"
     stroke="#000000"
     stroke-opacity="1"
     stroke-dasharray="2.4, 2.4"
     stroke-miterlimit="2"
     d="M 33.638272,82.740643 C 64.160862,42.898793 116.4231,22.358531 165.96396,28.296368 228.554,34.514516 284.99382,80.497573 303.50665,140.64606 c 14.20919,43.57224 7.31882,93.39437 -19.86856,130.56333"
     id="path17" />
  <path
     fill="none"
     stroke-width="0.8"
     stroke-linecap="butt"
     stroke-linejoin="miter"
     stroke="#000000"
     stroke-opacity="1"
     stroke-dasharray="2.4, 2.4"
     stroke-miterlimit="2"
     d="M 8.724212,191.78751 C 8.478382,126.30072 51.171202,63.503323 111.67623,38.804601 155.23771,20.284589 207.83216,23.315808 247.0914,50.682048"
     id="path18" />
  <path
     fill="none"
     stroke-width="0.8"
     stroke-linecap="butt"
     stroke-linejoin="miter"
     stroke="#000000"
     stroke-opacity="1"
     stroke-dasharray="2.4, 2.4"
     stroke-miterlimit="2"
     d="M 63.661712,304.37345 C 28.343192,278.51122 8.517892,235.21247 8.724212,191.78751"
     id="path19" />
  <g
     id="g44"
     style="display:inline"
     transform="translate(-142.77579,-46.146077)">
    <path
       fill="none"
       stroke-width="3"
       stroke-linecap="butt"
       stroke-linejoin="miter"
       stroke="#0072b2"
       stroke-opacity="1"
       stroke-miterlimit="2"
       d="m 196.27344,255.44922 c 0.42108,-53.27387 17.75193,-107.6836 53.31247,-147.99219 C 263.29201,92.372787 280.22719,79.487127 300,73.675781"
       id="path24" />
    <path
       fill="none"
       stroke-width="3"
       stroke-linecap="butt"
       stroke-linejoin="miter"
       stroke="#e69f00"
       stroke-opacity="1"
       stroke-miterlimit="2"
       d="m 268.98047,264.81641 c 0.44935,-52.70289 4.21623,-105.833 17.04904,-157.10086 C 289.40504,95.971935 292.73583,83.706702 300,73.675781"
       id="path25" />
  </g>
  <g
     id="g40"
     style="display:inline"
     transform="translate(-142.77579,-46.146077)">
    <path
       fill="none"
       stroke-width="3"
       stroke-linecap="butt"
       stroke-linejoin="miter"
       stroke="#0072b2"
       stroke-opacity="1"
       stroke-miterlimit="2"
       d="m 196.27344,255.44922 c -0.009,-20.20182 -0.0182,-40.40365 -0.0273,-60.60547"
       id="path20"
       style="marker-end:url(#DartArrow)" />
    <path
       fill="none"
       stroke-width="3"
       stroke-linecap="butt"
       stroke-linejoin="miter"
       stroke="#e69f00"
       stroke-opacity="1"
       stroke-miterlimit="2"
       d="m 268.98047,264.81641 c -0.003,-20.21354 -0.005,-40.42709 -0.008,-60.64063"
       id="path21"
       style="font-variation-settings:normal;opacity:1;vector-effect:none;fill:none;fill-opacity:1;stroke:#e69f00;stroke-width:3;stroke-linecap:butt;stroke-linejoin:miter;stroke-miterlimit:2;stroke-dasharray:none;stroke-dashoffset:0;stroke-opacity:1;-inkscape-stroke:none;marker-end:url(#DartArrow);stop-color:#000000;stop-opacity:1" />
    <path
       fill-rule="nonzero"
       fill="#0072b2"
       fill-opacity="1"
       d="m 199.44922,255.44922 c 0,-4.22656 -6.34766,-4.22656 -6.34766,0 0,4.23047 6.34766,4.23047 6.34766,0 z m 0,0"
       id="path22" />
    <path
       fill-rule="nonzero"
       fill="#e69f00"
       fill-opacity="1"
       d="m 272.15234,264.81641 c 0,-4.23047 -6.34375,-4.23047 -6.34375,0 0,4.23046 6.34375,4.23046 6.34375,0 z m 0,0"
       id="path23" />
  </g>
  <g
     id="g41"
     style="display:inline"
     transform="translate(-142.77579,-46.146077)">
    <path
       fill="none"
       stroke-width="3"
       stroke-linecap="butt"
       stroke-linejoin="miter"
       stroke="#0072b2"
       stroke-opacity="1"
       stroke-miterlimit="2"
       d="m 210.16406,175.61719 c 6.91927,-19.52083 13.83854,-39.04167 20.75781,-58.5625"
       id="path26"
       style="font-variation-settings:normal;opacity:1;vector-effect:none;fill:none;fill-opacity:1;stroke:#0072b2;stroke-width:3;stroke-linecap:butt;stroke-linejoin:miter;stroke-miterlimit:2;stroke-dasharray:none;stroke-dashoffset:0;stroke-opacity:1;-inkscape-stroke:none;marker-end:url(#DartArrow);stop-color:#000000;stop-opacity:1" />
    <path
       fill="none"
       stroke-width="3"
       stroke-linecap="butt"
       stroke-linejoin="miter"
       stroke="#e69f00"
       stroke-opacity="1"
       stroke-miterlimit="2"
       d="m 273.13672,183.6875 c 2.06901,-20.14974 4.13802,-40.29948 6.20703,-60.44922"
       id="path27"
       style="font-variation-settings:normal;opacity:1;vector-effect:none;fill:none;fill-opacity:1;stroke:#e69f00;stroke-width:3;stroke-linecap:butt;stroke-linejoin:miter;stroke-miterlimit:2;stroke-dasharray:none;stroke-dashoffset:0;stroke-opacity:1;-inkscape-stroke:none;marker-end:url(#DartArrow);stop-color:#000000;stop-opacity:1" />
    <path
       fill-rule="nonzero"
       fill="#0072b2"
       fill-opacity="1"
       d="m 213.33594,175.61719 c 0,-4.23047 -6.34375,-4.23047 -6.34375,0 0,4.23047 6.34375,4.23047 6.34375,0 z m 0,0"
       id="path28" />
    <path
       fill-rule="nonzero"
       fill="#e69f00"
       fill-opacity="1"
       d="m 276.30859,183.6875 c 0,-4.23047 -6.34375,-4.23047 -6.34375,0 0,4.23047 6.34375,4.23047 6.34375,0 z m 0,0"
       id="path29" />
  </g>
  <g
     id="g42"
     style="display:inline"
     transform="translate(-142.77579,-46.146077)">
    <path
       fill="none"
       stroke-width="3"
       stroke-linecap="butt"
       stroke-linejoin="miter"
       stroke="#0072b2"
       stroke-opacity="1"
       stroke-miterlimit="2"
       d="m 248.15625,109.0625 c 8.02344,-9.102865 16.04687,-18.205729 24.07031,-27.308594"
       id="path30"
       style="font-variation-settings:normal;opacity:1;vector-effect:none;fill:none;fill-opacity:1;stroke:#0072b2;stroke-width:3;stroke-linecap:butt;stroke-linejoin:miter;stroke-miterlimit:2;stroke-dasharray:none;stroke-dashoffset:0;stroke-opacity:1;-inkscape-stroke:none;marker-end:url(#DartArrow);stop-color:#000000;stop-opacity:1" />
    <path
       fill="none"
       stroke-width="3"
       stroke-linecap="butt"
       stroke-linejoin="miter"
       stroke="#e69f00"
       stroke-opacity="1"
       stroke-miterlimit="2"
       d="m 284.5,113.69922 c 2.39974,-9.82162 4.79948,-19.64323 7.19922,-29.464845"
       id="path31"
       style="font-variation-settings:normal;opacity:1;vector-effect:none;fill:none;fill-opacity:1;stroke:#e69f00;stroke-width:3;stroke-linecap:butt;stroke-linejoin:miter;stroke-miterlimit:2;stroke-dasharray:none;stroke-dashoffset:0;stroke-opacity:1;-inkscape-stroke:none;marker-end:url(#DartArrow);stop-color:#000000;stop-opacity:1" />
    <path
       fill-rule="nonzero"
       fill="#0072b2"
       fill-opacity="1"
       d="m 251.32812,109.05859 c 0,-4.22656 -6.34375,-4.22656 -6.34375,0 0,4.23047 6.34375,4.23047 6.34375,0 z m 0,0"
       id="path32" />
    <path
       fill-rule="nonzero"
       fill="#e69f00"
       fill-opacity="1"
       d="m 287.67187,113.69922 c 0,-4.23047 -6.34375,-4.23047 -6.34375,0 0,4.23047 6.34375,4.23047 6.34375,0 z m 0,0"
       id="path33" />
  </g>
  <g
     id="g43"
     style="display:inline"
     transform="translate(-142.77579,-46.146077)">
    <path
       fill="none"
       stroke-width="3"
       stroke-linecap="butt"
       stroke-linejoin="miter"
       stroke="#0072b2"
       stroke-opacity="1"
       stroke-miterlimit="2"
       d="m 300,73.675781 c 13.80339,-4.015625 27.60677,-8.03125 41.41016,-12.046875"
       id="path34"
       style="font-variation-settings:normal;opacity:1;vector-effect:none;fill:none;fill-opacity:1;stroke:#0072b2;stroke-width:3;stroke-linecap:butt;stroke-linejoin:miter;stroke-miterlimit:2;stroke-dasharray:none;stroke-dashoffset:0;stroke-opacity:1;-inkscape-stroke:none;marker-end:url(#DartArrow);stop-color:#000000;stop-opacity:1" />
    <path
       fill="none"
       stroke-width="3"
       stroke-linecap="butt"
       stroke-linejoin="miter"
       stroke="#e69f00"
       stroke-opacity="1"
       stroke-miterlimit="2"
       d="m 300,73.675781 c 4.125,-5.246094 8.25,-10.492187 12.375,-15.738281"
       id="path35"
       style="font-variation-settings:normal;opacity:1;vector-effect:none;fill:none;fill-opacity:1;stroke:#e69f00;stroke-width:3;stroke-linecap:butt;stroke-linejoin:miter;stroke-miterlimit:2;stroke-dasharray:none;stroke-dashoffset:0;stroke-opacity:1;-inkscape-stroke:none;marker-end:url(#DartArrow);stop-color:#000000;stop-opacity:1" />
    <path
       fill-rule="nonzero"
       fill="#e69f00"
       fill-opacity="1"
       d="m 303.17187,73.675781 c 0,-4.230469 -6.34375,-4.230469 -6.34375,0 0,4.230469 6.34375,4.230469 6.34375,0 z m 0,0"
       id="path37" />
  </g>
</svg>
