<?xml version="1.0" encoding="UTF-8" standalone="no"?>
<svg
   width="128.16406"
   height="386.3457"
   viewBox="0 0 128.16406 386.3457"
   version="1.1"
   id="svg43"
   xmlns="http://www.w3.org/2000/svg"
   xmlns:svg="http://www.w3.org/2000/svg">
  <defs
     id="defs43" />
  <path
     fill="none"
     stroke-width="1.5"
     stroke-linecap="butt"
     stroke-linejoin="miter"
     stroke="#0072b2"
     stroke-opacity="1"
     stroke-miterlimit="2"
     d="M 3.1718701,383.17285 V 3.1728517"
     id="path2"
     style="stroke-width:2.6;stroke-dasharray:none" />
  <path
     fill-rule="nonzero"
     fill="#0072b2"
     fill-opacity="1"
     d="m 6.34375,383.17285 c 0,-4.23047 -6.34375,-4.23047 -6.34375,0 0,4.23047 6.34375,4.23047 6.34375,0 z m 0,0"
     id="path3" />
  <path
     fill-rule="nonzero"
     fill="#0072b2"
     fill-opacity="1"
     d="m 6.34375,363.17285 c 0,-4.23047 -6.34375,-4.23047 -6.34375,0 0,4.23047 6.34375,4.23047 6.34375,0 z m 0,0"
     id="path4" />
  <path
     fill-rule="nonzero"
     fill="#0072b2"
     fill-opacity="1"
     d="m 6.34375,343.17285 c 0,-4.23047 -6.34375,-4.23047 -6.34375,0 0,4.23047 6.34375,4.23047 6.34375,0 z m 0,0"
     id="path5" />
  <path
     fill-rule="nonzero"
     fill="#0072b2"
     fill-opacity="1"
     d="m 6.34375,323.17285 c 0,-4.23047 -6.34375,-4.23047 -6.34375,0 0,4.23047 6.34375,4.23047 6.34375,0 z m 0,0"
     id="path6" />
  <path
     fill-rule="nonzero"
     fill="#0072b2"
     fill-opacity="1"
     d="m 6.34375,303.17285 c 0,-4.23047 -6.34375,-4.23047 -6.34375,0 0,4.23047 6.34375,4.23047 6.34375,0 z m 0,0"
     id="path7" />
  <path
     fill-rule="nonzero"
     fill="#0072b2"
     fill-opacity="1"
     d="m 6.34375,283.17285 c 0,-4.23047 -6.34375,-4.23047 -6.34375,0 0,4.23047 6.34375,4.23047 6.34375,0 z m 0,0"
     id="path8" />
  <path
     fill-rule="nonzero"
     fill="#0072b2"
     fill-opacity="1"
     d="m 6.34375,263.17285 c 0,-4.23047 -6.34375,-4.23047 -6.34375,0 0,4.23047 6.34375,4.23047 6.34375,0 z m 0,0"
     id="path9" />
  <path
     fill-rule="nonzero"
     fill="#0072b2"
     fill-opacity="1"
     d="m 6.34375,243.17285 c 0,-4.23047 -6.34375,-4.23047 -6.34375,0 0,4.23047 6.34375,4.23047 6.34375,0 z m 0,0"
     id="path10" />
  <path
     fill-rule="nonzero"
     fill="#0072b2"
     fill-opacity="1"
     d="m 6.34375,223.17285 c 0,-4.23047 -6.34375,-4.23047 -6.34375,0 0,4.23047 6.34375,4.23047 6.34375,0 z m 0,0"
     id="path11" />
  <path
     fill-rule="nonzero"
     fill="#0072b2"
     fill-opacity="1"
     d="m 6.34375,203.17285 c 0,-4.23047 -6.34375,-4.23047 -6.34375,0 0,4.23047 6.34375,4.23047 6.34375,0 z m 0,0"
     id="path12" />
  <path
     fill-rule="nonzero"
     fill="#0072b2"
     fill-opacity="1"
     d="m 6.34375,183.17285 c 0,-4.23047 -6.34375,-4.23047 -6.34375,0 0,4.23047 6.34375,4.23047 6.34375,0 z m 0,0"
     id="path13" />
  <path
     fill-rule="nonzero"
     fill="#0072b2"
     fill-opacity="1"
     d="m 6.34375,163.17285 c 0,-4.23047 -6.34375,-4.23047 -6.34375,0 0,4.23047 6.34375,4.23047 6.34375,0 z m 0,0"
     id="path14" />
  <path
     fill-rule="nonzero"
     fill="#0072b2"
     fill-opacity="1"
     d="m 6.34375,143.17285 c 0,-4.23047 -6.34375,-4.23047 -6.34375,0 0,4.23047 6.34375,4.23047 6.34375,0 z m 0,0"
     id="path15" />
  <path
     fill-rule="nonzero"
     fill="#0072b2"
     fill-opacity="1"
     d="m 6.34375,123.17285 c 0,-4.23047 -6.34375,-4.23047 -6.34375,0 0,4.23047 6.34375,4.23047 6.34375,0 z m 0,0"
     id="path16" />
  <path
     fill-rule="nonzero"
     fill="#0072b2"
     fill-opacity="1"
     d="m 6.34375,103.17285 c 0,-4.230468 -6.34375,-4.230468 -6.34375,0 0,4.23047 6.34375,4.23047 6.34375,0 z m 0,0"
     id="path17" />
  <path
     fill-rule="nonzero"
     fill="#0072b2"
     fill-opacity="1"
     d="m 6.34375,83.172852 c 0,-4.23047 -6.34375,-4.23047 -6.34375,0 0,4.23047 6.34375,4.23047 6.34375,0 z m 0,0"
     id="path18" />
  <path
     fill-rule="nonzero"
     fill="#0072b2"
     fill-opacity="1"
     d="m 6.34375,63.172852 c 0,-4.230469 -6.34375,-4.230469 -6.34375,0 0,4.230469 6.34375,4.230469 6.34375,0 z m 0,0"
     id="path19" />
  <path
     fill-rule="nonzero"
     fill="#0072b2"
     fill-opacity="1"
     d="m 6.34375,43.172852 c 0,-4.230469 -6.34375,-4.230469 -6.34375,0 0,4.230469 6.34375,4.230469 6.34375,0 z m 0,0"
     id="path20" />
  <path
     fill-rule="nonzero"
     fill="#0072b2"
     fill-opacity="1"
     d="m 6.34375,23.172852 c 0,-4.230469 -6.34375,-4.230469 -6.34375,0 0,4.230469 6.34375,4.230469 6.34375,0 z m 0,0"
     id="path21" />
  <path
     fill-rule="nonzero"
     fill="#0072b2"
     fill-opacity="1"
     d="m 6.34375,3.1728517 c 0,-4.230469 -6.34375,-4.230469 -6.34375,0 0,4.230469 6.34375,4.230469 6.34375,0 z m 0,0"
     id="path22" />
  <path
     fill="none"
     stroke-width="1.5"
     stroke-linecap="butt"
     stroke-linejoin="miter"
     stroke="#e69f00"
     stroke-opacity="1"
     stroke-miterlimit="2"
     d="m 124.99219,383.17285 -0.41797,-20 -1.2461,-20 -2.0664,-20 -2.8711,-20 -3.66015,-20 -4.42188,-20 -5.15234,-20 -5.851561,-20 -6.50782,-20 -7.11718,-20 -7.6836,-20 -8.19531,-20 -8.64844,-20 -9.04687,-20 -9.37891,-19.999998 -9.64844,-20 -9.85547,-20 -9.98828,-20 L 3.17187,3.1728517"
     id="path23"
     style="stroke-width:2.6;stroke-dasharray:none" />
  <path
     fill-rule="nonzero"
     fill="#e69f00"
     fill-opacity="1"
     d="m 128.16406,383.17285 c 0,-4.23047 -6.34375,-4.23047 -6.34375,0 0,4.23047 6.34375,4.23047 6.34375,0 z m 0,0"
     id="path24" />
  <path
     fill-rule="nonzero"
     fill="#e69f00"
     fill-opacity="1"
     d="m 127.74609,363.17285 c 0,-4.23047 -6.34375,-4.23047 -6.34375,0 0,4.23047 6.34375,4.23047 6.34375,0 z m 0,0"
     id="path25" />
  <path
     fill-rule="nonzero"
     fill="#e69f00"
     fill-opacity="1"
     d="m 126.5039,343.17285 c 0,-4.23047 -6.34765,-4.23047 -6.34765,0 0,4.23047 6.34765,4.23047 6.34765,0 z m 0,0"
     id="path26" />
  <path
     fill-rule="nonzero"
     fill="#e69f00"
     fill-opacity="1"
     d="m 124.4375,323.17285 c 0,-4.23047 -6.34766,-4.23047 -6.34766,0 0,4.23047 6.34766,4.23047 6.34766,0 z m 0,0"
     id="path27" />
  <path
     fill-rule="nonzero"
     fill="#e69f00"
     fill-opacity="1"
     d="m 121.5625,303.17285 c 0,-4.23047 -6.34375,-4.23047 -6.34375,0 0,4.23047 6.34375,4.23047 6.34375,0 z m 0,0"
     id="path28" />
  <path
     fill-rule="nonzero"
     fill="#e69f00"
     fill-opacity="1"
     d="m 117.90234,283.17285 c 0,-4.23047 -6.34375,-4.23047 -6.34375,0 0,4.23047 6.34375,4.23047 6.34375,0 z m 0,0"
     id="path29" />
  <path
     fill-rule="nonzero"
     fill="#e69f00"
     fill-opacity="1"
     d="m 113.48047,263.17285 c 0,-4.23047 -6.34375,-4.23047 -6.34375,0 0,4.23047 6.34375,4.23047 6.34375,0 z m 0,0"
     id="path30" />
  <path
     fill-rule="nonzero"
     fill="#e69f00"
     fill-opacity="1"
     d="m 108.32812,243.17285 c 0,-4.23047 -6.34375,-4.23047 -6.34375,0 0,4.23047 6.34375,4.23047 6.34375,0 z m 0,0"
     id="path31" />
  <path
     fill-rule="nonzero"
     fill="#e69f00"
     fill-opacity="1"
     d="m 102.47656,223.17285 c 0,-4.23047 -6.343751,-4.23047 -6.343751,0 0,4.23047 6.343751,4.23047 6.343751,0 z m 0,0"
     id="path32" />
  <path
     fill-rule="nonzero"
     fill="#e69f00"
     fill-opacity="1"
     d="m 95.968749,203.17285 c 0,-4.23047 -6.34375,-4.23047 -6.34375,0 0,4.23047 6.34375,4.23047 6.34375,0 z m 0,0"
     id="path33" />
  <path
     fill-rule="nonzero"
     fill="#e69f00"
     fill-opacity="1"
     d="m 88.851559,183.17285 c 0,-4.23047 -6.34766,-4.23047 -6.34766,0 0,4.23047 6.34766,4.23047 6.34766,0 z m 0,0"
     id="path34" />
  <path
     fill-rule="nonzero"
     fill="#e69f00"
     fill-opacity="1"
     d="m 81.167969,163.17285 c 0,-4.23047 -6.34375,-4.23047 -6.34375,0 0,4.23047 6.34375,4.23047 6.34375,0 z m 0,0"
     id="path35" />
  <path
     fill-rule="nonzero"
     fill="#e69f00"
     fill-opacity="1"
     d="m 72.972649,143.17285 c 0,-4.23047 -6.34375,-4.23047 -6.34375,0 0,4.23047 6.34375,4.23047 6.34375,0 z m 0,0"
     id="path36" />
  <path
     fill-rule="nonzero"
     fill="#e69f00"
     fill-opacity="1"
     d="m 64.324219,123.17285 c 0,-4.23047 -6.34375,-4.23047 -6.34375,0 0,4.23047 6.34375,4.23047 6.34375,0 z m 0,0"
     id="path37" />
  <path
     fill-rule="nonzero"
     fill="#e69f00"
     fill-opacity="1"
     d="m 55.277339,103.17285 c 0,-4.230468 -6.34375,-4.230468 -6.34375,0 0,4.23047 6.34375,4.23047 6.34375,0 z m 0,0"
     id="path38" />
  <path
     fill-rule="nonzero"
     fill="#e69f00"
     fill-opacity="1"
     d="m 45.898439,83.172852 c 0,-4.23047 -6.34375,-4.23047 -6.34375,0 0,4.23047 6.34375,4.23047 6.34375,0 z m 0,0"
     id="path39" />
  <path
     fill-rule="nonzero"
     fill="#e69f00"
     fill-opacity="1"
     d="m 36.249999,63.172852 c 0,-4.230469 -6.34375,-4.230469 -6.34375,0 0,4.230469 6.34375,4.230469 6.34375,0 z m 0,0"
     id="path40" />
  <path
     fill-rule="nonzero"
     fill="#e69f00"
     fill-opacity="1"
     d="m 26.394529,43.172852 c 0,-4.230469 -6.34375,-4.230469 -6.34375,0 0,4.230469 6.34375,4.230469 6.34375,0 z m 0,0"
     id="path41" />
  <path
     fill-rule="nonzero"
     fill="#e69f00"
     fill-opacity="1"
     d="m 16.406249,23.172852 c 0,-4.230469 -6.34766,-4.230469 -6.34766,0 0,4.230469 6.34766,4.230469 6.34766,0 z m 0,0"
     id="path42" />
  <path
     fill-rule="nonzero"
     fill="#e69f00"
     fill-opacity="1"
     d="m 6.34375,3.1728517 c 0,-4.230469 -6.34375,-4.230469 -6.34375,0 0,4.230469 6.34375,4.230469 6.34375,0 z m 0,0"
     id="path43" />
</svg>
