<?xml version="1.0" encoding="UTF-8" standalone="no"?>
<!-- Created with Inkscape (http://www.inkscape.org/) -->

<svg
   version="1.1"
   id="svg1"
   width="121.65837"
   height="245.48167"
   viewBox="0 0 121.65837 245.48167"
   xmlns="http://www.w3.org/2000/svg"
   xmlns:svg="http://www.w3.org/2000/svg">
  <defs
     id="defs1" />
  <g
     id="g1"
     transform="translate(-9.8203984,-6.9813305)">
    <g
       id="g2"
       transform="translate(1.5770821,-1.2970081)"
       style="fill:#fafafa;fill-opacity:1;stroke:none">
      <path
         style="fill:#fafafa;fill-opacity:1;stroke:none"
         d="m 68.160002,253.76 h -0.660086 l -0.184193,-0.48 -0.184194,-0.48 0.184194,-0.48 0.184193,-0.48 h 0.450861 0.45086 l 0.394983,0.47592 0.394983,0.47593 -0.185758,0.48407 -0.185757,0.48408 z m -17.458886,-0.32 h -1.741115 v -0.32 -0.32 h 0.499261 0.49926 l -0.06271,-2.96 -0.0627,-2.96 -0.150792,-0.4 -0.150792,-0.4 H 49.085764 48.64 v -0.27166 -0.27166 l 3.247533,-0.19785 3.247532,-0.19785 0.272468,0.1684 0.272468,0.16839 v 0.78112 0.78111 h -0.342857 -0.342858 l -0.48,-0.48 -0.48,-0.48 h -1.257143 -1.257142 v 1.44 1.44 h 0.970043 0.970043 l 0.184193,-0.48 0.184193,-0.48 h 0.445764 0.445764 v 1.10111 1.10112 l -0.32226,0.19917 -0.322261,0.19916 -0.191976,-0.50028 L 53.691529,249.6 h -1.085764 -1.085763 v 1.40268 1.40268 l 0.672197,0.17578 0.672197,0.17578 -0.211083,0.34154 -0.211082,0.34154 z m 13.778886,-0.045 -0.32,-0.0352 -1.411202,-0.22826 -1.411202,-0.22826 -0.588798,-0.72714 -0.588798,-0.72713 v -1.02877 -1.02877 l 0.72,-0.67206 0.72,-0.67206 0.863006,-0.21414 0.863005,-0.21415 1.136995,0.37524 1.136994,0.37524 v 0.61519 0.61518 h -0.379376 -0.379375 l -0.669233,-0.62871 -0.669232,-0.62871 -0.706287,0.1847 -0.706288,0.18469 -0.317868,1.15123 -0.317869,1.15122 0.480141,0.73279 0.480141,0.73279 h 0.952623 0.952623 v -0.46111 -0.46112 l -0.32,-0.19777 -0.32,-0.19777 v -0.23686 -0.23686 l 1.10534,0.12904 1.105341,0.12905 -0.19566,1.0067 -0.19566,1.0067 -0.34968,0.2351 -0.349681,0.2351 z m 11.269428,0.045 h -0.620654 l 0.202806,-1.08105 0.202806,-1.08105 1.071865,-2.19895 1.071864,-2.19895 -0.94899,-0.10251 -0.94899,-0.1025 -0.578299,0.52335 -0.578298,0.52335 -0.187937,-0.30409 -0.187936,-0.30408 0.35678,-1.02346 0.35678,-1.02346 0.679388,0.18233 0.679387,0.18233 1.36,0.004 1.36,0.004 v 0.29767 0.29768 l -0.958237,2.07027 -0.958236,2.07028 -0.376723,1.63205 -0.376723,1.63205 z m 7.130573,-0.048 -0.16,-0.0277 -0.926177,-0.20214 -0.926177,-0.20214 -0.656911,-0.88081 -0.656912,-0.88082 -0.01691,-1.67918 -0.01691,-1.67919 0.427452,-1.01255 0.427452,-1.01255 0.917425,-0.38001 0.917426,-0.38001 0.975774,0.69482 0.975774,0.69481 0.319349,0.59671 0.319349,0.59671 v 1.6002 1.60021 l -0.332581,0.87475 -0.332581,0.87475 -0.547419,0.4159 -0.547419,0.41591 z m -0.254501,-0.91686 0.5455,0.005 0.215606,-1.14928 0.215606,-1.14928 -0.187074,-1.57954 -0.187074,-1.57955 -0.471175,-0.47118 -0.471174,-0.47117 h -0.303675 -0.303675 l -0.355098,0.42787 -0.355098,0.42786 -0.122958,1.36507 -0.122958,1.36506 0.255732,1.13388 0.255732,1.13388 0.423142,0.26829 0.423142,0.26829 z m 4.078896,0.89269 -0.495604,0.0943 -0.224396,-0.22439 -0.224395,-0.2244 v -0.56778 -0.56778 l 0.291122,-0.17992 0.291123,-0.17993 0.525796,0.20177 0.525797,0.20177 -0.09692,0.676 -0.09692,0.676 z M 58.016002,253.12 h -1.504 l 0.384,-0.384 0.384,-0.384 v -1.856 -1.856 h -0.32 -0.32 V 248.32 248 h 1.28 1.28 v 0.32 0.32 h -0.32 -0.32 v 1.77004 1.77005 l 0.48,0.18419 0.48,0.18419 v 0.28577 0.28576 z m 6.984,-14.4049 -2.44,-0.005 -0.440997,-0.27932 -0.440997,-0.27933 0.219882,-0.35577 0.219883,-0.35578 h 0.586878 0.586878 l 0.167772,-0.43721 0.167772,-0.4372 -0.175593,-1.93647 -0.175593,-1.93647 -0.63014,-0.16479 -0.630139,-0.16478 0.177971,-0.28797 0.177971,-0.28796 3.614226,0.0264 3.614226,0.0264 0.103739,1.08644 0.103738,1.08645 -0.423738,0.26865 -0.423739,0.26866 -0.24,0.005 -0.24,0.005 v -0.62874 -0.62874 l -0.637344,-0.3411 -0.637345,-0.3411 -1.042655,0.26876 -1.042656,0.26875 -0.102256,0.70108 -0.102257,0.70109 h 0.27114 0.271139 l 0.578951,-0.67617 0.578951,-0.67616 0.24985,0.27616 0.24985,0.27617 0.191835,1.02759 0.191834,1.02759 -0.337401,0.20853 -0.337401,0.20853 -0.356117,-0.35612 -0.356118,-0.35612 h -0.38099 -0.38099 l -0.131046,1.1225 -0.131045,1.1225 1.136035,-0.19021 1.136036,-0.19021 0.845031,-0.95831 0.84503,-0.95832 0.150323,0.26603 0.150322,0.26602 0.03348,1.16223 0.03348,1.16224 -0.988836,0.19776 -0.988836,0.19777 z m 1.319151,-8.51393 -2.320849,0.0905 -0.1304,-0.1304 -0.1304,-0.1304 -2.188751,-0.13091 -2.188751,-0.1309 -1.790537,-0.16494 -1.790537,-0.16494 -1.409463,-0.296 -1.409463,-0.29599 -1.929291,-0.48337 -1.92929,-0.48337 -1.59071,-0.53787 -1.59071,-0.53787 -0.16,-0.21877 -0.16,-0.21877 -1.6,-0.58633 -1.6,-0.58634 -3.2,-1.6224 -3.2,-1.62239 -2.08,-1.36206 -2.08,-1.36206 -1.434585,-1.21278 -1.434585,-1.21278 -3.845415,-3.84048 -3.845415,-3.84048 -1.216805,-1.59952 -1.216805,-1.59952 -1.215411,-1.67375 -1.215412,-1.67375 -0.742649,-1.52625 -0.742648,-1.52625 -0.554887,-1.12 -0.554888,-1.12 -1.510846,-3.52 -1.510846,-3.52 -0.241881,-0.96 -0.241882,-0.96 -0.690442,-2.52234 -0.6904421,-2.52233 -0.1370291,-1.79767 -0.1370291,-1.79766 -0.2039211,-1.28 -0.203921,-1.28 -0.00447,-5.44 -0.00447,-5.44 0.2392377,-1.36 0.2392377,-1.36 h 0.2791014 0.2791014 l 0.011399,-1.04 0.011399,-1.04 0.4430643,-1.76 0.4430649,-1.76 0.505979,-1.85731 0.505979,-1.85731 0.979292,-2.46269 0.979293,-2.46269 1.020265,-1.93878 1.020265,-1.93877 1.280001,-2.01855 1.28,-2.01855 1.686845,-2.28268 1.686844,-2.28267 3.062082,-3.28 3.062081,-3.28 h 0.413085 0.413085 l 0.381669,-1.51574 0.381669,-1.51575 0.367082,-0.44231 0.367082,-0.4423 0.709467,-2.60195 0.709467,-2.60195 0.822052,-2.72 0.822052,-2.72 0.991372,-3.52 0.991372,-3.52 0.242334,-0.32 0.242334,-0.32 0.513961,-1.76 0.513961,-1.76 0.841135,-3.2 0.841135,-3.2 0.926483,-3.68 0.926483,-3.68 0.331726,-0.64 0.331726,-0.64 1.772643,-6.4 1.772644,-6.4 0.458091,-1.92 0.458091,-1.92 0.634843,-1.44 0.634843,-1.44 1.804237,-6.88 1.804238,-6.88 0.127053,-0.8 0.127052,-0.8 -0.955832,-1.6 -0.955832,-1.6 -0.824459,-1.721079 -0.82446,-1.72108 -0.49425,-2.11892 -0.494251,-2.118921 -0.01336,-2.08 -0.01337,-2.08 0.384391,-1.839786 0.38439,-1.839785 0.415139,-0.415139 0.415139,-0.415139 0.237385,-0.747934 0.237385,-0.747934 1.075782,-1.797142 1.075781,-1.797141 1.849052,-1.958691 1.849052,-1.958691 1.779809,-1.118831 1.77981,-1.118831 1.26019,-0.440771 1.260191,-0.440772 0.231501,-0.321706 0.231501,-0.321707 -0.116831,-6.642542 -0.11683,-6.6425424 0.313212,-0.1935755 0.313212,-0.1935754 0.351748,0.3517485 0.351749,0.3517485 0.5486,-0.4964765 0.5486,-0.4964765 0.202226,0.3272082 0.202226,0.3272082 0.0081,6.5736379 0.0081,6.573637 h 0.267183 0.267182 l 0.134676,-0.4 0.134675,-0.4 -0.05384,-6.491133 -0.05384,-6.4911336 0.3534,0.1175328 0.3534,0.1175327 0.202139,0.9336005 0.20214,0.9336006 0.03786,-0.7434637 0.03786,-0.7434638 0.512503,0.1034638 0.512503,0.1034637 -0.0218,4 -0.0218,4 -0.01555,2.342722 -0.01555,2.342721 0.186954,0.302499 0.186954,0.302498 0.251522,-0.15545 0.251522,-0.155449 -0.05024,-6.741025 -0.05024,-6.7410259 0.496605,0.09634 0.496605,0.096339 v 6.6878249 6.687825 l 0.434059,0.14511 0.434059,0.14511 -0.114059,-6.65498 -0.114059,-6.6549797 0.952331,-0.2547091 0.95233,-0.2547091 0.318126,0.3181262 0.318126,0.3181261 -0.146462,3.5935436 -0.146462,3.593543 -0.004,3.164285 -0.004,3.164284 1.92,0.672055 1.92,0.672055 0.16,0.179024 0.16,0.179025 1.552825,0.897362 1.552824,0.897361 2.035623,2.096604 2.035622,2.096605 0.982595,1.919839 0.982596,1.91984 0.114351,1.187206 0.114352,1.187206 0.421627,0.763624 0.421626,0.763625 0.01298,3.919934 0.01298,3.919935 0.258885,6.5e-5 0.258885,6.6e-5 -0.200996,0.32522 -0.200997,0.32522 -0.27185,-0.168013 -0.271849,-0.168012 -0.228754,1.04151 -0.228754,1.04151 -0.513275,1.121283 -0.513275,1.121282 -1.204011,1.666336 -1.20401,1.666336 v 0.266003 0.266002 l 0.64,1.255323 0.64,1.255323 v 0.739365 0.739365 l 0.907182,2.000745 0.907181,2.000746 0.224263,0.952228 0.224264,0.952228 0.590415,1.6 0.590415,1.6 0.504597,1.76 0.504598,1.76 1.47532,4.8 1.475321,4.8 0.764472,2.08 0.764472,2.08 0.196164,1.026285 0.196163,1.026285 0.633563,1.311323 0.633562,1.311322 -0.191187,0.602377 -0.191187,0.602377 0.312266,0.580016 L 92.114112,92 l 0.649608,2.08 0.649608,2.08 0.846996,2.56 0.846996,2.56 0.0763,0.32 0.0763,0.32 0.259458,0.93867 0.259458,0.93867 0.428613,0.82133 0.428612,0.82133 0.002,0.70111 0.002,0.70112 0.32,0.19777 0.32,0.19777 0.0089,0.86112 0.0089,0.86111 0.965184,2.72 0.965184,2.72 0.944701,3.58978 0.94471,3.58978 0.7639,2.33022 0.76391,2.33022 0.19789,0.85822 0.19789,0.85822 1.48293,1.22178 1.48292,1.22178 3.16424,3.2 3.16424,3.2 0.44292,0.53072 0.44293,0.53071 2.1315,3.10019 2.13149,3.10019 0.0336,0.68909 0.0336,0.6891 0.39767,0.48 0.39767,0.48 1.26683,2.88427 1.26684,2.88426 1.32681,3.99574 1.32681,3.99573 0.33566,4.16 0.33566,4.16 0.2646,0.0958 0.2646,0.0958 -0.11992,1.18419 -0.11992,1.18419 -0.16179,4.32 -0.16178,4.32 -0.45361,1.92 -0.4536,1.92 -0.65425,2.46133 -0.65425,2.46133 -0.15347,1.21867 -0.15348,1.21867 -0.2111,0.8 -0.21111,0.8 -0.26209,0.64 -0.26209,0.64 -0.73793,1.92 -0.73792,1.92 -0.57327,0.62034 -0.57328,0.62034 v 0.23173 0.23173 l -1.12,1.70063 -1.12,1.70064 v 0.36329 0.3633 l -0.96,1.208 -0.96,1.208 v 0.27877 0.27877 l -0.76233,0.87723 -0.76234,0.87723 -1.99127,2.4 -1.99127,2.4 -1.17928,1.28 -1.17928,1.28 -1.42148,1.12 -1.42148,1.12 -0.55749,0.55186 -0.5575,0.55186 -0.88814,0.21467 -0.88814,0.21467 -2.063643,1.53334 -2.063649,1.53335 -1.696351,0.85828 -1.696352,0.85828 v 0.28184 0.28185 h -0.457674 -0.457674 l -2.022326,0.92103 -2.022326,0.92102 -2.233427,0.7295 -2.233426,0.7295 -0.962783,0.1121 -0.962783,0.1121 -0.643791,0.21783 -0.643791,0.21782 -0.32,0.0724 -0.32,0.0723 -2.08,0.49374 -2.08,0.49375 -3.36,0.18881 -3.36,0.18881 z m -0.950947,-1.11881 1.208205,0.0376 -0.168265,-1.73264 -0.168265,-1.73265 -0.147159,-17.98791 -0.147159,-17.98791 -0.165047,-0.16504 -0.165048,-0.16505 -0.437176,0.36282 -0.437176,0.36283 -0.210557,-0.21056 -0.210557,-0.21056 v -0.91671 -0.91671 l -0.431524,-0.16559 -0.431524,-0.16559 0.111501,-1.66436 0.111502,-1.66437 -0.18533,0.48 -0.185331,0.48 -0.151861,0.47103 -0.151862,0.47103 -0.261234,-0.42268 -0.261234,-0.42269 -0.218613,1.23166 -0.218613,1.23165 -0.164503,0.56 -0.164502,0.56 h -0.493127 -0.493126 l 0.200787,-0.8 0.200787,-0.8 h -0.507661 -0.50766 l 0.219305,-0.72 0.219305,-0.72 0.647281,-2 0.64728,-2 h 0.274979 0.274978 l -0.01018,-0.56 -0.01018,-0.56 -0.50564,0.64 -0.505641,0.64 -0.760147,1.68 -0.760148,1.68 H 59.5287 59.209335 l 0.64706,-1.6416 0.647059,-1.64161 -0.150777,-0.15078 -0.150776,-0.15077 -0.985559,1.95238 -0.985559,1.95238 h -0.486652 -0.486653 l 0.360904,-0.67435 0.360904,-0.67436 -0.322414,-0.32241 -0.322413,-0.32242 -0.515449,0.99677 -0.51545,0.99677 h -0.471782 -0.471782 v -0.36704 -0.36705 l 1.139977,-1.39119 1.139976,-1.39119 -0.207525,-0.33578 -0.207526,-0.33579 0.427549,-0.52186 0.427549,-0.52187 -0.88,0.57269 -0.88,0.57269 v -0.2593 -0.25929 l 0.88,-0.93899 0.88,-0.93898 -0.64,0.33183 -0.64,0.33184 -0.96,0.98075 -0.96,0.98075 -0.24,0.009 -0.24,0.009 -0.64,0.64 -0.64,0.64 h -0.48 -0.48 v -0.3135 -0.31349 l 1.2,-0.62799 1.2,-0.62799 1.426338,-1.21852 1.426339,-1.21851 0.973661,-0.90688 0.973662,-0.90689 -1.554883,1.06689 -1.554882,1.06688 -1.48403,1.04326 -1.484029,1.04327 -0.122463,-0.36739 -0.122463,-0.36739 0.470178,-0.26312 0.470178,-0.26313 0.626278,-0.57275 0.626279,-0.57275 -0.335082,0.19032 -0.335081,0.19033 -0.56,0.19963 -0.56,0.19963 v -0.29566 -0.29567 l 2.250579,-1.33704 2.250579,-1.33705 -0.156013,-0.15601 -0.156013,-0.15601 -1.769719,0.99876 -1.769718,0.99877 h -0.359084 -0.359084 l 0.184193,-0.48 0.184193,-0.48 h -0.270877 -0.270877 l -1.193667,0.49875 -1.193667,0.49874 -0.20491,-0.20491 -0.204909,-0.20491 0.630315,-0.46089 0.630315,-0.4609 0.425802,0.16339 0.425802,0.1634 -0.17382,-0.28125 -0.17382,-0.28124 1.113131,-0.20883 1.113131,-0.20882 1.044069,-0.45374 1.044069,-0.45374 -0.358313,-0.0125 -0.358313,-0.0125 -2.003374,0.64 -2.003374,0.64 h -0.278313 -0.278313 v -0.29222 -0.29222 l 2,-0.66179 2,-0.66179 -1.12,0.14855 -1.12,0.14855 -0.48,0.0855 -0.48,0.0855 -0.09923,-0.32 -0.09923,-0.32 1.539228,-0.36928 1.539228,-0.36928 -0.8,-0.0409 -0.8,-0.0409 0.621161,-0.46983 0.621162,-0.46982 h -1.040047 -1.040047 l 0.197771,-0.32 0.19777,-0.32 1.661115,-0.0605 1.661115,-0.0605 -2.854587,-0.17953 -2.854587,-0.17953 -0.143839,-0.43528 -0.14384,-0.43528 1.447883,0.11528 1.447882,0.11528 -0.148342,-0.24 -0.148341,-0.24 h -0.461115 -0.461114 v -0.33208 -0.33209 l 1.36,0.14237 1.36,0.14236 -0.4,-0.15694 -0.4,-0.15695 v -0.26987 -0.26987 l 0.56,-0.10956 0.56,-0.10955 -2.006742,-0.73356 -2.006743,-0.73356 0.201653,-0.32628 0.201652,-0.32628 0.738607,0.18538 0.738606,0.18538 0.12416,-0.37248 0.12416,-0.37248 1.003404,0.34979 1.003404,0.34979 0.124331,-0.373 0.124332,-0.37299 0.934588,0.40142 0.934588,0.40142 -0.771197,-0.65793 -0.771197,-0.65794 -0.506138,-0.28325 -0.506137,-0.28325 0.209928,-0.20993 0.209927,-0.20992 0.747407,0.38051 0.747407,0.38051 -1.6,-1.46373 -1.6,-1.46372 0.43259,-0.28989 0.432591,-0.28988 -0.739557,-0.51801 -0.739558,-0.51801 0.388967,-0.38896 0.388967,-0.38897 1.671264,1.586 1.671263,1.586 0.114068,0.24199 0.114067,0.242 0.293884,-0.18163 0.293884,-0.18163 -0.961215,-0.80881 -0.961215,-0.80881 v -0.2918 -0.29155 h 0.278385 0.278385 l 2.356305,2.32 2.356306,2.32 -0.874691,-0.97751 -0.87469,-0.97751 v -0.28726 -0.28725 l -0.995907,-1.02752 -0.995906,-1.02751 0.149049,-0.42772 0.149048,-0.42772 1.30868,1.41997 1.308679,1.41997 -0.131959,0.21352 -0.131959,0.21351 0.870137,0.76172 0.870138,0.76172 -0.4,-0.4592 -0.4,-0.45921 v -0.49942 -0.49941 l -1.465448,-2.18447 -1.465447,-2.18447 0.210068,-0.21007 0.210068,-0.21007 0.926771,1.11796 0.926771,1.11795 0.0102,0.32 0.0102,0.32 0.810703,0.96 0.810703,0.96 -1.006314,-2.05827 -1.006314,-2.05827 -0.796279,-1.20326 -0.796279,-1.20326 0.212412,-0.34369 0.212412,-0.34369 0.306862,0.18965 0.306863,0.18965 1.466333,3.09557 1.466333,3.09557 0.131559,-0.3406 0.131558,-0.34059 -0.966865,-2.13238 -0.966866,-2.13238 V 157.60703 157.44 h 0.32792 0.32792 l 0.304552,0.80103 0.304551,0.80103 0.590908,1.35897 0.590909,1.35897 0.370389,0.8 0.37039,0.8 -0.188133,-1.28 -0.188133,-1.28 -0.733837,-2.16077 -0.733837,-2.16077 0.272145,-0.16819 0.272145,-0.1682 0.281136,0.56897 0.281136,0.56896 0.609784,2.64 0.609784,2.64 h 0.201451 0.201451 l -0.295165,-1.62396 -0.295164,-1.62396 0.129326,-0.53604 0.129327,-0.53604 0.178576,0.48 0.178575,0.48 0.335046,1.44 0.335046,1.44 -0.172996,-2.88 -0.172996,-2.88 0.317836,0.32 0.317837,0.32 0.158745,0.64 0.158746,0.64 -0.125671,-2.56 -0.125672,-2.56 -0.05159,-4.16 -0.05159,-4.16 0.03542,-3.36 0.03542,-3.36 -0.116755,-0.96 -0.116756,-0.96 -0.01883,-4.96 -0.01883,-4.96 -0.04084,-4.8 -0.04084,-4.8 -0.369423,-0.22958 -0.369422,-0.22957 -2.4,0.12405 -2.4,0.12406 -1.76,0.48812 -1.76,0.48811 -1.28,0.35653 -1.28,0.35652 -2.08,0.65546 -2.08,0.65546 -1.660184,0.76542 -1.660184,0.76542 H 45.601855 45.08409 l -1.822052,0.92429 -1.822052,0.9243 -1.12,0.57093 -1.12,0.57093 -2.08,1.3303 -2.08,1.33029 -1.6,1.00561 -1.6,1.00562 -1.369435,1.20886 -1.369436,1.20887 -0.621463,2.20716 -0.621464,2.20715 -0.137364,1.19567 -0.137364,1.19566 -0.475247,0.75718 -0.475248,0.75718 -0.708726,2.24 -0.708727,2.24 -0.886284,2.4 -0.886285,2.4 -0.374672,1.6 -0.374673,1.6 -0.780101,2.56 -0.780101,2.56 -0.838272,2.88 -0.838273,2.88 -0.455809,0.72 -0.45581,0.72 h 0.150141 0.150141 l -0.63582,1.84 -0.63582,1.84 -0.128717,0.8 -0.128717,0.8 -0.356579,1.44 -0.356579,1.44 -0.301648,0.304 L 16,172.928 l -0.0083,0.656 -0.0083,0.656 -0.791667,2.38876 -0.791667,2.38877 v 0.50357 0.50358 l -0.56972,1.11747 -0.569721,1.11747 -0.533073,1.43019 -0.533074,1.43019 -0.290209,1.66178 -0.29021,1.66178 0.750128,2.17822 0.750128,2.17822 2.002876,4 2.002876,4 0.891178,1.28 0.891178,1.28 1.348822,1.95457 1.348822,1.95457 1.199167,1.32543 1.199167,1.32543 h 0.320833 0.320833 v 0.35879 0.35879 l 2.492502,2.44121 2.492502,2.44121 1.427498,1.04994 1.427498,1.04994 1.6,1.22989 1.6,1.22989 3.68,1.89895 3.68,1.89896 1.28,0.53031 1.28,0.53031 0.48,0.28117 0.48,0.28117 0.663331,0.33705 0.663332,0.33706 4.314466,0.98661 4.314467,0.98661 2.246176,0.18458 2.246176,0.18459 1.576027,0.26385 1.576026,0.26384 z m -44.687388,-38.42004 -0.04082,-0.0577 -1.498125,-0.11896 -1.498124,-0.11896 0.02563,-0.90144 0.02563,-0.90144 -0.47381,-0.67646 -0.47381,-0.67646 -0.501384,0.39454 -0.501383,0.39454 -0.221004,0.74246 -0.221003,0.74245 0.668691,0.17487 0.668692,0.17486 v 0.2827 V 190.4 H 15.04 13.44 v -0.28576 -0.28577 l 0.48,-0.18419 0.48,-0.18419 v -1.98485 -1.98485 l -0.531371,-0.58715 -0.531372,-0.58716 0.225474,-0.22548 0.225474,-0.22547 1.303787,0.052 1.303787,0.052 0.201608,0.20161 0.201607,0.20161 -0.559497,0.40911 -0.559497,0.40912 v 0.84472 0.8447 h 0.260131 0.260131 l 0.875323,-0.91364 0.875322,-0.91364 -0.09545,-0.43201 -0.09545,-0.43202 1.752771,-0.22825 1.752771,-0.22826 0.262767,0.1624 0.262768,0.1624 -0.374721,0.45151 -0.374721,0.45151 H 20.323973 19.60631 l -0.825183,0.64909 -0.825184,0.64909 0.862029,1.41726 0.862029,1.41726 0.921105,0.33133 0.921105,0.33134 -0.400287,0.48231 -0.400288,0.48232 z M 56.308743,183.04 h -0.308741 v -0.256 -0.256 l 0.384,-0.384 0.384,-0.384 h 0.267259 0.267258 l -0.342517,0.64 -0.342518,0.64 z m -38.776822,-6.99576 -0.134746,0.40424 -0.250631,-0.40553 -0.25063,-0.40553 0.192043,-0.19204 0.192044,-0.19205 0.193333,0.19334 0.193333,0.19333 z M 16.480001,173.76 H 16.32 v -0.16 -0.16 h 0.160001 0.16 v 0.16 0.16 z m 35.981115,-8 h -0.338885 l 0.197771,-0.32 0.19777,-0.32 h 0.141115 0.141115 v 0.32 0.32 z m 16.818886,63.2163 1.6,-0.19748 1.44,-0.16219 1.44,-0.16218 2.24,-0.46813 2.24,-0.46812 1.28,-0.34578 1.28,-0.34578 1.440001,-0.24466 1.44,-0.24465 2.08,-0.80797 2.08,-0.80797 3.36,-1.6897 3.36,-1.6897 2.07218,-1.31099 2.07218,-1.311 0.64782,-0.37664 0.647817,-0.37664 1.06541,-0.55188 1.06541,-0.55188 3.44157,-3.39148 3.44157,-3.39148 2.21302,-2.93054 2.21302,-2.93053 0.96,-1.67091 0.96,-1.67091 0.48,-0.52044 0.48,-0.52045 1.0148,-2.07811 1.01481,-2.07811 0.77898,-2.08 0.77898,-2.08 0.36622,-1.14272 0.36621,-1.14272 -0.006,-0.61728 -0.006,-0.61728 -0.94735,-3.00188 -0.94735,-3.00188 0.15831,-0.25614 0.1583,-0.25615 -0.46029,-1.06197 -0.46029,-1.06198 -1.19156,-3.84 -1.19156,-3.84 -0.40878,-0.96 -0.40877,-0.96 -0.21653,-0.96 -0.21652,-0.96 -0.66417,-1.92 -0.66417,-1.92 0.0365,-0.56482 0.0365,-0.56482 -0.97264,-2.63518 -0.97263,-2.63518 -0.26245,-0.96 -0.26245,-0.96 -1.15611,-3.68 -1.15611,-3.68 -0.31127,-0.10733 -0.31127,-0.10733 0.17679,-0.28606 0.17679,-0.28605 -0.32239,-0.60239 -0.32239,-0.60239 -0.12265,-1.11304 -0.12266,-1.11305 -2.50791,-7.49118 -2.50792,-7.49118 -1.62184,-1.54857 -1.621837,-1.54857 -1.44,-0.82557 -1.44,-0.82558 -0.48,-0.36736 -0.48,-0.36737 -3.04,-1.3779 -3.04,-1.3779 -2.88,-0.93242 -2.88,-0.93243 -0.96,-0.44205 -0.960001,-0.44205 -4.207572,-0.8443 -4.207572,-0.8443 -3.312428,-0.0618 -3.312428,-0.0618 0.108394,0.48 0.108393,0.48 0.168373,12.64 0.168373,12.64 -0.02218,8.24 -0.02218,8.24 h 0.188718 0.188719 l 0.756694,-0.81649 0.756695,-0.81648 V 157.10354 156.8 h 0.32 0.32 v 0.52287 0.52288 l -0.378188,1.26228 -0.378188,1.26227 0.458188,0.28429 0.458188,0.28429 0.501049,-1.48979 0.501048,-1.48979 0.378952,-0.12632 0.378951,-0.12631 v 0.29657 0.29657 l -0.64,1.86019 -0.64,1.86019 0.0226,0.18991 0.0226,0.1899 0.624084,-1.40664 0.624085,-1.40665 0.189302,0.1893 0.189301,0.1893 -0.515057,1.51161 -0.515057,1.51161 0.112982,0.11298 0.112982,0.11299 1.006085,-2.25007 1.006085,-2.25006 V 158.07718 157.44 h 0.461115 0.461114 l 0.196969,0.3187 0.196969,0.3187 -0.418084,0.76102 -0.418083,0.76101 -0.588789,1.04007 -0.58879,1.04006 0.477189,0.47719 0.477188,0.47719 0.511601,-0.83697 0.511601,-0.83697 0.509792,-0.83421 0.509791,-0.83421 0.32623,0.32623 0.32623,0.32623 -1.151283,1.54798 -1.151282,1.54798 -0.402017,0.46922 -0.402016,0.46922 -0.739266,1.13078 -0.739266,1.13078 1.921712,-2.03161 1.921712,-2.03161 0.414831,0.14204 0.414832,0.14205 -1.228775,1.08956 -1.228775,1.08957 -0.342384,0.63455 -0.342383,0.63456 2.458605,-2.20044 2.458606,-2.20044 0.212888,0.21289 0.212889,0.21288 -2.700335,2.57561 -2.700336,2.5756 2.042586,-1.5426 2.042587,-1.54261 1.432698,-1.06872 1.432699,-1.06871 0.310116,0.31012 0.310116,0.31011 -1.865401,1.15657 -1.865401,1.15657 -1.76,1.62802 -1.76,1.62803 0.48,-0.24321 0.48,-0.24321 2.72,-1.80187 2.72,-1.80188 1.174663,-0.71135 1.174663,-0.71135 0.189423,0.30649 0.189423,0.3065 -2.644086,1.60186 -2.644086,1.60187 -1.598976,1.14208 -1.598977,1.14208 h 0.206482 0.206482 l 1.824989,-0.96 1.82499,-0.96 h 0.127505 0.127505 v 0.42112 0.42111 l -1.826066,0.75686 -1.826067,0.75687 0.328979,0.10966 0.328979,0.10966 1.826212,-0.80764 1.826212,-0.80764 h 0.630876 0.630875 v 0.28422 0.28423 l -2.558477,0.89063 -2.558478,0.89063 0.133681,0.13368 0.133682,0.13368 2.459025,-0.50853 2.459025,-0.50854 h 0.445771 0.445771 v 0.28367 0.28366 l -1.482259,0.22228 -1.482259,0.22228 -0.677741,0.27377 -0.677741,0.27377 0.88,0.0203 0.88,0.0203 v 0.32 0.32 l -0.72,0.0275 -0.72,0.0275 0.907077,0.27206 0.907076,0.27206 0.453639,-0.17407 0.453639,-0.17408 0.845571,0.21222 0.845571,0.21223 -0.288081,0.28808 -0.288081,0.28808 -2.718205,0.0942 -2.718206,0.0942 2.24,0.25637 2.24,0.25637 0.72,0.14972 0.72,0.14973 v 0.35524 0.35524 l -2,-0.21008 -2,-0.21008 -1.44,-0.15617 -1.44,-0.15618 0.8,0.34841 0.8,0.34841 3.034328,0.6375 3.034328,0.63751 0.119006,0.119 0.119005,0.11901 -0.113333,0.29411 -0.113333,0.2941 -3.813129,-0.92306 -3.813129,-0.92306 -0.298051,0.0994 -0.298052,0.0993 3.07118,0.93804 3.07118,0.93805 v 0.25156 0.25156 h -0.451489 -0.45149 l -2.014775,-0.62707 -2.014775,-0.62707 -0.09493,0.0949 -0.09493,0.0949 2.641191,1.22134 2.64119,1.22134 0.371624,0.50728 0.371624,0.50727 -0.171624,0.27769 -0.171624,0.2777 -0.2,-0.29109 -0.2,-0.29109 -2.72,-1.38017 -2.72,-1.38017 -0.72,-0.27498 -0.72,-0.27499 v 0.10572 0.10571 l 1.92,1.3468 1.92,1.34681 v 0.29956 0.29956 H 76.83591 76.551818 l -1.664362,-1.14488 -1.664362,-1.14488 -0.126659,0.12666 -0.12666,0.12666 2.095074,1.86226 2.095074,1.86226 -0.293705,0.2937 -0.293706,0.29371 -1.702274,-1.61506 -1.702275,-1.61506 -0.145669,0.14567 -0.14567,0.14567 0.921689,1.14684 0.921689,1.14683 0.72,0.79936 0.72,0.79935 v 0.30546 0.30549 h -0.26013 -0.260131 l -0.916541,-0.95666 -0.91654,-0.95666 -0.145915,0.14591 -0.145915,0.14592 1.049361,1.19515 1.049361,1.19516 -0.377534,0.12584 -0.377534,0.12585 -0.545877,-0.43026 -0.545877,-0.43025 0.876636,1.06455 0.876636,1.06455 v 0.29545 0.29545 l -0.4,-0.004 -0.4,-0.004 -0.752884,-1.16172 -0.752884,-1.16172 -0.251339,0.40668 -0.251339,0.40667 -0.423064,-0.26146 -0.423064,-0.26147 0.707287,1.19876 0.707287,1.19876 v 0.30171 0.30171 h -0.330043 -0.330043 l -0.206034,-0.56 -0.206034,-0.56 -0.490246,-0.76505 -0.490246,-0.76506 -0.242072,0.90514 -0.242072,0.90514 0.628395,1.42059 0.628395,1.4206 v 0.27932 0.2794 H 71.541566 71.08313 l -0.203128,-0.64 -0.203128,-0.64 h -0.618436 -0.618436 v -0.99424 -0.99423 l -0.453034,0.17384 -0.453033,0.17385 -0.340486,-1.17961 -0.340485,-1.17961 0.162431,2.16 0.162431,2.16 H 67.87117 67.564515 l -0.153065,-0.72 -0.153065,-0.72 0.154894,2.56 0.154894,2.56 0.008,3.68 0.008,3.68 -0.0052,4 -0.0052,4 0.119493,0.96 0.119494,0.96 0.01508,4 0.01508,4 -0.08146,5.5469 -0.08146,5.54689 z M 84.053336,175.36 h -1.386667 l -0.213333,-0.21333 -0.213333,-0.21334 v -0.22934 -0.22935 l 0.61254,-0.16018 0.612541,-0.16018 0.767111,-1.23714 0.767111,-1.23714 0.43398,-1.12 0.433979,-1.12 0.305551,-0.4 0.305551,-0.4 h 0.275427 0.275427 l 0.839779,1.68 0.839779,1.68 0.815058,0.86912 0.815058,0.86912 -0.870278,0.33088 -0.870278,0.33088 h -0.459168 -0.459168 l 0.08,-0.4 0.08,-0.4 -1.52,-0.0975 -1.52,-0.0975 v 0.47865 0.47865 l 0.32,0.19777 0.32,0.19777 v 0.30112 0.30111 z m 2.167781,-2.56 h 0.781115 l 0.16554,-0.26785 0.165541,-0.26785 -0.517163,-0.73835 -0.517163,-0.73836 -0.429492,0.58737 -0.429492,0.58736 V 172.38116 172.8 Z M 105.44,152.64 h -0.16 v -0.16 -0.16 h 0.16 0.16 v 0.16 0.16 z m -39.999998,36.48 h 0.16 v -0.16 -0.16 h -0.16 -0.16 v 0.16 0.16 z m 0.0692,-1.36 0.133309,-0.88 -0.133309,-0.88 -0.133308,-0.88 v 1.76 1.76 z m -1.029201,-0.24 h 0.16 v -0.16 -0.16 h -0.16 -0.16 v 0.16 0.16 z m 57.059239,-2.24 0.10002,-0.8 0.60315,-2.24 0.60315,-2.24 0.12376,-3.84 0.12376,-3.84 -0.2784,-3.52 -0.27841,-3.52 -0.12207,-1.76 -0.12207,-1.76 -0.33341,-1.44 -0.33341,-1.44 -0.95596,-2.88 -0.95596,-2.88 -0.47423,-1.28 -0.47423,-1.28 -1.36077,-2.72 -1.36077,-2.72 0.0637,-0.25634 0.0638,-0.25635 -1.65231,-2.46365 -1.65231,-2.46366 -1.45379,-1.76 -1.4538,-1.76 -1.29934,-1.38954 -1.29935,-1.38954 -1.28,-1.24647 -1.28,-1.24647 -0.36257,-0.004 -0.36257,-0.004 0.46711,1.36 0.46711,1.36 0.40768,0.96 0.40768,0.96 0.63645,1.76 0.63644,1.76 0.56511,1.6 0.56511,1.6 0.29737,1.12 0.29738,1.12 0.11973,0.64 0.11974,0.64 0.34673,0.96 0.34673,0.96 1.25328,3.84 1.25328,3.84 1.14918,3.58526 1.14918,3.58526 0.13839,1.0809 0.13839,1.08091 0.67835,2.05383 0.67835,2.05384 0.59973,1.6 0.59974,1.6 0.63376,2.08 0.63377,2.08 0.65991,2.24 0.6599,2.24 0.14223,0.8 0.14222,0.8 0.36043,1.57138 0.36042,1.57138 0.22674,0.34862 0.22673,0.34862 z m -14.16781,-47.0449 -0.30857,0.005 0.54095,-0.54095 0.54096,-0.54095 0.23835,0.23835 0.23835,0.23835 -0.47073,0.2977 -0.47074,0.2977 z M 106.4,135.36 h -0.16 v -0.16 -0.16 h 0.16 0.16 v 0.16 0.16 z m -44.766665,50.15333 0.193334,-0.19333 -0.168071,-0.42 -0.16807,-0.42 -0.02526,0.61333 -0.02526,0.61334 z m 2.9,-0.02 0.213334,-0.21333 -0.213334,-0.21333 -0.213333,-0.21334 v 0.42667 0.42667 z m -53.535109,-0.30404 0.361774,-0.11857 0.360843,-1.437 0.360843,-1.437 0.355085,-0.61836 0.355085,-0.61836 0.830464,-3.2 0.830464,-3.2 0.73136,-2.72 0.731359,-2.72 0.691619,-2.4 0.691619,-2.4 0.474787,-0.96 0.474787,-0.96 1.446607,-5.12 1.446606,-5.12 0.979829,-3.2 0.979828,-3.2 0.489408,-1.09266 0.489408,-1.09265 v -0.8102 -0.8102 l 0.44,-0.44 0.44,-0.44 v -0.51459 -0.51458 l 0.632657,-1.94256 0.632657,-1.94256 0.623673,-1.917 0.623673,-1.91701 -0.115173,-0.11517 -0.115173,-0.11517 -0.69519,0.64766 -0.69519,0.64767 0.210653,0.34085 0.210653,0.34084 -0.442449,-0.16978 -0.442449,-0.16979 -1.901804,2.33345 -1.901805,2.33345 -0.952367,1.27086 -0.952366,1.27086 -1.010923,1.60914 -1.010923,1.60914 -0.545794,0.59672 -0.545795,0.59671 -0.933861,2.12329 -0.933861,2.12328 -0.412887,0.8 -0.412888,0.8 -0.579008,1.92 -0.579009,1.92 -0.444917,1.12 -0.444917,1.12 -0.121988,0.64 -0.121989,0.64 -0.996499,3.96568 -0.9965,3.96568 0.017441,5.15432 0.01744,5.15432 0.1473352,0.96 0.1473351,0.96 0.1407347,2.12872 0.140735,2.12871 0.218594,1.16521 0.218594,1.16521 z M 12.32,180.16 H 12.16 V 180 179.84 h 0.16 0.16 v 0.16 0.16 z m 2.88,-10.24 h -0.16 v -0.16 -0.16 h 0.16 0.16 v 0.16 0.16 z m 8.480001,-32 h -0.426667 l 0.213333,-0.21333 0.213334,-0.21334 0.213333,0.21334 0.213333,0.21333 z m 39.253334,46.61333 0.213334,-0.21333 -0.213334,-0.21333 -0.213333,-0.21334 v 0.42667 0.42667 z m -0.96,-0.32 L 62.186669,184 61.973335,183.78667 61.760002,183.57333 V 184 v 0.42667 z m 1.6,-0.32 0.213334,-0.21333 -0.213334,-0.21333 -0.213333,-0.21334 v 0.42667 0.42667 z m 6.764866,-0.68486 0.179134,-0.17914 -0.397625,-0.39466 -0.397625,-0.39467 0.218491,0.5738 0.218491,0.5738 z m -3.138199,-0.96847 0.275017,-0.64 0.01759,-0.32 0.01759,-0.32 -0.3102,0.48 -0.3102,0.48 0.01759,0.48 0.01759,0.48 z m 5.333334,-0.26667 0.213333,-0.21333 -0.213333,-0.21333 -0.213334,-0.21334 v 0.42667 0.42667 z m -11.45196,-0.34946 0.281374,-0.1739 0.18271,-0.72498 0.18271,-0.72499 -0.464084,0.62116 -0.464084,0.62116 v 0.27773 0.27772 z m 12.278626,-0.1975 0.24,0.0136 v -0.1399 -0.1399 l -1.473939,-1.5401 -1.47394,-1.5401 1.23394,1.66637 1.233939,1.66637 z m -14.64,-0.62637 h 0.16 v -0.16 -0.16 h -0.16 -0.16 v 0.16 0.16 z m 3.893333,-0.42667 0.213334,-0.21333 -0.213334,-0.21333 -0.213333,-0.21334 v 0.42667 0.42667 z M 59.680002,179.52 h 0.16 v -0.16 -0.16 h -0.16 -0.16 v 0.16 0.16 z m -1.28,-0.64 h 0.16 v -0.16 -0.16 h -0.16 -0.16 v 0.16 0.16 z m 1.92,0 h 0.16 v -0.16 -0.16 h -0.16 -0.16 v 0.16 0.16 z m -4.226199,-0.50057 0.573801,-0.21849 -0.179135,-0.17914 -0.179134,-0.17913 -0.394667,0.39762 -0.394666,0.39763 z m 9.426199,0.15623 0.4,0.0243 v -0.61383 -0.61383 l 0.195831,-0.51032 0.195831,-0.51033 -0.995831,-0.34715 -0.995831,-0.34715 V 175.1687 174.72 h 0.8 0.8 v -0.3041 -0.3041 l -0.487969,-0.27308 -0.487969,-0.27308 0.46781,-1.32592 0.46781,-1.32591 -0.05984,-2.17691 -0.05984,-2.1769 -1.815195,-0.009 -1.815196,-0.009 0.130636,0.21138 0.130635,0.21137 -0.842718,1.23793 -0.842717,1.23794 -0.138112,2.36642 -0.138113,2.36643 0.58539,1.14818 0.58539,1.14819 0.778003,0.64539 0.778003,0.64539 0.981997,0.37566 0.981997,0.37565 z m -1.778885,-7.66539 -0.541115,-0.01 -0.56,-0.32617 -0.56,-0.32617 v -0.26941 -0.26941 l 0.834021,-0.20932 0.83402,-0.20933 0.417604,0.57111 0.417603,0.5711 -0.15051,0.24353 -0.150509,0.24353 z M 59.360002,177.92 h 0.16 v -0.16 -0.16 h -0.16 -0.16 v 0.16 0.16 z m 8.56,-0.14586 0.72,-0.2205 0.4,-0.0301 0.4,-0.0302 v -0.32 -0.32 l 0.19394,0.19394 0.193939,0.19394 0.752853,-0.75285 0.752853,-0.75285 0.632932,-1.86776 L 72.59945,172 l -0.299724,-0.304 -0.299724,-0.304 -0.0031,-0.816 -0.0031,-0.816 -1.196858,-1.05647 -1.196859,-1.05648 -1.36,-0.60788 -1.36,-0.60788 0.01018,2.78436 0.01018,2.78435 0.457424,0.6042 0.457424,0.60421 -0.307601,0.57476 -0.307601,0.57476 v 0.18103 0.18104 h 0.64 0.64 v 0.31729 0.31729 l -0.64,0.39968 -0.64,0.39969 v 0.92035 0.92034 z m 1.04,-2.73414 h -0.16 v -0.16 -0.16 h 0.16 0.16 v 0.16 0.16 z m -0.4,-4.4849 -0.72,0.005 v -0.64 -0.64 l 0.72,0.005 0.72,0.005 0.48,0.3151 0.48,0.3151 -0.48,0.3151 -0.48,0.3151 z m -13.68,6.0849 h 0.16 v -0.16 -0.16 h -0.16 -0.16 v 0.16 0.16 z m 3.52,-0.64 h 0.16 v -0.16 -0.16 h -0.16 -0.16 v 0.16 0.16 z m 16,0 h 0.16 v -0.16 -0.16 h -0.16 -0.16 v 0.16 0.16 z m -17.6,-0.96 h 0.16 v -0.16 -0.16 h -0.16 -0.16 v 0.16 0.16 z m -0.96,-0.64 h 0.16 v -0.16 -0.16 h -0.16 -0.16 v 0.16 0.16 z m 17.28,-0.64 h 0.16 v -0.16 -0.16 h -0.16 -0.16 v 0.16 0.16 z m 1.92,-0.64 h 0.16 v -0.16 -0.16 h -0.16 -0.16 v 0.16 0.16 z m -16.96,-1.28 h 0.16 v -0.16 -0.16 h -0.16 -0.16 v 0.16 0.16 z m 16.96,-0.64 h 0.16 v -0.16 -0.16 h -0.16 -0.16 v 0.16 0.16 z m -20.64,-0.37053 h 0.8 l -0.4,-0.1614 -0.4,-0.1614 -0.4,0.1614 -0.4,0.1614 z m 2.08,0.0505 h 0.16 v -0.16 -0.16 h -0.16 -0.16 v 0.16 0.16 z m 17.6,-0.32 h 0.16 v -0.16 -0.16 h -0.16 -0.16 v 0.16 0.16 z m -17.6,-0.32 h 0.16 v -0.16 -0.16 h -0.16 -0.16 v 0.16 0.16 z m -1.76,-2.24 h 0.426666 l -0.213333,-0.21333 -0.213333,-0.21334 -0.213334,0.21334 L 54.293335,168 Z m -0.8,-0.32 h 0.16 v -0.16 -0.16 h -0.16 -0.16 v 0.16 0.16 z m 4.16,0 h 0.16 v -0.16 -0.16 h -0.16 -0.16 v 0.16 0.16 z m -4.8,-0.32 h 0.16 v -0.16 -0.16 h -0.16 -0.16 v 0.16 0.16 z m 8.96,-1.28 h 0.16 v -0.16 -0.16 h -0.16 -0.16 v 0.16 0.16 z m -4.16,-0.32 h 0.16 v -0.16 -0.16 h -0.16 -0.16 v 0.16 0.16 z m 1.326727,0 h 0.113273 v -0.10013 -0.10013 l -0.96,-0.91974 -0.96,-0.91974 v 0.23515 0.23515 l 0.846727,0.78472 0.846727,0.78472 z m -2.926727,-1.28 h 0.16 v -0.16 -0.16 h -0.16 -0.16 v 0.16 0.16 z m 6.4,0 h 0.16 v -0.16 -0.16 h -0.16 -0.16 v 0.16 0.16 z m -1.28,-0.64 h 0.16 v -0.16 -0.16 h -0.16 -0.16 v 0.16 0.16 z m 0.96,0 h 0.16 v -0.16 -0.16 h -0.16 -0.16 v 0.16 0.16 z m 7.68,0 h 0.16 v -0.16 -0.16 h -0.16 -0.16 v 0.16 0.16 z m -14.72,-0.32 h 0.16 v -0.16 -0.16 h -0.16 -0.16 v 0.16 0.16 z m 9.92,0 h 0.16 v -0.16 -0.16 h -0.16 -0.16 v 0.16 0.16 z m 7.002229,0 h 0.16 l 0.197771,-0.32 0.197771,-0.32 h -0.16 -0.16 l -0.197771,0.32 -0.197771,0.32 z m -2.522229,-0.64 h 0.16 v -0.16 -0.16 h -0.16 -0.16 v 0.16 0.16 z m -2.56,-0.32 h 0.16 v -0.16 -0.16 h -0.16 -0.16 v 0.16 0.16 z m -1.226667,-1.06667 0.213334,-0.21333 -0.213334,-0.21333 -0.213333,-0.21334 v 0.42667 0.42667 z M 66.080002,160 h 0.16 v -0.16 -0.16 h -0.16 -0.16 v 0.16 0.16 z m -0.32,-0.64 h 0.16 v -0.16 -0.16 h -0.16 -0.16 v 0.16 0.16 z m -35.325129,-31.22475 0.765128,-0.66476 2.72,-1.76239 2.72,-1.7624 2.021291,-1.20895 2.021291,-1.20896 2.298709,-1.11989 2.298709,-1.11989 0.64,-0.0786 0.64,-0.0786 2.848587,-1.01359 2.848586,-1.01359 3.711414,-0.9697 3.711414,-0.9697 2.772796,-0.0622 2.772797,-0.0621 -0.123902,-5.28 -0.123902,-5.28 L 64.809853,82.899477 64.641916,61.318954 64.240959,61.064377 63.840002,60.8098 62.766192,60.8049 61.692382,60.8 59.780385,60.304552 57.868388,59.809104 56.214195,59.061719 54.560002,58.314335 52.808597,56.987012 51.057192,55.65969 50.463925,58.469845 49.870658,61.28 l -0.663554,2.24 -0.663555,2.24 -0.24767,0.64 -0.24767,0.64 -0.198426,0.96 -0.198426,0.96 -0.267036,1.12 -0.267036,1.12 -0.518642,1.189722 -0.518642,1.189722 v 1.343611 1.343612 L 45.845535,76.0322 45.611068,75.797734 45.027002,77.978867 44.442935,80.16 l -0.282127,0.96 -0.282127,0.96 -0.852845,3.52 -0.852845,3.52 -0.124458,0.32 -0.124458,0.32 -0.284625,0.48 -0.284625,0.48 -0.381856,1.44 -0.381855,1.44 -0.44259,1.76 -0.442589,1.76 -0.840407,3.04 -0.840407,3.04 -0.479514,1.92 -0.479515,1.92 -0.436784,0.96 -0.436785,0.96 -0.496261,1.23908 -0.496261,1.23908 v 0.56219 0.56219 l -1.76,5.28629 -1.76,5.28628 v 0.65356 0.65356 l -0.32,0.19777 -0.32,0.19777 v 0.59826 0.59826 l -0.464201,0.4642 -0.464202,0.4642 -0.220926,0.91865 L 29.669745,128.8 Z M 101.12,126.4 h 0.32 v -0.27658 -0.27657 l -1.08834,-3.16343 -1.08834,-3.16342 -1.776893,-5.13201 -1.776892,-5.132 0.02512,-0.628 L 95.759775,108 94.63477,104.8 93.509765,101.6 91.714881,96.122545 89.919996,90.645091 V 90.090454 89.535817 L 87.962162,83.567909 86.004321,77.6 85.747541,76.96 85.49076,76.32 84.840052,74.24 84.189343,72.16 83.67977,70.24 l -0.509572,-1.92 -0.457752,-1.44 -0.457752,-1.44 -1.694221,-5.054254 -1.694222,-5.054254 -2.257717,1.754251 -2.257717,1.754251 -0.855408,0.214694 -0.855407,0.214693 v 0.223625 0.223624 l -2.16,0.535838 -2.16,0.535837 -1.198143,0.201112 -1.198142,0.201112 0.238106,1.324736 0.238106,1.324735 -0.03293,2.4 -0.03293,2.4 -0.07628,2.24 -0.07628,2.24 0.130167,3.113028 0.130166,3.113027 -0.340917,0.114934 -0.340917,0.114933 0.410292,0.497228 0.410291,0.497228 -0.05054,1.234811 -0.05054,1.234811 0.07502,2.294307 0.07502,2.294307 -0.21365,0.345693 -0.21365,0.345693 h 0.30168 0.301679 l -0.102366,1.04 -0.102367,1.04 h -0.05831 -0.05831 l -0.05219,12.4 -0.05219,12.4 2.730074,0.0198 2.730074,0.0198 2.24,0.25969 2.24,0.2597 3.00367,0.67758 3.00367,0.67758 0.35633,0.28051 0.356331,0.2805 3.36,1.04928 3.36,1.04928 2.4,1.10638 2.4,1.10639 3.12,1.91562 3.119994,1.91563 v 0.29114 0.29115 z m -31.755269,-12.75213 -0.724729,0.12429 -0.72,-0.10834 -0.72,-0.10833 v -0.26351 -0.26351 l 0.501407,-0.19241 0.501407,-0.1924 -0.09122,-2.23439 -0.09122,-2.23438 -0.410186,-0.1574 -0.410186,-0.1574 V 107.53004 107.2 h 1.6 1.6 v 0.18286 0.18285 l -0.48,0.48 -0.48,0.48 v 0.75826 0.75826 l 0.32,0.19777 0.32,0.19777 0.4,-0.24901 0.4,-0.24901 0.703155,0.0908 0.703154,0.0908 -0.07079,-1.0607 -0.07079,-1.06069 -0.251251,-0.4 -0.251251,-0.4 0.258886,-0.0228 0.258885,-0.0228 1.2,-0.14616 1.2,-0.14615 v 0.35 0.35 l -0.339865,0.63505 -0.339865,0.63504 -0.133865,1.59242 -0.133864,1.59242 0.633729,0.54262 0.63373,0.54261 v 0.24889 0.24888 h -1.253828 -1.253828 l -0.506172,-0.19424 -0.506172,-0.19423 V 112.92576 112.64 h 0.48 0.48 v -0.8 -0.8 l -0.32,-0.04 -0.32,-0.04 h -0.48 -0.48 l -0.64,0.04 -0.64,0.04 v 0.76576 0.76577 l 0.500282,0.19197 0.500283,0.19198 -0.175554,0.28405 -0.175553,0.28405 z m -5.015781,-53.665761 0.219505,-0.135662 0.02545,-6.531663 0.02545,-6.531663 L 63.429674,46.230728 62.240002,45.678335 61.638495,45.159168 61.036989,44.64 60.252532,43.40523 59.468074,42.170459 59.653657,41.431038 59.83924,40.691617 60.000575,33.785809 60.161909,26.88 h -0.320953 -0.320954 v 0.185926 0.185926 l -0.997991,3.894074 -0.99799,3.894074 -0.215617,0.16 -0.215617,0.16 -0.880532,3.36 -0.880531,3.36 -0.340853,1.079488 -0.340854,1.079489 0.434993,0.275611 0.434992,0.275612 -0.537294,0.0049 -0.537293,0.0049 -0.517955,1.84 -0.517955,1.84 -0.674319,2.24 -0.674319,2.24 -0.336229,0.542099 -0.336228,0.5421 0.573416,0.633618 0.573417,0.633618 1.947667,1.307826 1.947667,1.307826 2.521231,0.796456 2.521232,0.796457 0.863481,0.0049 0.863481,0.0049 0.464721,0.293986 0.464722,0.293985 z M 57.440002,36.16 h -0.16 V 36 35.84 h 0.16 0.16 V 36 36.16 Z m 9.113781,23.68 h 0.850058 l 1.738081,-0.510832 1.73808,-0.510832 2.23712,-1.169168 L 75.354242,56.48 77.006851,54.910274 78.65946,53.340549 78.189156,51.870274 77.718851,50.4 77.290916,48.8 76.862982,47.2 74.944606,41.44 73.02623,35.68 72.548887,33.6 l -0.477344,-2.08 -0.72906,-2.4 -0.729059,-2.4 -0.232328,-0.269617 -0.232328,-0.269617 0.03278,8.429617 0.03278,8.429617 -0.78716,1.202788 -0.78716,1.202788 -1.36,0.665758 -1.36,0.665758 -0.04744,0.371454 -0.04744,0.371454 -0.0607,6.16 -0.0607,6.16 z M 68.71899,53.594936 65.917977,53.817621 66.113226,53.30881 66.308475,52.8 h 0.445763 0.445764 v -2.124722 -2.124723 l -0.559497,-0.409114 -0.559497,-0.409114 0.159497,-0.156543 0.159497,-0.156543 2.72,-0.203702 2.72,-0.203701 0.589968,0.431701 0.589968,0.431701 -0.02997,0.86238 -0.02997,0.86238 0.0034,0.72 0.0034,0.72 0.07658,0.789056 0.07658,0.789057 -0.8,0.377069 -0.8,0.37707 z m 1.143914,-0.927516 0.985283,-0.197057 0.23358,-0.377939 0.233579,-0.37794 -0.318933,-0.595931 -0.318933,-0.595931 -1.018739,0.09869 -1.018739,0.09869 -0.0064,0.8 -0.0064,0.8 0.125189,0.272238 0.125188,0.272238 z m -0.04659,-3.036109 1.063693,-0.217548 V 48.786881 48.16 l -1.0422,-0.100439 -1.0422,-0.100439 -0.192036,0.500439 -0.192037,0.500439 0.170544,0.44443 0.170544,0.44443 z M 50.924221,52.264962 51.144067,51.68 l 0.64254,-2.24 0.64254,-2.24 0.840042,-3.2 0.840041,-3.2 0.833436,-2.72 0.833437,-2.72 0.194579,-0.16 0.19458,-0.16 0.524078,-1.6 0.524078,-1.6 0.518038,-1.92 0.518038,-1.92 0.475254,-1.482948 0.475254,-1.482949 V 24.677052 24.32 h -0.432554 -0.432554 l -2.12066,1.392854 -2.120659,1.392855 -1.50177,1.567145 -1.501769,1.567146 -1.065017,1.664628 -1.065018,1.664629 v 0.292217 0.292216 l -0.595172,0.763155 -0.595173,0.763155 -0.173617,0.96 -0.173617,0.96 -0.37371,2.08 -0.373709,2.08 0.363184,2.501727 0.363185,2.501727 0.621363,1.498273 0.621362,1.498273 0.525185,0.96 0.525184,0.96 0.504954,0.584962 0.504954,0.584962 z m -0.150886,-3.731629 -0.213333,0.213334 V 48.32 47.893333 l 0.213333,0.213334 0.213333,0.213333 z m -2.64,-5.038596 -0.613334,-0.02526 0.42,-0.16807 0.42,-0.168071 0.193334,0.193334 0.193333,0.19333 z M 79.523638,52.16 h 0.112784 l 0.679065,-0.953659 0.679065,-0.953659 0.783483,-2.2425 0.783483,-2.2425 0.294341,-2.078423 L 83.1502,41.610835 82.750881,39.125418 82.351562,36.64 81.987041,35.962075 81.62252,35.284149 l 0.16691,-0.16691 0.16691,-0.16691 -0.658986,-1.401932 -0.658986,-1.401932 -1.519183,-1.833548 -1.519183,-1.833549 -1.137212,-0.931226 -1.137212,-0.931227 -2.158254,-1.186325 -2.158254,-1.186325 -0.195804,0.195804 -0.195804,0.195805 0.404387,1.362063 0.404387,1.362063 0.489933,1.12 0.489934,1.12 0.078,0.48 0.07799,0.48 0.838955,2.167305 0.838955,2.167306 0.002,0.552694 0.002,0.552695 0.416934,0.8 0.416933,0.8 0.829673,2.4 0.829674,2.4 0.858438,3.04 0.858439,3.04 0.272975,0.8 0.272975,0.8 0.205434,1.04 0.205434,1.04 z m -15.223563,-6.4 h 0.300073 l -0.0042,-3.820873 -0.0042,-3.820873 L 64.12636,37.73208 63.661049,37.345906 62.86979,37.706427 62.078532,38.066949 61.440463,39.113475 60.802394,40.16 v 1.12 1.12 l 0.65464,1.073774 0.654639,1.073774 0.944164,0.356382 0.944165,0.356382 V 45.510156 45.76 Z m 1.76926,0 h 0.469334 l 1.115281,-1.115281 1.115281,-1.115281 0.204852,-1.091956 0.204853,-1.091956 L 68.539569,39.900131 67.900202,38.454735 67.251139,38.107368 66.602077,37.76 h -0.501038 -0.501037 v 4 4 z m 2.955925,-7.9156 0.138102,-0.7156 -0.133734,-0.8844 -0.133733,-0.8844 -0.0044,1.6 -0.0044,1.6 z m -7.715753,-0.108942 0.349505,-0.290008 -0.02951,-6.881316 -0.0295,-6.881316 -0.32,0.07859 -0.32,0.07859 v 7.092733 7.092733 z M 67.920974,36 68.17641,34.4 67.969304,28.88 67.762199,23.36 h -0.294197 -0.294198 l 0.04945,6.8 0.04945,6.8 0.196414,0.32 0.196415,0.32 z m -5.160972,0.480098 0.2,-9.8e-5 0.2,-1 0.2,-1 v -5.541115 -5.541114 l -0.32,-0.197771 -0.32,-0.197771 -0.01354,0.418886 -0.01354,0.418885 -0.06646,6.320098 -0.06646,6.320099 z m 1.378046,-0.05078 0.229977,-0.210678 0.06499,-0.429322 0.06499,-0.429322 0.15126,-0.32 0.15126,-0.32 -0.182608,-2.4 -0.182608,-2.4 -0.05765,2.28 -0.05765,2.28 -0.205965,1.08 -0.205965,1.08 z m 1.66537,0.05068 h 0.397369 l 0.185112,-1.36 0.185112,-1.36 -0.129018,-0.96 -0.129018,-0.96 -0.03649,-4.266667 -0.03649,-4.266666 -0.4,0.136042 -0.4,0.136042 0.05618,2.050625 0.05618,2.050624 0.04736,1.28 0.04736,1.28 -0.120514,3.12 -0.120514,3.12 z m 3.541842,-1.8356 0.138102,-0.7156 -0.133734,-0.8844 -0.133733,-0.8844 -0.0044,1.6 -0.0044,1.6 z M 69.280002,32 h 0.16 v -0.16 -0.16 h -0.16 -0.16 V 31.84 32 Z m -0.104101,-0.64 h 0.261532 l -0.152008,-3.726626 -0.152008,-3.726626 -0.166846,-0.166846 -0.166846,-0.166846 0.05732,3.893472 0.05732,3.893472 z m -4.695899,-1.6 h 0.16 V 29.6 29.44 h -0.16 -0.16 v 0.16 0.16 z m 0.03732,-0.64 H 64.64 V 26.221115 23.322229 L 64.32,23.52 64,23.717771 l 0.0044,1.981114 0.0044,1.981115 0.192953,0.72 0.192952,0.72 z M 61.085765,22.4 h 0.285764 l 0.139106,-0.4 0.139106,-0.4 -0.06668,-5.695143 -0.06668,-5.695143 -0.19819,-0.198191 -0.19819,-0.1981897 -0.1299,0.1333334 L 60.8602,10.08 l -0.065,3.68 -0.065,3.68 0.0349,2.48 0.0349,2.48 z m 3.120435,-0.09953 0.206197,-0.206197 0.09687,-4.727136 0.09687,-4.727136 -0.27031,-1.12 -0.270309,-1.12 -0.03275,6.053333 -0.03276,6.053334 z M 69.0948,19.209635 69.282261,15.85927 69.092894,12.969635 68.903527,10.08 l -0.120552,3.36 -0.120552,3.36 0.04671,2.24 0.04671,2.24 0.07575,0.64 0.07575,0.64 z M 125.54667,193.28 H 124.16 l -0.0379,-0.24 -0.0379,-0.24 0.0898,-0.32 0.0898,-0.32 0.0794,-2.3046 0.0794,-2.3046 -0.44782,-0.37166 -0.44782,-0.37166 0.17536,-0.28374 0.17536,-0.28374 h 2.52297 2.52297 l 0.48904,0.69819 0.48903,0.69819 -0.35007,0.42181 -0.35007,0.42181 h -0.29378 -0.29377 l -0.91662,-0.67769 -0.91662,-0.67768 -0.35042,0.21657 -0.35043,0.21657 v 0.56778 0.56778 l 0.2113,0.2113 0.2113,0.2113 0.46573,-0.66493 0.46574,-0.66493 0.24415,0.26696 0.24416,0.26697 0.21331,1.2 0.21331,1.2 h -0.6386 -0.63859 l -0.32617,-0.56 -0.32617,-0.56 -0.01,0.9688 -0.01,0.9688 0.46871,0.66916 0.4687,0.66917 -0.20204,0.20203 -0.20203,0.20204 z M 9.7600003,157.76 h -0.16 v -0.16 -0.16 h 0.16 0.16 v 0.16 0.16 z M 22.560001,130.24 h -3.68 v -0.34996 -0.34996 l 0.64,-0.16736 0.64,-0.16736 0.03542,-1.32268 0.03542,-1.32268 -0.06501,-0.8 -0.06501,-0.8 -0.47378,-0.53102 -0.473779,-0.53102 0.583369,-0.15781 0.583369,-0.15782 1.016328,0.0953 1.016329,0.0953 0.36776,0.22729 0.36776,0.22729 -0.653167,0.60851 -0.653166,0.60852 0.170893,0.44534 0.170894,0.44534 -0.341816,0.21126 -0.341815,0.21125 v 0.91826 0.91826 l 0.519801,0.5198 0.519801,0.5198 1.160199,-0.097 1.160199,-0.0969 0.357409,-1.1058 0.35741,-1.10581 0.36259,-0.12086 0.362591,-0.12086 v 1.62666 1.62667 z m 85.279999,-4.05934 -0.8,0.17877 -0.96,-0.416 -0.96,-0.41599 -0.51607,-0.60372 -0.51608,-0.60372 -0.18516,-0.98619 -0.18516,-0.98619 0.62138,-1.02179 0.62139,-1.02178 0.87985,-0.33531 0.87985,-0.33531 0.92581,0.18445 0.92582,0.18444 0.43418,-0.36034 0.43419,-0.36034 0.43524,0.36121 0.43524,0.36121 -0.15757,0.82426 -0.15757,0.82425 -0.44958,0.17253 -0.44959,0.17252 -0.58923,-0.53325 -0.58923,-0.53324 -0.91886,-0.0656 -0.91885,-0.0656 -0.29928,1.55025 -0.29928,1.55025 0.33416,0.52975 0.33415,0.52975 h 0.92075 0.92074 l 0.1125,-0.58416 0.1125,-0.58417 -0.5611,-0.41028 -0.5611,-0.41029 1.13002,-0.21199 1.13003,-0.21199 0.47656,0.18287 0.47657,0.18288 -0.0336,1.17949 -0.0336,1.1795 -0.8,0.36501 -0.8,0.36501 z M 51.97254,21.58115 50.985077,21.702711 50.571543,21.447133 50.158008,21.191554 50.37789,20.835777 50.597772,20.48 h 0.629599 0.629598 l -0.08848,-2.077466 -0.08848,-2.077467 -0.360818,-0.0025 -0.360818,-0.0025 -0.36735,-0.442629 -0.367349,-0.44263 0.408167,-0.137776 0.408168,-0.137776 2.258252,0.05257 2.258253,0.05257 0.829015,0.543192 0.829015,0.543191 0.199174,1.061687 0.199173,1.061686 -0.214125,0.602957 -0.214125,0.602958 -0.635803,0.706914 -0.635803,0.706914 -1.476513,0.18288 -1.476513,0.18288 z m 2.027462,-1.10605 0.56,-0.0049 0.373201,-0.237423 0.373202,-0.237423 0.09013,-1.917677 0.09013,-1.917677 -0.729295,-0.105658 -0.729296,-0.105659 -0.423725,0.57948 -0.423726,0.579479 0.09664,1.126179 0.09664,1.126179 0.03305,0.56 0.03305,0.56 z m 21.180871,0.809758 -1.100871,0.144376 -0.717977,-0.303557 -0.717978,-0.303557 -0.640826,-1.05106 -0.640826,-1.05106 -0.0012,-0.672539 -0.0012,-0.67254 1.000706,-1.047143 1.000706,-1.047142 1.874581,-0.221031 1.874581,-0.221031 0.324713,0.324713 0.324713,0.324713 v 0.514839 0.514838 L 77.35156,17.076255 76.943118,17.634832 76.39156,17.42318 75.840002,17.211527 V 16.8 16.388473 l -0.483792,-0.185649 -0.483791,-0.185648 -0.810918,0.369479 -0.810917,0.369479 0.09471,1.621933 0.09471,1.621933 0.938344,0.106885 0.938344,0.106885 0.566389,-0.746885 0.566388,-0.746885 0.565109,0.56127 0.565109,0.56127 -0.648971,0.648971 -0.648971,0.64897 z"
         id="path8" />
    </g>
  </g>
</svg>
