<?xml version="1.0" encoding="UTF-8" standalone="no"?>
<svg
   width="517.98901"
   height="155.99222"
   viewBox="0 0 517.98901 155.99222"
   version="1.1"
   id="svg186"
   xmlns="http://www.w3.org/2000/svg"
   xmlns:svg="http://www.w3.org/2000/svg">
  <defs
     id="defs186" />
  <path
     style="display:inline;stroke-miterlimit:2"
     d="m 268.29695,76.373084 c -10.74109,-0.35151 -21.56727,3.12003 -30.00586,9.89648 -11.7772,9.21359 -18.40948,24.181096 -17.60547,39.060546 l 4.99219,-0.26953 c -0.7138,-13.21008 5.28577,-26.715956 15.70507,-34.861326 l 0.0137,-0.01 0.0117,-0.0117 c 9.93852,-7.98836 23.8922,-10.8339 36.14844,-7.34961 l 0.0195,0.006 0.0215,0.006 c 11.75974,3.1331 21.90492,11.92408 26.84179,23.050776 l 0.004,0.006 0.002,0.006 c 1.95979,4.35176 3.52458,10.27093 3.93628,15.0562 l 3.95906,-3.56722 c -0.45721,-5.31425 -1.12844,-8.63312 -3.33088,-13.52804 l -0.004,-0.006 C 303.44513,91.329954 292.20685,81.572074 278.92394,78.019774 l -0.01,-0.002 c -3.46908,-0.98535 -7.03797,-1.5274 -10.61718,-1.64453 z"
     id="path1" />
  <path
     fill="none"
     stroke-width="1.5"
     stroke-linecap="butt"
     stroke-linejoin="miter"
     stroke="#000000"
     stroke-opacity="1"
     stroke-miterlimit="2"
     d="m 304.56843,123.07815 2.48828,-1.01562 1.95703,-1.09766 1.44141,-1.15234 1.00391,-1.17969 0.66015,-1.1875 0.40235,-1.1875 0.21875,-1.18359 0.082,-1.17969 -0.0234,-1.16797 -0.10547,-1.16016 -0.16797,-1.15234 -0.22265,-1.14453 -0.26563,-1.13281 -0.30859,-1.1211 -0.34375,-1.11328 -0.375,-1.10156 -0.41016,-1.08984 -0.4375,-1.07813 -0.46875,-1.06641 -0.49219,-1.05468 -0.51953,-1.039066 -0.54687,-1.02734 -0.57032,-1.01172 -0.59375,-1 -0.61718,-0.98047 -0.64063,-0.96875 -0.66015,-0.94922 -0.6836,-0.93359 -0.70312,-0.91406 -0.72657,-0.90235 -0.74609,-0.8789 -0.76172,-0.86328 -0.78515,-0.84375 -0.80079,-0.82422 -0.8164,-0.80469 -0.83594,-0.78516 -0.85547,-0.76562 -0.86719,-0.74219 -0.88281,-0.72656 -0.89844,-0.69922 -0.91406,-0.68359 -0.92578,-0.65625 -0.94141,-0.63672 -0.95312,-0.61719 -0.96484,-0.58984 -0.97657,-0.57032 -0.98437,-0.54687 -0.9961,-0.52344 -1.00781,-0.5039 -1.01562,-0.47657 -1.02344,-0.45312 -1.03516,-0.42969 -1.03906,-0.40625 -1.04687,-0.38281 -1.05079,-0.35938 -1.05859,-0.33593 -1.0625,-0.3125 -1.07031,-0.28907 -1.07031,-0.26562 -1.07422,-0.23828 -1.07813,-0.21875 -1.07812,-0.19141 -1.08203,-0.17187 -1.08204,-0.14454 -1.08593,-0.12109 -1.08203,-0.10156 -1.08204,-0.0742 -1.08203,-0.0547 -1.08203,-0.0273 -1.07812,-0.008 -1.07422,0.0156 -1.07422,0.0391 -1.07031,0.0625 -1.06641,0.082 -1.05859,0.10547 -1.0586,0.125 -1.05078,0.14844 -1.04687,0.17188 -1.03907,0.1914 -1.03515,0.21094 -1.02344,0.23047 -1.01953,0.2539 -1.01172,0.27344 -1.00391,0.29297 -0.99609,0.3125 -0.98828,0.33203 -0.97656,0.35156 -0.96875,0.36719 -0.95703,0.39063 -0.94922,0.40625 -0.9375,0.42187 -0.92969,0.44531 -0.91406,0.45704 -0.90625,0.47656 -0.89453,0.49219 -0.88282,0.50781 -0.87109,0.52734 -0.85938,0.53906 -0.84765,0.5586 -0.83203,0.57031 -0.82032,0.58594 -0.80859,0.60156 -0.79687,0.61328 -0.78125,0.62891 -0.76954,0.64453 -0.75781,0.65625 -0.73828,0.66797 -0.73047,0.67969 -0.71484,0.6914 -0.69922,0.70703 -0.6875,0.71485 -0.67188,0.73047 -0.66015,0.73828 -0.64453,0.75 -0.62891,0.75781 -0.61719,0.77344 -0.60156,0.77734 -0.58984,0.78906 -0.57422,0.80078 -0.5586,0.8086 -0.54687,0.8164 -0.53516,0.82422 -0.51953,0.83203 -0.5039,0.83985 -0.4961,0.847646 -0.48047,0.85547 -0.46875,0.86328 -0.45703,0.8711 -0.4414,0.875 -0.4375,0.88281 -0.42188,0.88672 -0.41406,0.89844 -0.40235,0.89843 -0.39843,0.91016 -0.38672,0.91406 -0.38281,0.91797 -0.3711,0.92578 -0.36719,0.9336 -0.35546,0.9414 -0.34375,0.94922 -0.32422,0.96094 -0.29297,0.97266 -0.23828,0.98437 -0.14844,0.99609 v 1.01563 l 0.23047,1.02734 0.57422,1.03125 1.04297,1.02344 1.59765,0.98047 2.15625,0.90625 2.61328,0.80469 2.88282,0.68359 2.95312,0.55469 2.85156,0.44531 2.65235,0.34766 2.40625,0.27343 2.14843,0.21485 1.90625,0.16797 1.6875,0.13281 1.49219,0.10937 1.32422,0.0859 1.17969,0.0703 1.05469,0.0586 0.9414,0.0508 0.85156,0.0391 0.77344,0.0352 0.69922,0.0312 0.64063,0.0273 0.58593,0.0195 0.53907,0.0195 0.49609,0.0195 0.46094,0.0156 0.42968,0.0117 0.39844,0.0117 0.375,0.0117 0.35156,0.008 0.32813,0.008 0.30859,0.008 0.29297,0.008 0.27735,0.008 0.26562,0.004 0.25,0.008 0.23828,0.004 0.22656,0.004 0.21875,0.004 0.20704,0.004 0.19921,0.004 0.19141,0.004 0.1875,0.004 h 0.17578 l 0.17188,0.004 0.16797,0.004 h 0.16015 l 0.15625,0.004 h 0.15235 l 0.14453,0.004 h 0.28515 l 0.13672,0.004 h 0.13281 l 0.12891,0.004 h 0.375 l 0.12109,0.004 h 0.34766 l 0.10938,0.004 h 0.54296 l 0.10547,0.004 h 1.42969 l 0.10156,0.004 0.10157,-0.004 h 1.3125 l 0.12109,-0.004 h 0.5 l 0.12891,-0.004 h 0.41796 l 0.14454,-0.004 h 0.30468 l 0.16016,-0.004 h 0.16406 l 0.17188,-0.004 h 0.17578 l 0.17969,-0.004 h 0.1914 l 0.19531,-0.004 0.20704,-0.004 0.21484,-0.004 0.22266,-0.004 0.23437,-0.004 0.24609,-0.004 0.26172,-0.004 0.26953,-0.004 0.28907,-0.008 0.30468,-0.004 0.32422,-0.008 0.34375,-0.008 0.36328,-0.008 0.39063,-0.0117 0.42187,-0.0117 0.44922,-0.0117 0.48438,-0.0156 0.52734,-0.0156 0.57031,-0.0195 0.6211,-0.0195 0.68359,-0.0273 0.75,-0.0312 0.82422,-0.0352 0.91797,-0.043 1.01953,-0.0469 1.14453,-0.0625 1.28516,-0.0742 1.44922,-0.0937 1.64453,-0.11718 1.86328,-0.14454 2.11719,-0.18359 2.39843,-0.23828 2.6875,-0.30469 2.96875,-0.39453 3.1875,-0.50391 3.29297,-0.6289 3.21485,-0.76953 z m 0,0"
     id="path154"
     style="display:inline" />
  <path
     fill="none"
     stroke-width="1.5"
     stroke-linecap="butt"
     stroke-linejoin="miter"
     stroke="#000000"
     stroke-opacity="1"
     stroke-miterlimit="2"
     d="m 321.97468,123.07815 2.50391,-1.38281 1.64062,-1.44922 0.89063,-1.47656 0.32031,-1.46875 -0.0625,-1.44922 -0.30078,-1.42187 -0.4375,-1.39454 -0.51563,-1.375 -0.55468,-1.35156 -0.58204,-1.33594 -0.59375,-1.32031 -0.60156,-1.30859 -0.60937,-1.28906 -0.6211,-1.28125 -0.6289,-1.26563 -0.64063,-1.25391 -0.65234,-1.24218 -0.66797,-1.226566 -0.68359,-1.21093 -0.69922,-1.19922 -0.71485,-1.1836 -0.73047,-1.17187 -0.75,-1.15234 -0.76953,-1.13672 -0.78906,-1.1211 -0.80469,-1.10156 -0.82812,-1.08594 -0.84375,-1.0664 -0.86328,-1.04688 -0.88282,-1.02734 -0.89843,-1.00781 -0.92188,-0.99219 -0.9375,-0.96485 -0.95703,-0.94921 -0.97266,-0.92579 -0.98828,-0.90234 -1.00781,-0.87891 -1.02344,-0.85937 -1.04297,-0.83594 -1.05468,-0.8125 -1.07032,-0.78515 -1.08203,-0.76563 -1.10156,-0.73828 -1.10937,-0.71484 -1.12891,-0.69141 -1.13672,-0.66406 -1.14844,-0.64063 -1.16015,-0.61328 -1.17188,-0.58594 -1.18359,-0.5625 -1.19141,-0.53515 -1.19922,-0.51172 -1.21093,-0.48438 -1.21485,-0.45312 -1.22265,-0.42969 -1.23047,-0.40625 -1.23828,-0.375 -1.24219,-0.35156 -1.2461,-0.32031 -1.25,-0.29688 -1.2539,-0.26953 -1.25781,-0.24219 -1.26172,-0.21484 -1.26172,-0.1875 -1.26172,-0.16406 -1.26563,-0.13282 -1.26562,-0.10937 -1.26172,-0.082 -1.26562,-0.0547 -1.26172,-0.0312 -1.25782,-0.004 -1.25781,0.0234 -1.2539,0.0469 -1.25,0.0742 -1.2461,0.0977 -1.24219,0.125 -1.23828,0.14844 -1.23047,0.17578 -1.22656,0.19531 -1.21875,0.22266 -1.21094,0.25 -1.20312,0.26953 -1.19922,0.29297 -1.1875,0.3164 -1.17969,0.34375 -1.17187,0.36329 -1.16406,0.38281 -1.14844,0.41015 -1.14453,0.42969 -1.12891,0.44922 -1.12109,0.47266 -1.10938,0.49218 -1.09765,0.51563 -1.08985,0.53516 -1.07422,0.55078 -1.05859,0.57422 -1.05078,0.59375 -1.03516,0.60937 -1.02734,0.63281 -1.00781,0.64844 -0.9961,0.66406 -0.98437,0.6836 -0.96875,0.70312 -0.95703,0.71485 -0.94141,0.73437 -0.92969,0.75 -0.91015,0.76563 -0.90235,0.78125 -0.88281,0.79687 -0.87109,0.8125 -0.85547,0.82422 -0.83985,0.83984 -0.82812,0.85157 -0.8125,0.86328 -0.80078,0.8789 -0.78516,0.89063 -0.76953,0.90625 -0.76172,0.91406 -0.74609,0.92578 -0.73047,0.9375 -0.72266,0.94922 -0.70703,0.95703 -0.69922,0.96875 -0.6914,0.97656 -0.67969,0.98829 -0.67188,1 -0.66406,1.0039 -0.66016,1.01563 -0.65625,1.02343 -0.65234,1.031246 -0.65625,1.04297 -0.65625,1.04688 -0.66797,1.05859 -0.67187,1.0625 -0.6875,1.07422 -0.70703,1.08594 -0.73047,1.08984 -0.75782,1.10547 -0.78906,1.11719 -0.82422,1.13281 -0.85937,1.15234 -0.88281,1.17579 -0.88672,1.20312 -0.84375,1.23828 -0.71875,1.28125 -0.45703,1.32422 -0.008,1.35938 0.66407,1.38281 1.53125,1.35937 2.46093,1.28516 3.26563,1.16016 3.80469,0.99218 4.02343,0.82032 3.97657,0.66015 3.7539,0.51953 3.4375,0.41016 3.09375,0.32031 2.75781,0.25 2.44532,0.20313 2.17578,0.16015 1.92969,0.13282 1.72265,0.10546 1.53906,0.0899 1.38282,0.0703 1.24609,0.0625 1.13281,0.0547 1.02735,0.043 0.9375,0.0391 0.86328,0.0352 0.78906,0.0273 0.73438,0.0234 0.67578,0.0234 0.6289,0.0195 0.58985,0.0195 0.54687,0.0156 0.51563,0.0117 0.48437,0.0156 0.45703,0.008 0.42969,0.0117 0.40625,0.008 0.38672,0.0117 0.37109,0.008 0.34766,0.004 0.33594,0.008 0.32031,0.008 0.30469,0.004 0.29297,0.004 0.28515,0.004 0.26953,0.008 0.26172,0.004 0.25391,0.004 h 0.24609 l 0.23438,0.004 0.23047,0.004 0.22265,0.004 h 0.21875 l 0.21094,0.004 0.20312,0.004 h 0.19922 l 0.19922,0.004 h 0.1875 l 0.1875,0.004 h 0.36328 l 0.17578,0.004 h 0.34375 l 0.16797,0.004 h 0.49219 l 0.16016,0.004 h 0.77343 l 0.15235,0.004 h 2.55469 l 0.15625,-0.004 h 0.8125 l 0.17187,-0.004 h 0.34766 l 0.17578,-0.004 h 0.36719 l 0.1914,-0.004 h 0.39063 l 0.20312,-0.004 h 0.20703 l 0.21485,-0.004 0.21875,-0.004 h 0.22656 l 0.23437,-0.004 0.24219,-0.004 h 0.25 l 0.25781,-0.004 0.26954,-0.004 0.27734,-0.004 0.28906,-0.004 0.30078,-0.008 0.3125,-0.004 0.32813,-0.004 0.34375,-0.008 0.35937,-0.008 0.37891,-0.008 0.39844,-0.008 0.42187,-0.008 0.44531,-0.0117 0.47266,-0.0117 0.50391,-0.0117 0.53125,-0.0117 0.57031,-0.0156 0.61328,-0.0195 0.65625,-0.0195 0.71094,-0.0234 0.76562,-0.0234 0.83203,-0.0312 0.90625,-0.0352 0.98829,-0.0391 1.08593,-0.0469 1.19922,-0.0547 1.32813,-0.0664 1.47656,-0.0781 1.64844,-0.0937 1.84765,-0.11719 2.07813,-0.14063 2.34375,-0.17968 2.65234,-0.21875 2.98828,-0.28125 3.35157,-0.35938 3.71093,-0.45703 4.03125,-0.58594 4.23047,-0.73828 4.21875,-0.91797 3.91797,-1.09375 z m 0,0"
     id="path155" />
  <path
     fill="none"
     stroke-width="1.5"
     stroke-linecap="butt"
     stroke-linejoin="miter"
     stroke="#000000"
     stroke-opacity="1"
     stroke-miterlimit="2"
     d="m 339.47468,123.07815 2.47266,-1.74609 1.26562,-1.80469 0.25391,-1.79297 -0.45313,-1.7539 -0.8789,-1.69141 -1.09375,-1.63672 -1.17188,-1.58984 -1.18359,-1.54688 -1.14844,-1.51562 -1.10547,-1.48438 -1.0625,-1.46875 -1.01953,-1.44531 -0.98047,-1.42578 -0.95703,-1.41406 -0.93359,-1.394526 -0.92188,-1.38282 -0.91015,-1.36718 -0.90625,-1.35157 -0.90235,-1.33593 -0.91015,-1.32422 -0.91016,-1.30469 -0.92188,-1.28906 -0.92968,-1.26953 -0.94532,-1.25391 -0.95312,-1.23828 -0.97266,-1.21875 -0.98437,-1.19922 -1,-1.17578 -1.01563,-1.16016 -1.03125,-1.13672 -1.05078,-1.11718 -1.0664,-1.09766 -1.08204,-1.07031 -1.09765,-1.05078 -1.11719,-1.02735 -1.13672,-1.0039 -1.14844,-0.97657 -1.16796,-0.95703 -1.17969,-0.92969 -1.19922,-0.90234 -1.21484,-0.87891 -1.22657,-0.85156 -1.24218,-0.82812 -1.25782,-0.79688 -1.26953,-0.77344 -1.28125,-0.74609 -1.29687,-0.71484 -1.3086,-0.69141 -1.3164,-0.66016 -1.33203,-0.63281 -1.33985,-0.60547 -1.34765,-0.57422 -1.35938,-0.54687 -1.36719,-0.51953 -1.3789,-0.48828 -1.37891,-0.45703 -1.39062,-0.4336 -1.39454,-0.39844 -1.40234,-0.37109 -1.40625,-0.34375 -1.41016,-0.3125 -1.41406,-0.28125 -1.41797,-0.25391 -1.41797,-0.22656 -1.42187,-0.1914 -1.42578,-0.16797 -1.42188,-0.13282 -1.42187,-0.10937 -1.42578,-0.0742 -1.42188,-0.0508 -1.41797,-0.0195 -1.41797,0.0117 -1.41796,0.0352 -1.41016,0.0664 -1.41016,0.0937 -1.40234,0.125 -1.39844,0.14844 -1.39453,0.17968 -1.38672,0.20313 -1.3789,0.23437 -1.375,0.25782 -1.36719,0.28906 -1.35938,0.3125 -1.34765,0.33984 -1.34375,0.36328 -1.33203,0.39063 -1.32032,0.41406 -1.3125,0.44141 -1.30468,0.46484 -1.28907,0.48828 -1.28125,0.51563 -1.26953,0.53515 -1.25781,0.5625 -1.24219,0.58204 -1.23437,0.60546 -1.21875,0.62891 -1.20703,0.65234 -1.19141,0.67188 -1.17969,0.69141 -1.16797,0.71484 -1.15234,0.73437 -1.13672,0.75391 -1.12109,0.77344 -1.10938,0.79297 -1.09765,0.80859 -1.07813,0.83203 -1.06641,0.84766 -1.05078,0.86719 -1.03906,0.88281 -1.02344,0.89844 -1.00781,0.91796 -0.99219,0.92969 -0.98047,0.94922 -0.96484,0.96484 -0.95312,0.97657 -0.94141,0.99218 -0.92578,1.00782 -0.91797,1.01953 -0.90234,1.03515 -0.89454,1.04688 -0.88671,1.05859 -0.875,1.07032 -0.86719,1.08203 -0.86328,1.09375 -0.85938,1.10547 -0.85547,1.11718 -0.85547,1.12891 -0.85937,1.13672 -0.86328,1.14453 -0.875,1.16016 -0.88672,1.16406 -0.90625,1.17969 -0.92969,1.1875 -0.96094,1.195306 -1,1.20703 -1.04687,1.22266 -1.10547,1.23437 -1.17187,1.24609 -1.25,1.26954 -1.33985,1.28906 -1.4375,1.3164 -1.52734,1.35547 -1.59375,1.39844 -1.60938,1.45703 -1.51562,1.52344 -1.23047,1.60156 -0.67578,1.67969 0.20703,1.73047 1.39453,1.73437 2.69531,1.66016 3.8711,1.51172 4.6875,1.30469 5.07422,1.08593 5.08203,0.875 4.83984,0.69141 4.46094,0.54687 4.03125,0.42579 3.60547,0.33984 3.20703,0.26562 2.85156,0.21875 2.53906,0.17579 2.26563,0.14062 2.02734,0.11719 1.82031,0.10156 1.64454,0.082 1.48828,0.0703 1.35937,0.0586 1.23828,0.0508 1.13282,0.0469 1.04687,0.0391 0.96484,0.0312 0.89454,0.0312 0.83203,0.0273 0.77734,0.0234 0.72266,0.0195 0.67968,0.0195 0.64063,0.0156 0.60156,0.0156 0.57031,0.0117 0.53907,0.0156 0.51172,0.0117 0.48437,0.008 0.46484,0.0117 0.44141,0.008 0.42188,0.008 0.40625,0.008 0.38671,0.004 0.375,0.008 0.35938,0.004 0.34375,0.008 0.33594,0.004 0.32422,0.004 0.3125,0.004 0.30078,0.004 0.29687,0.004 0.28516,0.004 0.27734,0.004 0.27344,0.004 h 0.26172 l 0.26172,0.004 h 0.25 l 0.25,0.004 0.23828,0.004 h 0.23828 l 0.23437,0.004 h 0.45313 l 0.22266,0.004 h 0.43359 l 0.21484,0.004 h 0.625 l 0.20313,0.004 h 1.39453 l 0.19922,0.004 h 0.98047 l 0.19922,-0.004 h 1.41796 l 0.20704,-0.004 h 0.64453 l 0.21875,-0.004 h 0.45312 l 0.23047,-0.004 h 0.23438 l 0.24218,-0.004 h 0.24219 l 0.25,-0.004 h 0.25781 l 0.26172,-0.004 h 0.26953 l 0.27344,-0.004 0.28125,-0.004 0.29297,-0.004 0.29687,-0.004 0.3086,-0.004 0.32031,-0.004 0.32813,-0.004 0.33984,-0.004 0.35547,-0.004 0.36719,-0.008 0.3789,-0.004 0.39844,-0.008 0.41406,-0.008 0.4336,-0.008 0.45312,-0.008 0.47656,-0.008 0.5,-0.0117 0.52344,-0.0117 0.55469,-0.0117 0.58984,-0.0156 0.6211,-0.0156 0.66015,-0.0156 0.70313,-0.0195 0.7539,-0.0195 0.80469,-0.0234 0.86719,-0.0274 0.93359,-0.0312 1.00781,-0.0351 1.09375,-0.043 1.19141,-0.0469 1.30078,-0.0547 1.42578,-0.0625 1.57422,-0.0742 1.74219,-0.0899 1.93359,-0.10547 2.15625,-0.1289 2.41797,-0.15625 2.71094,-0.19141 3.05469,-0.23828 3.4414,-0.29687 3.86719,-0.37891 4.3125,-0.48047 4.75,-0.61328 5.10156,-0.77734 5.27735,-0.97657 5.14843,-1.20312 4.60938,-1.42578 z m 0,0"
     id="path156" />
  <path
     fill="none"
     stroke-width="1.5"
     stroke-linecap="butt"
     stroke-linejoin="miter"
     stroke="#000000"
     stroke-opacity="1"
     stroke-miterlimit="2"
     d="m 357.01765,123.07815 2.42578,-2.11328 0.85547,-2.15234 -0.42188,-2.11328 -1.27734,-2.02735 -1.75,-1.93359 -1.94141,-1.83984 -1.96093,-1.76954 -1.89453,-1.70703 -1.78516,-1.66015 -1.66797,-1.625 -1.55859,-1.59375 -1.46094,-1.57032 -1.37891,-1.546866 -1.30859,-1.52734 -1.25391,-1.51172 -1.21093,-1.4961 -1.17579,-1.47656 -1.15234,-1.46484 -1.13281,-1.44532 -1.1211,-1.42578 -1.11328,-1.41406 -1.11328,-1.39062 -1.10937,-1.37891 -1.11719,-1.35547 -1.12109,-1.33984 -1.13282,-1.31641 -1.14062,-1.30078 -1.15235,-1.27734 -1.16406,-1.25782 -1.17578,-1.23437 -1.19531,-1.21094 -1.20703,-1.1875 -1.22266,-1.16406 -1.23437,-1.14063 -1.25391,-1.11718 -1.26953,-1.08985 -1.28516,-1.0664 -1.30078,-1.03907 -1.31641,-1.01172 -1.33203,-0.98437 -1.34765,-0.96094 -1.36328,-0.92969 -1.375,-0.89843 -1.39063,-0.875 -1.40625,-0.84375 -1.41797,-0.81641 -1.42969,-0.78516 -1.4414,-0.7539 -1.45703,-0.72656 -1.46485,-0.69532 -1.47656,-0.66406 -1.48828,-0.63672 -1.49609,-0.60156 -1.50391,-0.57031 -1.51563,-0.54297 -1.52343,-0.50781 -1.52735,-0.47657 -1.53515,-0.44531 -1.54297,-0.41406 -1.54688,-0.38281 -1.55468,-0.35157 -1.55469,-0.3164 -1.5586,-0.28907 -1.5664,-0.2539 -1.5625,-0.22266 -1.56641,-0.1914 -1.57031,-0.16016 -1.56641,-0.125 -1.57031,-0.0977 -1.56641,-0.0664 -1.5664,-0.0312 h -1.5625 l -1.5625,0.0273 -1.5586,0.0586 -1.55468,0.0937 -1.55078,0.1211 -1.54297,0.15234 -1.54297,0.17969 -1.53125,0.21484 -1.52735,0.24219 -1.52343,0.26953 -1.51172,0.30078 -1.50391,0.32813 -1.5,0.35937 -1.48437,0.38672 -1.48047,0.41406 -1.46875,0.44141 -1.45703,0.47266 -1.44922,0.49609 -1.4375,0.52344 -1.42188,0.55078 -1.41406,0.57422 -1.40234,0.60156 -1.38672,0.62891 -1.375,0.65234 -1.36328,0.67578 -1.35157,0.69922 -1.33593,0.72656 -1.32032,0.75 -1.30859,0.76953 -1.29297,0.79297 -1.28125,0.81641 -1.26562,0.83984 -1.25,0.85938 -1.23438,0.8789 -1.22265,0.90235 -1.20704,0.91797 -1.1914,0.9414 -1.17578,0.96094 -1.16407,0.97656 -1.15234,0.9961 -1.13281,1.01562 -1.125,1.03125 -1.10938,1.05078 -1.09765,1.06641 -1.08594,1.08203 -1.07422,1.09766 -1.06641,1.11328 -1.05468,1.125 -1.04688,1.14453 -1.03906,1.15625 -1.03906,1.16797 -1.03125,1.18359 -1.03125,1.19531 -1.03516,1.20704 -1.03516,1.22265 -1.04687,1.23047 -1.05469,1.24609 -1.07422,1.25391 -1.09375,1.26563 -1.12109,1.27734 -1.15625,1.28906 -1.20313,1.30078 -1.2539,1.31641 -1.31641,1.32422 -1.39844,1.339836 -1.49609,1.35938 -1.60547,1.375 -1.73437,1.40234 -1.88282,1.42969 -2.04296,1.46484 -2.20313,1.51953 -2.34766,1.57813 -2.42187,1.66015 -2.35938,1.75782 -2.05859,1.87109 -1.39453,1.98828 -0.29688,2.07422 1.21094,2.10156 2.90235,2.03125 4.44921,1.86328 5.55079,1.6211 6.10937,1.35156 6.17969,1.08984 5.92187,0.86329 5.48047,0.68359 4.96875,0.53516 4.44922,0.42578 3.96484,0.33593 3.53125,0.26954 3.14454,0.21875 2.80859,0.17968 2.51562,0.14844 2.25782,0.125 2.04297,0.10547 1.85156,0.0859 1.68359,0.0742 1.53906,0.0664 1.41016,0.0547 1.30078,0.0508 1.19922,0.043 1.11328,0.0352 1.03125,0.0351 0.96485,0.0274 0.90234,0.0273 0.84375,0.0234 0.79687,0.0195 0.75,0.0195 0.70704,0.0156 0.66796,0.0156 0.63672,0.0156 0.60547,0.0117 0.57422,0.0117 0.55078,0.0117 0.52735,0.008 0.5039,0.0117 0.48047,0.008 0.46484,0.008 0.44922,0.008 0.42969,0.004 0.41406,0.008 0.40235,0.004 0.39062,0.008 0.375,0.004 0.36719,0.004 0.35547,0.004 0.34765,0.004 0.33594,0.004 0.33203,0.004 0.32032,0.004 h 0.3125 l 0.30859,0.004 0.30078,0.004 h 0.29688 l 0.28906,0.004 0.28515,0.004 h 0.55469 l 0.27344,0.004 h 0.26562 l 0.26563,0.004 h 0.52344 l 0.2539,0.004 h 1.00782 l 0.24609,0.004 h 2.94531 l 0.25,-0.004 h 1.01563 l 0.26172,-0.004 h 0.53125 l 0.26953,-0.004 h 0.27343 l 0.27735,-0.004 h 0.57031 l 0.29297,-0.004 0.30078,-0.004 h 0.30469 l 0.30859,-0.004 0.32031,-0.004 h 0.32422 l 0.33203,-0.004 0.34375,-0.004 0.35157,-0.004 0.35937,-0.004 0.3711,-0.004 0.38671,-0.008 0.39454,-0.004 0.41015,-0.004 0.42188,-0.008 0.4414,-0.008 0.45313,-0.004 0.47656,-0.008 0.49219,-0.0117 0.51562,-0.008 0.53907,-0.008 0.5625,-0.0117 0.58984,-0.0117 0.62109,-0.0156 0.65235,-0.0117 0.6914,-0.0156 0.73047,-0.0195 0.77344,-0.0195 0.82031,-0.0195 0.875,-0.0234 0.9336,-0.0273 1,-0.0312 1.07421,-0.0352 1.15625,-0.0391 1.25391,-0.043 1.35547,-0.0547 1.47656,-0.0586 1.61719,-0.0664 1.76953,-0.082 1.94922,-0.0937 2.15625,-0.11328 2.39453,-0.13281 2.66797,-0.16016 2.98437,-0.19922 3.35157,-0.24219 3.76562,-0.29687 4.23828,-0.37891 4.7461,-0.47265 5.28125,-0.60157 5.78906,-0.76562 6.17969,-0.97266 6.32812,-1.21875 6.07422,-1.49219 5.30469,-1.75781 z m 0,0"
     id="path157" />
  <path
     fill="none"
     stroke-width="1.5"
     stroke-linecap="butt"
     stroke-linejoin="miter"
     stroke="#000000"
     stroke-opacity="1"
     stroke-miterlimit="2"
     d="m 374.58406,123.07815 2.37109,-2.48047 0.42578,-2.5039 -1.125,-2.42578 -2.13281,-2.30078 -2.65625,-2.16407 -2.82813,-2.04297 -2.78515,-1.9375 -2.63672,-1.85937 -2.44922,-1.79688 -2.25781,-1.75 -2.07813,-1.71093 -1.92578,-1.683596 -1.78906,-1.65625 -1.67578,-1.63281 -1.58594,-1.61719 -1.51172,-1.59375 -1.44922,-1.57812 -1.40625,-1.5586 -1.36719,-1.54296 -1.33593,-1.52735 -1.32032,-1.5039 -1.30078,-1.49219 -1.29687,-1.46875 -1.28906,-1.44922 -1.28516,-1.42969 -1.29297,-1.41015 -1.29297,-1.38672 -1.30469,-1.36719 -1.30859,-1.34375 -1.32031,-1.32031 -1.33203,-1.29688 -1.34375,-1.27344 -1.35938,-1.25 -1.36719,-1.22265 -1.38671,-1.19531 -1.39844,-1.16797 -1.41797,-1.14453 -1.42969,-1.11329 -1.4414,-1.08984 -1.46094,-1.05859 -1.47266,-1.02735 -1.49219,-1 -1.5,-0.97265 -1.51953,-0.9375 -1.53125,-0.91016 -1.54297,-0.87891 -1.55859,-0.84765 -1.57031,-0.81641 -1.58203,-0.78125 -1.59375,-0.7539 -1.60547,-0.71875 -1.61328,-0.6836 -1.62891,-0.65234 -1.63281,-0.6211 -1.64453,-0.58593 -1.65235,-0.55469 -1.66015,-0.51953 -1.66797,-0.48828 -1.67188,-0.44922 -1.67968,-0.42188 -1.6836,-0.38281 -1.6875,-0.35156 -1.69531,-0.31641 -1.69531,-0.28125 -1.69922,-0.24609 -1.69922,-0.21485 -1.70313,-0.17968 -1.70312,-0.14844 -1.70313,-0.11328 -1.69921,-0.0781 -1.70313,-0.043 -1.69922,-0.0117 -1.69531,0.0195 -1.69531,0.0547 -1.69141,0.0898 -1.68359,0.12109 -1.6836,0.15235 -1.67578,0.1875 -1.66797,0.21875 -1.66406,0.25 -1.65625,0.28125 -1.64844,0.3125 -1.64062,0.34375 -1.63281,0.3789 -1.625,0.40625 -1.61329,0.4336 -1.60156,0.46875 -1.59375,0.49609 -1.58203,0.52734 -1.57422,0.55469 -1.55859,0.58203 -1.54688,0.60938 -1.53515,0.64062 -1.52344,0.66797 -1.50781,0.69141 -1.4961,0.72265 -1.48437,0.7461 -1.46875,0.77343 -1.45313,0.79688 -1.4414,0.82422 -1.42578,0.84765 -1.41016,0.875 -1.39844,0.89454 -1.38281,0.91796 -1.36719,0.94141 -1.35547,0.96484 -1.33984,0.98829 -1.32422,1.00781 -1.30859,1.02734 -1.29688,1.05078 -1.28515,1.07032 -1.26954,1.08593 -1.26171,1.10938 -1.2461,1.125 -1.23437,1.14453 -1.22657,1.16406 -1.21484,1.17969 -1.20703,1.19531 -1.20313,1.21094 -1.19531,1.23047 -1.19531,1.24219 -1.19141,1.25781 -1.19531,1.27344 -1.19531,1.28906 -1.20703,1.29687 -1.21875,1.31641 -1.23047,1.32422 -1.25391,1.33984 -1.28125,1.35156 -1.3164,1.36719 -1.35938,1.375 -1.41016,1.39063 -1.47265,1.40234 -1.55469,1.41797 -1.64844,1.42969 -1.75781,1.44922 -1.89453,1.46875 -2.05078,1.492176 -2.23828,1.52344 -2.44141,1.55859 -2.67578,1.60547 -2.91016,1.66797 -3.1289,1.75 -3.26563,1.85156 -3.23828,1.98438 -2.92187,2.13281 -2.14844,2.29297 -0.83203,2.41797 1.0039,2.46484 3.08594,2.40625 5.00781,2.21094 6.40625,1.93359 7.13282,1.61719 7.27343,1.3086 7,1.03906 6.4961,0.8164 5.90234,0.64844 5.29688,0.50781 4.72656,0.40625 4.20703,0.32422 3.75,0.26563 3.35156,0.21484 3.00391,0.17969 2.69922,0.14844 2.4414,0.125 2.21094,0.10547 2.01172,0.0937 1.83984,0.0781 1.6875,0.0664 1.55078,0.0586 1.4375,0.0508 1.32813,0.043 1.23828,0.0391 1.15234,0.0391 1.07813,0.0312 1.01172,0.0273 0.94922,0.0234 0.89843,0.0234 0.84375,0.0195 0.80469,0.0195 0.75781,0.0156 0.72266,0.0156 0.69141,0.0156 0.65625,0.0117 0.6289,0.0117 0.60157,0.0117 0.57812,0.0117 0.55469,0.008 0.53515,0.008 0.51563,0.008 0.5,0.008 0.48047,0.008 0.46484,0.004 0.45313,0.008 0.4375,0.004 0.42578,0.004 0.41406,0.008 0.40234,0.004 0.39454,0.004 0.38281,0.004 0.3789,0.004 h 0.36719 l 0.35938,0.004 0.35156,0.004 0.34766,0.004 h 0.33984 l 0.33594,0.004 h 0.33203 l 0.32422,0.004 h 0.32031 l 0.32031,0.004 h 0.3125 l 0.3086,0.004 h 0.91406 l 0.29687,0.004 h 4.71875 l 0.30078,-0.004 h 0.61329 l 0.3125,-0.004 h 0.63671 l 0.32032,-0.004 h 0.32812 l 0.33594,-0.004 h 0.33594 l 0.34375,-0.004 0.35156,-0.004 h 0.35547 l 0.36328,-0.004 0.375,-0.004 0.37891,-0.004 0.39062,-0.004 0.39844,-0.004 0.40625,-0.004 0.42187,-0.004 0.4336,-0.004 0.44531,-0.008 0.45703,-0.004 0.47266,-0.008 0.48828,-0.008 0.50781,-0.008 0.52734,-0.008 0.54297,-0.008 0.56641,-0.008 0.59375,-0.0117 0.61328,-0.0117 0.64453,-0.0117 0.67188,-0.0117 0.70703,-0.0156 0.74219,-0.0156 0.78125,-0.0156 0.82421,-0.0195 0.875,-0.0234 0.92188,-0.0234 0.98437,-0.0234 1.04297,-0.0312 1.11719,-0.0312 1.19531,-0.0391 1.28516,-0.0391 1.38281,-0.0469 1.4961,-0.0547 1.62109,-0.0625 1.76172,-0.0703 1.92969,-0.0859 2.11328,-0.0977 2.32812,-0.11328 2.57031,-0.13281 2.85547,-0.16407 3.1836,-0.19531 3.55468,-0.23828 3.98829,-0.28906 4.48046,-0.36328 5.03125,-0.45313 5.63282,-0.57031 6.25,-0.72266 6.82812,-0.92187 7.25781,-1.16797 7.38282,-1.46094 7.0039,-1.77734 5.99219,-2.09375 z m 0,0"
     id="path158" />
  <path
     fill="none"
     stroke-width="1.5"
     stroke-linecap="butt"
     stroke-linejoin="miter"
     stroke="#000000"
     stroke-opacity="1"
     stroke-miterlimit="2"
     d="m 392.16999,123.07815 2.30078,-2.84765 -0.0117,-2.85157 -1.84375,-2.74218 -3.01172,-2.57032 -3.58594,-2.39453 -3.73828,-2.23437 -3.63281,-2.10547 -3.41016,-2.00391 -3.13672,-1.92578 -2.86719,-1.867186 -2.61718,-1.82421 -2.40235,-1.78516 -2.21484,-1.75391 -2.05469,-1.73047 -1.92578,-1.71093 -1.82031,-1.6875 -1.73438,-1.66797 -1.66015,-1.64844 -1.60547,-1.63281 -1.5586,-1.61328 -1.52343,-1.59375 -1.4961,-1.57422 -1.48047,-1.55469 -1.46093,-1.53516 -1.45704,-1.51562 -1.44921,-1.49219 -1.44532,-1.46875 -1.45312,-1.44922 -1.45313,-1.42187 -1.46093,-1.39844 -1.46875,-1.375 -1.47657,-1.35156 -1.49218,-1.32422 -1.5,-1.29688 -1.51172,-1.26953 -1.52735,-1.24218 -1.53906,-1.21485 -1.55469,-1.18359 -1.5664,-1.15625 -1.58203,-1.125 -1.59766,-1.09375 -1.60938,-1.06641 -1.625,-1.03125 -1.64062,-1.0039 -1.65234,-0.96875 -1.66407,-0.9336 -1.67968,-0.90625 -1.69141,-0.87109 -1.70313,-0.83594 -1.71484,-0.80078 -1.72656,-0.76953 -1.73828,-0.73438 -1.7461,-0.69922 -1.75781,-0.66406 -1.76953,-0.6289 -1.77344,-0.59375 -1.78125,-0.5586 -1.79297,-0.52344 -1.79687,-0.48828 -1.80469,-0.44922 -1.80859,-0.41796 -1.8125,-0.37891 -1.81641,-0.34375 -1.82422,-0.30469 -1.82422,-0.27344 -1.82422,-0.23437 -1.82812,-0.19922 -1.82813,-0.16406 -1.83203,-0.12891 -1.82812,-0.0898 -1.82813,-0.0547 -1.82422,-0.0234 -1.82421,0.0156 -1.82032,0.0508 -1.82031,0.0859 -1.8125,0.12109 -1.80859,0.15625 -1.80469,0.1875 -1.79688,0.22656 -1.78906,0.25782 -1.78515,0.29296 -1.77735,0.32422 -1.76953,0.35938 -1.75781,0.39062 -1.75,0.42578 -1.74219,0.45704 -1.73047,0.48828 -1.71875,0.51953 -1.71094,0.55469 -1.69921,0.58203 -1.6836,0.61328 -1.67578,0.64453 -1.66016,0.67578 -1.64843,0.70313 -1.63672,0.73046 -1.6211,0.76172 -1.60937,0.78907 -1.59375,0.8164 -1.58203,0.84766 -1.5625,0.87109 -1.55469,0.89453 -1.53516,0.92578 -1.52343,0.94922 -1.50782,0.97266 -1.49609,1 -1.47656,1.02344 -1.46485,1.04687 -1.45312,1.06641 -1.4375,1.09375 -1.42578,1.11328 -1.41406,1.13672 -1.39844,1.15625 -1.39063,1.17578 -1.3789,1.19922 -1.36719,1.21484 -1.35938,1.23828 -1.35546,1.25391 -1.34766,1.27344 -1.34375,1.28906 -1.34375,1.30469 -1.33984,1.32422 -1.34766,1.33984 -1.35156,1.35547 -1.36328,1.36719 -1.375,1.38671 -1.39454,1.39844 -1.42187,1.41406 -1.44922,1.42579 -1.49219,1.4414 -1.53515,1.45313 -1.59766,1.46484 -1.66797,1.48047 -1.7539,1.49609 -1.85938,1.51172 -1.98047,1.53125 -2.1289,1.54688 -2.30469,1.57031 -2.51172,1.59766 -2.75,1.63671 -3.02344,1.675786 -3.32422,1.73437 -3.63672,1.8125 -3.92968,1.91406 -4.13282,2.03907 -4.14843,2.20312 -3.80469,2.39453 -2.93359,2.58985 -1.38672,2.7539 0.77734,2.83594 3.25391,2.77344 5.55859,2.5664 7.25,2.2461 8.15625,1.88281 8.36328,1.52344 8.07422,1.21484 7.51563,0.95313 6.83203,0.7539 6.14453,0.59766 5.48047,0.47265 4.89062,0.38282 4.35547,0.30859 3.89453,0.25391 3.49219,0.21093 3.14062,0.17188 2.83594,0.14844 2.57422,0.12109 2.33984,0.10938 2.14063,0.0898 1.96484,0.0781 1.80469,0.0664 1.67188,0.0625 1.54687,0.0508 1.4375,0.0469 1.34375,0.043 1.25391,0.0351 1.17968,0.0352 1.10547,0.0273 1.04297,0.0274 0.98828,0.0234 0.9336,0.0234 0.88281,0.0195 0.84375,0.0156 0.80078,0.0156 0.76563,0.0156 0.73437,0.0156 0.69922,0.0117 0.67187,0.0117 0.64844,0.0117 0.6211,0.008 0.60156,0.0117 0.57812,0.008 0.5625,0.008 0.53907,0.008 0.52734,0.008 0.51172,0.004 0.49609,0.008 0.48047,0.004 0.46875,0.004 0.46094,0.008 0.44531,0.004 0.4375,0.004 0.42969,0.004 0.41797,0.004 h 0.41406 l 0.40234,0.004 0.39844,0.004 0.39063,0.004 h 0.38281 l 0.3789,0.004 h 0.375 l 0.36719,0.004 h 0.36719 l 0.35937,0.004 h 0.71094 l 0.35156,0.004 h 1.04297 l 0.34375,0.004 h 3.06641 l 0.34375,-0.004 h 1.39844 l 0.35547,-0.004 h 0.35937 l 0.36328,-0.004 h 0.73828 l 0.375,-0.004 0.38282,-0.004 h 0.38671 l 0.39454,-0.004 0.39843,-0.004 h 0.41016 l 0.41406,-0.004 0.42578,-0.004 0.4336,-0.004 0.4414,-0.004 0.45313,-0.004 0.46484,-0.004 0.47656,-0.008 0.48829,-0.004 0.5039,-0.008 0.51563,-0.004 0.53515,-0.008 0.55078,-0.008 0.57032,-0.008 0.58984,-0.008 0.61328,-0.0117 0.63281,-0.008 0.66016,-0.0117 0.6875,-0.0117 0.71875,-0.0117 0.74609,-0.0156 0.78516,-0.0156 0.82422,-0.0156 0.86328,-0.0195 0.91016,-0.0195 0.95703,-0.0234 1.01562,-0.0274 1.07422,-0.0273 1.14453,-0.0273 1.21485,-0.0352 1.30078,-0.0391 1.39062,-0.043 1.49219,-0.0508 1.60938,-0.0547 1.74218,-0.0625 1.88282,-0.0742 2.05468,-0.082 2.23828,-0.0977 2.46094,-0.11328 2.70313,-0.13672 2.98828,-0.15625 3.32031,-0.1914 3.69141,-0.22657 4.13281,-0.28125 4.62891,-0.33984 5.19531,-0.42578 5.82812,-0.52734 6.51563,-0.66797 7.21875,-0.84766 7.87109,-1.07812 8.33985,-1.35938 8.43359,-1.70312 7.93359,-2.06641 6.67969,-2.42578 z m 0,0"
     id="path159" />
  <path
     fill="none"
     stroke-width="1.5"
     stroke-linecap="butt"
     stroke-linejoin="miter"
     stroke="#000000"
     stroke-opacity="1"
     stroke-miterlimit="2"
     d="m 409.76374,123.07815 2.23047,-3.21484 -0.46094,-3.20313 -2.57421,-3.05078 -3.90235,-2.84375 -4.53515,-2.62109 -4.66797,-2.42578 -4.50391,-2.26563 -4.19922,-2.14453 -3.84375,-2.046866 -3.49219,-1.98047 -3.17187,-1.92188 -2.89063,-1.88281 -2.64843,-1.85156 -2.44922,-1.82031 -2.27344,-1.79297 -2.13672,-1.77344 -2.01953,-1.75391 -1.92187,-1.73047 -1.84766,-1.71484 -1.78125,-1.69531 -1.73438,-1.67188 -1.6914,-1.65625 -1.66406,-1.63281 -1.63672,-1.61328 -1.6211,-1.58984 -1.60937,-1.57032 -1.60156,-1.54687 -1.59766,-1.51953 -1.59766,-1.5 -1.59765,-1.47266 -1.60547,-1.44922 -1.60938,-1.41797 -1.61718,-1.39453 -1.62891,-1.36719 -1.63672,-1.33593 -1.65234,-1.3125 -1.66016,-1.27735 -1.67578,-1.25 -1.6875,-1.21875 -1.70313,-1.1875 -1.71484,-1.15625 -1.72656,-1.125 -1.74219,-1.08984 -1.75391,-1.05859 -1.76953,-1.02344 -1.78125,-0.98828 -1.79687,-0.95703 -1.8086,-0.92188 -1.82031,-0.88672 -1.83203,-0.84765 -1.83984,-0.81641 -1.85547,-0.77734 -1.86328,-0.74219 -1.875,-0.70703 -1.88282,-0.66797 -1.89453,-0.63281 -1.89843,-0.59375 -1.91016,-0.55469 -1.91406,-0.51953 -1.92188,-0.48438 -1.92578,-0.44531 -1.93359,-0.40625 -1.9375,-0.36719 -1.94141,-0.33203 -1.94141,-0.28906 -1.94531,-0.25781 -1.94922,-0.21485 -1.94922,-0.17969 -1.94921,-0.14062 -1.94922,-0.10547 -1.94922,-0.0664 -1.94531,-0.0273 -1.94532,0.008 -1.9414,0.0469 -1.94141,0.0859 -1.93359,0.11718 -1.92969,0.16016 -1.92188,0.19141 -1.92187,0.23046 -1.91016,0.26563 -1.90625,0.30078 -1.89843,0.33594 -1.88672,0.375 -1.88282,0.40625 -1.87109,0.4414 -1.85937,0.47657 -1.85157,0.51172 -1.84375,0.54296 -1.82812,0.57422 -1.82031,0.61328 -1.80469,0.64063 -1.79297,0.67578 -1.78516,0.70313 -1.76562,0.73828 -1.75781,0.76953 -1.74219,0.79687 -1.72656,0.82813 -1.71485,0.85937 -1.69922,0.88672 -1.6875,0.91797 -1.67187,0.94141 -1.65625,0.97265 -1.64063,1 -1.6289,1.02344 -1.61719,1.05078 -1.59766,1.07813 -1.58984,1.10156 -1.57031,1.12891 -1.5625,1.14843 -1.54688,1.17578 -1.53906,1.19532 -1.52344,1.22265 -1.51562,1.23828 -1.50782,1.26563 -1.5,1.28125 -1.49218,1.30469 -1.48438,1.32422 -1.48437,1.34375 -1.48438,1.35937 -1.48828,1.37891 -1.48828,1.39843 -1.49609,1.41407 -1.51172,1.42968 -1.52344,1.44532 -1.54688,1.46484 -1.57031,1.47656 -1.60937,1.49219 -1.64844,1.50781 -1.69922,1.51953 -1.76172,1.53516 -1.83984,1.55078 -1.92578,1.56641 -2.03907,1.58203 -2.16796,1.59766 -2.32032,1.61718 -2.5039,1.64063 -2.72657,1.66797 -2.97656,1.69531 -3.27734,1.73828 -3.61328,1.79297 -3.98828,1.859366 -4.37891,1.94922 -4.75391,2.06641 -5.02343,2.22266 -5.07032,2.41796 -4.71484,2.64844 -3.72656,2.89063 -1.96094,3.08984 0.53906,3.19922 3.41406,3.14453 6.09766,2.91797 8.08984,2.55859 9.17188,2.14844 9.44922,1.74219 9.14844,1.38672 8.52734,1.09765 7.76953,0.86328 6.98828,0.67969 6.24219,0.54297 5.56641,0.4375 4.96484,0.35547 4.4375,0.28906 3.98047,0.24219 3.58203,0.19922 3.23437,0.16797 2.9336,0.14062 2.66797,0.1211 2.4414,0.10546 2.24219,0.0899 2.0625,0.0781 1.90234,0.0664 1.76954,0.0625 1.64062,0.0547 1.53125,0.0469 1.43359,0.0391 1.34375,0.0391 1.26172,0.0351 1.19141,0.0274 1.125,0.0312 1.0625,0.0234 1.01172,0.0234 0.96094,0.0195 0.91796,0.0195 0.8711,0.0156 0.83594,0.0156 0.80078,0.0156 0.76953,0.0117 0.73828,0.0156 0.71094,0.008 0.68359,0.0117 0.66016,0.0117 0.64062,0.008 0.61719,0.008 0.60156,0.008 0.58203,0.008 0.56641,0.008 0.55078,0.004 0.53516,0.008 0.52343,0.004 0.51172,0.004 0.5,0.008 0.48828,0.004 0.48047,0.004 0.46875,0.004 0.46094,0.004 h 0.45313 l 0.44531,0.004 0.4375,0.004 0.43359,0.004 h 0.42578 l 0.42188,0.004 h 0.41797 l 0.41015,0.004 h 0.8125 l 0.40235,0.004 h 0.79297 l 0.39453,0.004 h 4.28515 l 0.39453,-0.004 h 1.19922 l 0.40625,-0.004 h 0.41016 l 0.41406,-0.004 h 0.42188 l 0.42187,-0.004 h 0.42969 l 0.4375,-0.004 0.44141,-0.004 0.44921,-0.004 h 0.45704 l 0.46484,-0.004 0.47656,-0.004 0.48047,-0.004 0.49609,-0.004 0.50391,-0.008 0.51953,-0.004 0.52735,-0.004 0.54296,-0.008 0.5586,-0.004 0.57422,-0.008 0.59375,-0.008 0.60937,-0.008 0.62891,-0.008 0.64844,-0.0117 0.67578,-0.008 0.69531,-0.0117 0.72656,-0.0117 0.75391,-0.0117 0.78125,-0.0156 0.82031,-0.0117 0.85547,-0.0195 0.89453,-0.0156 0.9375,-0.0195 0.98438,-0.0234 1.03906,-0.0234 1.09375,-0.0234 1.16015,-0.0312 1.22657,-0.0312 1.30078,-0.0351 1.39062,-0.0391 1.48047,-0.043 1.58594,-0.0508 1.70703,-0.0547 1.83203,-0.0664 1.98438,-0.0703 2.15234,-0.0859 2.33984,-0.0937 2.55469,-0.11328 2.80078,-0.12891 3.08594,-0.15625 3.40625,-0.17968 3.78125,-0.21875 4.20703,-0.26172 4.70313,-0.32031 5.26953,-0.39063 5.91015,-0.48437 6.62891,-0.60938 7.40234,-0.76562 8.19141,-0.96875 8.91406,-1.23438 9.41407,-1.55469 9.48828,-1.9414 8.86328,-2.35938 7.36328,-2.75781 z m 0,0"
     id="path160" />
  <path
     fill="none"
     stroke-width="1.5"
     stroke-linecap="butt"
     stroke-linejoin="miter"
     stroke="#000000"
     stroke-opacity="1"
     stroke-miterlimit="2"
     d="m 427.36921,123.07815 2.15235,-3.58203 -0.91797,-3.55078 -3.3125,-3.36719 -4.80469,-3.10937 -5.5,-2.84375 -5.61328,-2.61328 -5.38672,-2.42578 -5.00391,-2.277346 -4.5625,-2.16797 -4.13281,-2.08593 -3.73828,-2.02344 -3.39063,-1.97266 -3.09375,-1.9375 -2.84375,-1.90234 -2.63281,-1.87891 -2.45703,-1.85156 -2.3125,-1.83203 -2.19141,-1.8086 -2.08984,-1.78906 -2.00781,-1.76953 -1.94531,-1.75 -1.89063,-1.72656 -1.84766,-1.70703 -1.8125,-1.6875 -1.78906,-1.66407 -1.76562,-1.63671 -1.75391,-1.61719 -1.74609,-1.59375 -1.73828,-1.56641 -1.73829,-1.54297 -1.73828,-1.51172 -1.73828,-1.48828 -1.74609,-1.46093 -1.75391,-1.42969 -1.76172,-1.40235 -1.76953,-1.37109 -1.78125,-1.33984 -1.79297,-1.3125 -1.80468,-1.27735 -1.81641,-1.24609 -1.83203,-1.21094 -1.84375,-1.17969 -1.85547,-1.14453 -1.86719,-1.11328 -1.88281,-1.07422 -1.89453,-1.03906 -1.90625,-1.00781 -1.92188,-0.96875 -1.92968,-0.92969 -1.94532,-0.89453 -1.95703,-0.85938 -1.96484,-0.82031 -1.97656,-0.78125 -1.98829,-0.74219 -1.99609,-0.70703 -2.00391,-0.66406 -2.01562,-0.62891 -2.01953,-0.58984 -2.02735,-0.55078 -2.03515,-0.50781 -2.04297,-0.47266 -2.04297,-0.42969 -2.05078,-0.39453 -2.05469,-0.35156 -2.05859,-0.3125 -2.0625,-0.27344 -2.0625,-0.23437 -2.0625,-0.19141 -2.0625,-0.15625 -2.06641,-0.11328 -2.0625,-0.0742 -2.0625,-0.0391 -2.05859,0.004 -2.0586,0.043 -2.05468,0.082 -2.05078,0.1211 -2.04297,0.15625 -2.04297,0.19922 -2.03125,0.23437 -2.03125,0.27344 -2.01953,0.30859 -2.01172,0.34766 -2.00781,0.38672 -1.9961,0.42187 -1.98437,0.45703 -1.97657,0.4961 -1.96875,0.52734 -1.95703,0.56641 -1.94531,0.60156 -1.93359,0.63281 -1.92188,0.66797 -1.91015,0.70313 -1.89454,0.73828 -1.88671,0.76953 -1.86719,0.80078 -1.85938,0.83203 -1.84375,0.86719 -1.82812,0.89844 -1.81641,0.92578 -1.80078,0.95703 -1.78516,0.98828 -1.77343,1.01563 -1.75782,1.04296 -1.74609,1.07422 -1.73047,1.10157 -1.71875,1.1289 -1.70312,1.15235 -1.69141,1.17968 -1.67969,1.20703 -1.66797,1.23047 -1.65625,1.25391 -1.64843,1.27734 -1.64063,1.30469 -1.63281,1.32422 -1.625,1.34375 -1.62109,1.36719 -1.61719,1.39062 -1.6211,1.40625 -1.62109,1.42969 -1.625,1.44531 -1.63281,1.46485 -1.64844,1.48437 -1.66406,1.5 -1.6875,1.51953 -1.71485,1.53516 -1.7539,1.55078 -1.79297,1.56641 -1.84766,1.58203 -1.91015,1.59375 -1.98828,1.61328 -2.07813,1.6289 -2.19141,1.64454 -2.32421,1.66015 -2.48047,1.67969 -2.66797,1.70312 -2.88672,1.72657 -3.15234,1.7539 -3.45313,1.79297 -3.8125,1.83594 -4.21484,1.89844 -4.66797,1.97656 -5.13672,2.082026 -5.58594,2.21875 -5.92969,2.40234 -6.01171,2.62891 -5.632816,2.90234 -4.53906,3.1836 -2.54687,3.42969 0.28906,3.5625 3.5625,3.51171 6.63672,3.26954 8.921866,2.875 10.1875,2.41406 10.53125,1.96094 10.22266,1.5625 9.54297,1.23046 8.70312,0.97266 7.83203,0.76953 7,0.61328 6.2461,0.49219 5.57422,0.39844 4.98046,0.32812 4.46875,0.26953 4.02344,0.22657 3.63281,0.1875 3.29297,0.16015 3,0.13672 2.7461,0.11719 2.51562,0.10156 2.31641,0.0899 2.14062,0.0781 1.98438,0.0664 1.84375,0.0625 1.72265,0.0508 1.60938,0.0469 1.51172,0.043 1.41797,0.0391 1.33984,0.0352 1.26172,0.0312 1.19922,0.0273 1.13281,0.0234 1.08203,0.0234 1.02735,0.0234 0.98437,0.0195 0.9375,0.0156 0.90234,0.0156 0.86329,0.0156 0.82812,0.0156 0.79688,0.0117 0.76953,0.0117 0.74609,0.0117 0.71875,0.0117 0.69531,0.008 0.67188,0.008 0.65625,0.008 0.63672,0.008 0.61718,0.008 0.60547,0.008 0.58594,0.004 0.57422,0.008 0.5625,0.004 0.55078,0.004 0.53516,0.008 0.53125,0.004 0.51562,0.004 0.51172,0.004 h 0.5 l 0.49219,0.004 0.48828,0.004 0.47656,0.004 h 0.47656 l 0.46485,0.004 h 0.46484 l 0.45703,0.004 h 0.45703 l 0.44922,0.004 h 1.33594 l 0.44141,0.004 h 4.3789 l 0.44141,-0.004 h 0.89453 l 0.45313,-0.004 h 0.45703 l 0.46093,-0.004 h 0.46485 l 0.47265,-0.004 h 0.47657 l 0.48047,-0.004 0.49218,-0.004 0.4961,-0.004 0.5039,-0.004 h 0.51563 l 0.52344,-0.004 0.53125,-0.008 0.54296,-0.004 0.5586,-0.004 0.5664,-0.004 0.58204,-0.008 0.59375,-0.004 0.61328,-0.008 0.625,-0.008 0.64843,-0.008 0.66407,-0.008 0.68359,-0.008 0.70703,-0.0117 0.73047,-0.0117 0.75781,-0.008 0.78516,-0.0156 0.8125,-0.0117 0.84766,-0.0156 0.8789,-0.0156 0.92188,-0.0156 0.96093,-0.0195 1.00391,-0.0195 1.05469,-0.0195 1.10937,-0.0234 1.16407,-0.0274 1.23046,-0.0312 1.30079,-0.0312 1.3789,-0.0351 1.46485,-0.0391 1.55859,-0.0469 1.66797,-0.0508 1.78125,-0.0547 1.91406,-0.0625 2.0625,-0.0742 2.22656,-0.082 2.41797,-0.0937 2.62891,-0.10938 2.87109,-0.125 3.14453,-0.14843 3.46094,-0.17188 3.82813,-0.20703 4.24218,-0.24609 4.72266,-0.29297 5.27734,-0.36328 5.91016,-0.44141 6.625,-0.54687 7.42969,-0.6836 8.28906,-0.86328 9.16406,-1.09375 9.95313,-1.38672 10.5,-1.7539 10.53906,-2.1836 9.78906,-2.64844 8.04688,-3.09375 z m 0,0"
     id="path161" />
  <path
     fill="none"
     stroke-width="1.5"
     stroke-linecap="butt"
     stroke-linejoin="miter"
     stroke="#000000"
     stroke-opacity="1"
     stroke-miterlimit="2"
     d="m 444.97859,123.07815 2.07031,-3.95312 -1.375,-3.89453 -4.05859,-3.67969 -5.71875,-3.375 -6.47266,-3.07031 -6.56641,-2.80078 -6.28515,-2.578126 -5.82032,-2.41406 -5.29687,-2.28125 -4.78125,-2.1875 -4.3125,-2.11719 -3.90625,-2.05859 -3.54688,-2.01953 -3.24609,-1.98047 -2.99609,-1.95313 -2.78516,-1.92969 -2.60547,-1.90234 -2.46094,-1.88281 -2.33984,-1.86328 -2.23828,-1.83985 -2.16016,-1.8164 -2.08593,-1.79688 -2.03516,-1.77734 -1.99219,-1.75391 -1.95312,-1.73047 -1.92578,-1.70703 -1.90625,-1.68359 -1.89063,-1.65625 -1.88281,-1.63281 -1.8711,-1.60547 -1.87109,-1.57813 -1.87109,-1.55078 -1.8711,-1.51953 -1.875,-1.49219 -1.88281,-1.46094 -1.89062,-1.42968 -1.89844,-1.40235 -1.91016,-1.36328 -1.91797,-1.33594 -1.92968,-1.30078 -1.94141,-1.26562 -1.95703,-1.23047 -1.96485,-1.19531 -1.98046,-1.16016 -1.99219,-1.125 -2.00391,-1.08984 -2.01562,-1.05078 -2.03125,-1.01172 -2.03907,-0.97657 -2.05468,-0.93359 -2.0625,-0.89844 -2.07422,-0.85937 -2.08594,-0.82031 -2.09766,-0.78125 -2.10546,-0.73829 -2.11329,-0.69921 -2.12109,-0.66016 -2.12891,-0.62109 -2.14062,-0.57813 -2.14453,-0.53516 -2.14844,-0.49609 -2.15625,-0.45703 -2.16016,-0.41406 -2.16406,-0.3711 -2.16797,-0.33203 -2.17187,-0.28906 -2.17188,-0.25 -2.17187,-0.20703 -2.17578,-0.16797 -2.17578,-0.125 -2.17579,-0.082 -2.17187,-0.043 h -2.17188 l -2.16796,0.0391 -2.16407,0.0781 -2.16015,0.12109 -2.15625,0.16016 -2.15235,0.19922 -2.14453,0.23828 -2.14062,0.28125 -2.13282,0.32031 -2.125,0.35547 -2.11328,0.39844 -2.10937,0.43359 -2.09766,0.47266 -2.08984,0.51171 -2.07813,0.55079 -2.0664,0.58593 -2.0586,0.6211 -2.04297,0.65625 -2.03125,0.69531 -2.02343,0.73047 -2.00782,0.76562 -1.99218,0.79688 -1.98438,0.83594 -1.96484,0.86718 -1.95703,0.89844 -1.9375,0.93359 -1.92969,0.96485 -1.91016,0.99609 -1.89843,1.02735 -1.88672,1.05859 -1.8711,1.08984 -1.85547,1.11719 -1.84375,1.14844 -1.83203,1.17578 -1.82031,1.20312 -1.80469,1.23047 -1.79687,1.25782 -1.78516,1.28125 -1.77344,1.30859 -1.76953,1.33594 -1.75781,1.35937 -1.75391,1.37891 -1.75,1.40625 -1.75,1.42578 -1.74609,1.44922 -1.75,1.46875 -1.75781,1.49219 -1.76563,1.51171 -1.78125,1.53125 -1.79687,1.54688 -1.81641,1.56641 -1.85156,1.58593 -1.88281,1.60157 -1.92969,1.62109 -1.98047,1.63281 -2.04687,1.65235 -2.1211,1.66796 -2.21484,1.6836 -2.32813,1.70312 -2.45312,1.71875 -2.61328,1.73438 -2.80078,1.75781 -3.01563,1.77734 -3.27734,1.8086 -3.58203,1.83984 -3.9375,1.87891 -4.35547,1.92969 -4.82813,2 -5.35156,2.08984 -5.90625,2.21094 -6.4375,2.371086 -6.843746,2.57813 -6.96484,2.83984 -6.56641,3.14844 -5.35937,3.48047 -3.14063,3.76171 0.0312,3.92579 3.70703,3.88281 7.16406,3.62109 9.75391,3.1875 11.199216,2.6836 11.61328,2.17578 11.29687,1.73828 10.55469,1.37109 9.63672,1.08203 8.67578,0.85547 7.76172,0.6836 6.92188,0.54687 6.18359,0.44531 5.52734,0.36328 4.95703,0.30079 4.46094,0.25 4.03125,0.21093 3.65625,0.17969 3.33203,0.15234 3.04297,0.12891 2.79297,0.11328 2.57422,0.10156 2.375,0.0859 2.20312,0.0742 2.05079,0.0664 1.91015,0.0586 1.78516,0.0547 1.67969,0.0469 1.57421,0.043 1.48438,0.0391 1.40625,0.0312 1.32812,0.0312 1.26172,0.0312 1.19922,0.0234 1.14063,0.0234 1.09375,0.0234 1.04297,0.0195 0.99609,0.0195 0.96094,0.0156 0.92187,0.0156 0.88672,0.0117 0.85156,0.0156 0.82813,0.0117 0.79687,0.0117 0.77344,0.0117 0.74609,0.008 0.72657,0.008 0.70703,0.008 0.6875,0.008 0.67187,0.008 0.65235,0.008 0.63672,0.008 0.625,0.004 0.60937,0.008 0.59766,0.004 0.58593,0.004 0.57422,0.004 0.56641,0.004 0.55859,0.004 0.54688,0.004 0.53906,0.004 0.53125,0.004 h 0.52734 l 0.51954,0.004 0.51562,0.004 h 0.50781 l 0.50391,0.004 h 1 l 0.49219,0.004 h 1.46875 l 0.48437,0.004 h 2.42578 l 0.48438,-0.004 h 1.47265 l 0.4961,-0.004 h 1 l 0.50781,-0.004 h 0.51172 l 0.51562,-0.004 0.52344,-0.004 h 0.53125 l 0.53516,-0.004 0.54297,-0.004 0.55078,-0.004 0.5625,-0.004 0.57031,-0.004 0.58203,-0.004 0.58985,-0.004 0.60546,-0.008 0.61719,-0.004 0.62891,-0.008 0.64453,-0.004 0.66406,-0.008 0.67578,-0.008 0.69922,-0.008 0.71485,-0.008 0.73828,-0.0117 0.76172,-0.008 0.78515,-0.0117 0.8125,-0.0117 0.83985,-0.0117 0.87109,-0.0117 0.90234,-0.0156 0.94141,-0.0156 0.97656,-0.0195 1.02344,-0.0195 1.06641,-0.0195 1.11328,-0.0234 1.17187,-0.0234 1.23047,-0.0273 1.29297,-0.0274 1.36719,-0.0351 1.44531,-0.0352 1.53125,-0.0391 1.625,-0.043 1.73047,-0.0508 1.84765,-0.0547 1.98047,-0.0625 2.125,-0.0742 2.28907,-0.0781 2.47265,-0.0937 2.67969,-0.10547 2.91797,-0.1211 3.1875,-0.14062 3.48828,-0.16406 3.84375,-0.19141 4.24219,-0.23047 4.70703,-0.27344 5.23828,-0.32812 5.85156,-0.40235 6.55078,-0.49218 7.34375,-0.60938 8.22657,-0.76172 9.17578,-0.96093 10.13672,-1.21485 11,-1.54297 11.57812,-1.94922 11.58984,-2.42578 10.71875,-2.9414 8.72657,-3.42578 z m 0,0"
     id="path162" />
  <path
     fill="none"
     stroke-width="1.5"
     stroke-linecap="butt"
     stroke-linejoin="miter"
     stroke="#000000"
     stroke-opacity="1"
     stroke-miterlimit="2"
     d="m 462.58796,123.07815 1.99219,-4.32031 -1.84375,-4.24609 -4.80859,-3.98828 -6.64063,-3.64454 -7.44531,-3.29296 -7.53516,-2.98047 -7.1914,-2.734376 -6.64844,-2.53906 -6.03516,-2.39453 -5.44531,-2.28906 -4.89844,-2.20704 -4.41797,-2.14062 -4.01172,-2.09766 -3.65625,-2.05859 -3.36328,-2.02344 -3.11718,-2 -2.90625,-1.97265 -2.73438,-1.94922 -2.59375,-1.92969 -2.46875,-1.90625 -2.37109,-1.88281 -2.29297,-1.86328 -2.21875,-1.84375 -2.16797,-1.81641 -2.12109,-1.79297 -2.08985,-1.76953 -2.05859,-1.74609 -2.03516,-1.72266 -2.01953,-1.69141 -2.01172,-1.66406 -2,-1.64062 -1.99609,-1.60938 -2,-1.57812 -1.9961,-1.55079 -2.0039,-1.51562 -2.00781,-1.48828 -2.01172,-1.45313 -2.02344,-1.41797 -2.03125,-1.38671 -2.04297,-1.35157 -2.05469,-1.3164 -2.0625,-1.28125 -2.07422,-1.2461 -2.08593,-1.20703 -2.10157,-1.17187 -2.10937,-1.13282 -2.125,-1.09375 -2.13672,-1.05468 -2.14453,-1.01563 -2.16016,-0.97656 -2.16797,-0.93359 -2.17968,-0.89844 -2.19141,-0.85547 -2.20312,-0.8125 -2.21094,-0.77344 -2.21875,-0.73047 -2.22656,-0.6914 -2.23829,-0.64453 -2.24218,-0.60547 -2.25,-0.5625 -2.25391,-0.52344 -2.26172,-0.47656 -2.26953,-0.4336 -2.26953,-0.39062 -2.27344,-0.35156 -2.27734,-0.30469 -2.28125,-0.26563 -2.28125,-0.21875 -2.28125,-0.17968 -2.28125,-0.13282 -2.28125,-0.0937 -2.27735,-0.0469 -2.28125,-0.008 -2.27343,0.0352 -2.27344,0.0781 -2.26953,0.12109 -2.26172,0.16016 -2.25781,0.20312 -2.25391,0.2461 -2.24609,0.28515 -2.24219,0.32813 -2.23047,0.36718 -2.22266,0.41016 -2.21484,0.44531 -2.20703,0.48828 -2.19531,0.52735 -2.1875,0.5664 -2.17188,0.60547 -2.16406,0.64453 -2.15234,0.67969 -2.14063,0.71875 -2.12891,0.75391 -2.11328,0.79297 -2.10547,0.82812 -2.08593,0.86328 -2.07813,0.89844 -2.0625,0.93359 -2.04687,0.96485 -2.03516,1.0039 -2.01953,1.03125 -2.00781,1.06641 -1.99219,1.10156 -1.98047,1.12891 -1.96875,1.16016 -1.95312,1.1914 -1.94141,1.22266 -1.92969,1.25 -1.92187,1.27734 -1.90625,1.30469 -1.90235,1.33594 -1.89062,1.35937 -1.88281,1.38672 -1.87891,1.41016 -1.875,1.43359 -1.87109,1.46094 -1.875,1.48437 -1.875,1.50782 -1.88282,1.52734 -1.89062,1.55078 -1.90235,1.57031 -1.92187,1.58985 -1.94531,1.61328 -1.97266,1.6289 -2.01172,1.64844 -2.05078,1.66406 -2.10547,1.6836 -2.17187,1.70312 -2.24219,1.71485 -2.33594,1.73437 -2.44531,1.75391 -2.57422,1.76953 -2.72266,1.78516 -2.90625,1.80859 -3.11718,1.82812 -3.3711,1.85547 -3.66797,1.88282 -4.02343,1.91796 -4.42969,1.96485 -4.90625,2.01953 -5.44531,2.10156 -6.05078,2.19922 -6.683596,2.33594 -7.29297,2.51562 -7.76953,2.749996 -7.92968,3.04688 -7.50782,3.39844 -6.187498,3.77343 -3.742187,4.09766 -0.234375,4.28906 3.84375,4.25 7.6875,3.97266 10.58203,3.5039 12.20703,2.94532 12.695306,2.39843 12.36719,1.91407 11.57031,1.50781 10.57032,1.19141 9.51953,0.9414 8.51953,0.75391 7.60547,0.60547 6.78906,0.48828 6.07031,0.40234 5.44922,0.33203 4.90235,0.27344 4.42968,0.23438 4.01953,0.19531 3.66016,0.16797 3.34766,0.14453 3.07031,0.125 2.82812,0.10937 2.60938,0.0937 2.42187,0.082 2.25391,0.0742 2.10156,0.0664 1.96485,0.0586 1.84375,0.0508 1.73047,0.0469 1.63281,0.043 1.54297,0.0391 1.46484,0.0312 1.38672,0.0312 1.31641,0.0312 1.25781,0.0234 1.19922,0.0273 1.14453,0.0195 1.09765,0.0195 1.05469,0.0195 1.01563,0.0156 0.97265,0.0156 0.94141,0.0156 0.90625,0.0117 0.87891,0.0156 0.84765,0.0117 0.82422,0.008 0.80078,0.0117 0.77344,0.008 0.75781,0.008 0.73438,0.0117 0.71875,0.004 0.70312,0.008 0.6836,0.008 0.67187,0.004 0.65625,0.008 0.64453,0.004 0.63281,0.004 0.6211,0.008 0.61328,0.004 0.60156,0.004 0.59375,0.004 h 0.58594 l 0.57812,0.004 0.57032,0.004 h 0.5664 l 0.5625,0.004 0.55469,0.004 h 1.09766 l 0.54297,0.004 h 1.07812 l 0.53516,0.004 h 3.19922 l 0.53515,-0.004 h 1.61719 l 0.54297,-0.004 h 0.55078 l 0.55078,-0.004 h 0.55859 l 0.5625,-0.004 h 0.56641 l 0.57813,-0.004 0.58203,-0.004 0.58984,-0.004 0.59766,-0.004 0.60547,-0.004 0.61718,-0.004 0.625,-0.004 0.64063,-0.004 0.65234,-0.004 0.66406,-0.008 0.67579,-0.004 0.69531,-0.008 0.70703,-0.008 0.72656,-0.008 0.7461,-0.008 0.76953,-0.008 0.78515,-0.0117 0.8125,-0.008 0.83594,-0.0117 0.86328,-0.0117 0.89453,-0.0117 0.92188,-0.0156 0.95703,-0.0156 0.99219,-0.0156 1.03515,-0.0156 1.07422,-0.0195 1.125,-0.0234 1.17188,-0.0195 1.22656,-0.0273 1.28906,-0.0274 1.35156,-0.0273 1.42188,-0.0352 1.50391,-0.0351 1.58593,-0.0391 1.6836,-0.043 1.78906,-0.0508 1.90234,-0.0547 2.03125,-0.0625 2.17578,-0.0664 2.33594,-0.0781 2.51563,-0.0898 2.71875,-0.10156 2.94531,-0.11719 3.20703,-0.13281 3.5,-0.15235 3.83594,-0.18359 4.22265,-0.21094 4.66407,-0.2539 5.16797,-0.30078 5.7539,-0.36329 6.42578,-0.44531 7.19532,-0.53906 8.05859,-0.67188 9.02734,-0.84375 10.0625,-1.05468 11.10938,-1.33985 12.04297,-1.69922 12.66015,-2.14453 12.64063,-2.66797 11.64062,-3.23046 9.41016,-3.76172 z m 0,0"
     id="path163" />
  <path
     fill="none"
     stroke-width="1.5"
     stroke-linecap="butt"
     stroke-linejoin="miter"
     stroke="#000000"
     stroke-opacity="1"
     stroke-miterlimit="2"
     d="m 480.20515,123.07815 1.90625,-4.6875 -2.3125,-4.59375 -5.56641,-4.30078 -7.5625,-3.91015 -8.43359,-3.51172 -8.50781,-3.167966 -8.10938,-2.88281 -7.48047,-2.66797 -6.78515,-2.50391 -6.10938,-2.38281 -5.49219,-2.29297 -4.94531,-2.22656 -4.47656,-2.16797 -4.07422,-2.13281 -3.73828,-2.09375 -3.44922,-2.0625 -3.21484,-2.03907 -3.01172,-2.01562 -2.84375,-1.99219 -2.70313,-1.96875 -2.58984,-1.94922 -2.49219,-1.92187 -2.41015,-1.90235 -2.34375,-1.8789 -2.28907,-1.85547 -2.24609,-1.83203 -2.21094,-1.80469 -2.18359,-1.77734 -2.16016,-1.75 -2.14453,-1.72266 -2.13281,-1.69531 -2.125,-1.66407 -2.1211,-1.63671 -2.12109,-1.60157 -2.12109,-1.57422 -2.1211,-1.53515 -2.1289,-1.50781 -2.13672,-1.47266 -2.14063,-1.43359 -2.15234,-1.40235 -2.16016,-1.36328 -2.17187,-1.32812 -2.1836,-1.29297 -2.1914,-1.25 -2.20313,-1.21485 -2.21875,-1.17578 -2.22656,-1.13281 -2.23828,-1.09766 -2.25,-1.05468 -2.26172,-1.01563 -2.27344,-0.97266 -2.28125,-0.92968 -2.29687,-0.89063 -2.30078,-0.84375 -2.31641,-0.80469 -2.32031,-0.76171 -2.33203,-0.71875 -2.33594,-0.67188 -2.34766,-0.63281 -2.35156,-0.58594 -2.35937,-0.54297 -2.36719,-0.5 -2.36719,-0.45312 -2.375,-0.41016 -2.375,-0.36719 -2.38281,-0.32031 -2.38281,-0.27734 -2.38282,-0.23438 -2.38672,-0.1875 -2.38281,-0.14453 -2.38672,-0.0977 -2.38281,-0.0547 -2.38281,-0.0117 -2.37891,0.0312 -2.3789,0.0742 -2.3711,0.12109 -2.36719,0.16406 -2.36328,0.20703 -2.35547,0.25 -2.35156,0.29297 -2.34375,0.33203 -2.33594,0.37891 -2.32812,0.41797 -2.32031,0.46094 -2.3086,0.5 -2.30078,0.54297 -2.28906,0.58593 -2.28125,0.6211 -2.26563,0.66406 -2.25781,0.70312 -2.24609,0.73829 -2.23047,0.78125 -2.21875,0.8164 -2.20703,0.85547 -2.19531,0.89453 -2.17969,0.92578 -2.16797,0.96485 -2.15234,1 -2.14063,1.03515 -2.125,1.07032 -2.11328,1.10156 -2.10156,1.13672 -2.08594,1.17187 -2.07422,1.19922 -2.0625,1.23438 -2.04687,1.26562 -2.03907,1.29297 -2.03125,1.32422 -2.01953,1.35156 -2.01172,1.38281 -2.0039,1.40625 -2,1.4375 -1.9961,1.46094 -1.99218,1.48828 -1.99219,1.51172 -1.9961,1.53906 -2.0039,1.5586 -2.01172,1.58593 -2.02344,1.60547 -2.04297,1.62891 -2.0625,1.64844 -2.09375,1.66797 -2.125,1.6875 -2.17187,1.71093 -2.21875,1.72657 -2.28516,1.74218 -2.35547,1.76563 -2.44922,1.77734 -2.54687,1.80078 -2.67578,1.8125 -2.82031,1.83594 -2.9961,1.85156 -3.19922,1.875 -3.4414,1.89844 -3.73047,1.92188 -4.06641,1.95703 -4.46094,1.99609 -4.92968,2.04297 -5.46094,2.10937 -6.074216,2.19532 -6.75391,2.30859 -7.46874,2.45703 -8.16016,2.66016 -8.70313,2.921866 -8.90234,3.25391 -8.457031,3.64453 -7.023438,4.0625 -4.355469,4.43359 -0.503906,4.64844 3.976563,4.6211 8.210937,4.32421 11.406254,3.82032 13.21875,3.21093 13.77343,2.61719 13.437496,2.08594 12.58594,1.64844 11.5,1.30078 10.36719,1.03125 9.27734,0.82031 8.28516,0.66016 7.39844,0.53515 6.61718,0.44141 5.9336,0.35937 5.34765,0.30469 4.82813,0.25391 4.38281,0.21484 3.98828,0.1836 3.64844,0.15625 3.34766,0.13671 3.08203,0.11719 2.85156,0.10547 2.64062,0.0898 2.45704,0.082 2.28906,0.0703 2.14062,0.0625 2.01172,0.0586 1.89063,0.0508 1.78125,0.0469 1.68359,0.0391 1.58984,0.0391 1.51563,0.0352 1.4375,0.0312 1.36719,0.0273 1.30859,0.0274 1.25,0.0234 1.19922,0.0195 1.14844,0.0234 1.10547,0.0156 1.0625,0.0195 1.02734,0.0156 0.98828,0.0156 0.95703,0.0117 0.92578,0.0117 0.89844,0.0117 0.87109,0.0117 0.84766,0.0117 0.82422,0.008 0.80469,0.008 0.78125,0.008 0.76562,0.008 0.7461,0.008 0.73437,0.008 0.71484,0.004 0.70313,0.008 0.69141,0.004 0.67968,0.004 0.66407,0.008 0.65625,0.004 0.64843,0.004 0.64063,0.004 h 0.6289 l 0.625,0.004 0.61719,0.004 h 0.60938 l 0.60547,0.004 0.60156,0.004 h 1.1875 l 0.58984,0.004 h 6.41797 l 0.58984,-0.004 h 0.59375 l 0.59766,-0.004 h 0.60156 l 0.60938,-0.004 h 0.61328 l 0.62109,-0.004 0.625,-0.004 0.63672,-0.004 0.64063,-0.004 0.65234,-0.004 0.66406,-0.004 0.67188,-0.004 0.68359,-0.004 0.69531,-0.008 0.71094,-0.004 0.72656,-0.008 0.73829,-0.004 0.7539,-0.008 0.77735,-0.008 0.79296,-0.008 0.8125,-0.0117 0.83594,-0.008 0.85938,-0.0117 0.88281,-0.0117 0.91406,-0.0117 0.94141,-0.0117 0.97265,-0.0156 1.00782,-0.0156 1.04297,-0.0156 1.08203,-0.0156 1.1289,-0.0195 1.17188,-0.0234 1.22656,-0.0195 1.27734,-0.0273 1.33985,-0.0274 1.40234,-0.0273 1.47656,-0.0312 1.55079,-0.0391 1.63671,-0.0391 1.73438,-0.043 1.83203,-0.0469 1.94922,-0.0547 2.07422,-0.0586 2.21875,-0.0664 2.37109,-0.0781 2.54688,-0.0859 2.74218,-0.0937 2.96485,-0.11328 3.21094,-0.125 3.49609,-0.14844 3.81641,-0.16797 4.17968,-0.19921 4.60157,-0.23047 5.08203,-0.27735 5.63672,-0.32812 6.26953,-0.39844 7,-0.48437 7.83593,-0.59375 8.77735,-0.73438 9.82812,-0.91797 10.95313,-1.15625 12.08203,-1.46094 13.08594,-1.85546 13.73828,-2.33985 13.6914,-2.91015 12.56641,-3.52344 10.08594,-4.09375 z m 0,0"
     id="path164" />
  <path
     fill="none"
     stroke-width="1.5"
     stroke-linecap="butt"
     stroke-linejoin="miter"
     stroke="#000000"
     stroke-opacity="1"
     stroke-miterlimit="2"
     d="m 497.82234,123.07815 1.8164,-5.05468 -2.78125,-4.94141 -6.32422,-4.60938 -8.49218,-4.17578 -9.42969,-3.73828 -9.48438,-3.347646 -9.02734,-3.03516 -8.32422,-2.79297 -7.54297,-2.60937 -6.78515,-2.47657 -6.08985,-2.3789 -5.47656,-2.30078 -4.94922,-2.24219 -4.49609,-2.19922 -4.11328,-2.16016 -3.78907,-2.1289 -3.51953,-2.10157 -3.29297,-2.07421 -3.10156,-2.05469 -2.9414,-2.02735 -2.80469,-2.00781 -2.69531,-1.98047 -2.60157,-1.96093 -2.52343,-1.9375 -2.45704,-1.91016 -2.40625,-1.88672 -2.36328,-1.86328 -2.32812,-1.83203 -2.30078,-1.8086 -2.28125,-1.77734 -2.26172,-1.75 -2.25391,-1.71484 -2.24219,-1.6875 -2.23828,-1.65625 -2.23828,-1.625 -2.23828,-1.58594 -2.24219,-1.55469 -2.24609,-1.52344 -2.25,-1.48046 -2.26172,-1.44922 -2.26562,-1.41016 -2.27735,-1.375 -2.28515,-1.33203 -2.29688,-1.29688 -2.30859,-1.2539 -2.32032,-1.21875 -2.32812,-1.17188 -2.33984,-1.13672 -2.35157,-1.08984 -2.36328,-1.05078 -2.375,-1.00781 -2.38281,-0.96485 -2.39453,-0.92187 -2.40625,-0.875 -2.41016,-0.83594 -2.42578,-0.78906 -2.42969,-0.7461 -2.4375,-0.69921 -2.44531,-0.6562506 -2.45312,-0.60938 -2.46094,-0.5625 -2.46485,-0.51953 -2.46875,-0.47266 -2.47656,-0.42968 -2.47656,-0.38282 -2.48047,-0.33593 -2.48437,-0.28907 -2.48438,-0.24609 -2.48437,-0.19531 -2.48829,-0.15625 -2.48437,-0.10547 -2.48438,-0.0625 -2.48437,-0.0156 -2.48047,0.0312 -2.47656,0.0742 -2.47266,0.1211 -2.46875,0.16406 -2.46484,0.21094 -2.45703,0.2539 -2.45313,0.29688 -2.44531,0.34375 -2.4375,0.38281 -2.42969,0.42969 -2.42187,0.47265 -2.41016,0.51563 -2.40234,0.55859 -2.39063,0.59766 -2.3789,0.6406206 -2.3711,0.6836 -2.35547,0.72265 -2.34765,0.76172 -2.33594,0.80469 -2.32031,0.83984 -2.3086,0.88282 -2.29297,0.91796 -2.28515,0.95704 -2.26953,0.99609 -2.25391,1.03125 -2.24219,1.06641 -2.23047,1.10546 -2.21484,1.13672 -2.20703,1.17578 -2.19141,1.20704 -2.17578,1.23828 -2.16797,1.27343 -2.15625,1.30469 -2.14843,1.33594 -2.13672,1.36719 -2.12891,1.39843 -2.12109,1.42579 -2.11719,1.45312 -2.11328,1.48438 -2.10938,1.51171 -2.10937,1.53516 -2.11328,1.5625 -2.11719,1.58984 -2.12891,1.61329 -2.14062,1.63671 -2.15625,1.66016 -2.17578,1.67969 -2.20703,1.70703 -2.23829,1.72266 -2.28125,1.74609 -2.33203,1.76562 -2.39062,1.78125 -2.46094,1.80469 -2.54297,1.82031 -2.64844,1.83985 -2.76562,1.85937 -2.90625,1.875 -3.07031,1.89844 -3.26563,1.91406 -3.5,1.9375 -3.76953,1.96094 -4.08984,1.99219 -4.46485,2.02734 -4.91015,2.06641 -5.429686,2.125 -6.02734,2.1914 -6.70703,2.28907 -7.46094,2.41015 -8.26172,2.57813 -9.03516,2.80078 -9.644529,3.08984 -9.878906,3.460936 -9.414063,3.89063 -7.867187,4.35546 -4.96875,4.76563 -0.777344,5.01172 4.105469,4.98828 8.730469,4.67578 12.222656,4.13281 14.226563,3.48047 14.851562,2.83594 14.50781,2.26172 13.597656,1.78906 12.43359,1.41016 11.21485,1.11718 10.03906,0.89063 8.96094,0.71875 8.00781,0.57812 7.16015,0.47657 6.42969,0.39453 5.78516,0.32812 5.23047,0.27344 4.74218,0.23438 4.32032,0.19921 3.95312,0.17188 3.625,0.14453 3.33594,0.12891 3.08594,0.11328 2.85937,0.0976 2.66016,0.0899 2.48047,0.0781 2.32031,0.0664 2.17578,0.0625 2.04688,0.0547 1.92968,0.0508 1.82422,0.0469 1.72656,0.0391 1.63672,0.0391 1.5586,0.0312 1.48437,0.0312 1.41406,0.0273 1.35547,0.0274 1.29688,0.0234 1.24609,0.0234 1.19531,0.0195 1.15235,0.0195 1.10937,0.0156 1.07422,0.0156 1.03516,0.0156 1.0039,0.0117 0.97266,0.0156 0.94531,0.0117 0.91797,0.008 0.89063,0.0117 0.87109,0.008 0.84766,0.0117 0.82812,0.008 0.8086,0.008 0.79296,0.008 0.77735,0.004 0.76172,0.008 0.74609,0.004 0.73438,0.008 0.72265,0.004 0.71485,0.004 0.69921,0.004 0.69141,0.004 0.68359,0.004 0.67579,0.004 0.66796,0.004 h 0.66016 l 0.65625,0.004 0.65234,0.004 h 1.28516 l 0.64063,0.004 h 1.89843 l 0.62891,0.004 h 1.88672 l 0.63281,-0.004 h 1.90234 l 0.64063,-0.004 h 0.64453 l 0.64453,-0.004 h 0.65625 l 0.65625,-0.004 0.66406,-0.004 h 0.67188 l 0.67969,-0.004 0.6875,-0.004 0.69531,-0.004 0.70703,-0.004 0.71875,-0.004 0.72656,-0.008 0.74219,-0.004 0.75391,-0.008 0.76953,-0.004 0.78515,-0.008 0.80079,-0.008 0.8164,-0.008 0.83985,-0.008 0.85937,-0.008 0.88281,-0.0117 0.90235,-0.008 0.93359,-0.0117 0.95703,-0.0117 0.98828,-0.0156 1.01953,-0.0117 1.05469,-0.0156 1.08985,-0.0195 1.1289,-0.0156 1.17578,-0.0195 1.21875,-0.0195 1.27344,-0.0234 1.32422,-0.0234 1.38672,-0.0273 1.44922,-0.0312 1.51953,-0.0312 1.59765,-0.0352 1.67969,-0.0391 1.77344,-0.043 1.87891,-0.0469 1.98437,-0.0508 2.10938,-0.0586 2.25,-0.0664 2.39843,-0.0742 2.57032,-0.082 2.75781,-0.0899 2.96875,-0.10547 3.21094,-0.12109 3.47656,-0.13672 3.78515,-0.16016 4.13282,-0.18359 4.52734,-0.21484 4.98047,-0.25391 5.50391,-0.29687 6.09765,-0.35938 6.78516,-0.42969 7.57812,-0.52734 8.47657,-0.64063 9.49609,-0.79687 10.62891,-0.99609 11.83984,-1.25391 13.05469,-1.58984 14.13281,-2.01172 14.81641,-2.53516 14.74218,-3.15234 13.48828,-3.8125 10.76172,-4.42969 z m 0,0"
     id="path165" />
  <path
     fill="none"
     stroke-width="1.5"
     stroke-linecap="butt"
     stroke-linejoin="miter"
     stroke="#000000"
     stroke-opacity="1"
     stroke-miterlimit="2"
     d="m 515.44343,123.07815 1.72656,-5.42187 -3.25781,-5.28906 -7.08984,-4.92188 -9.42188,-4.44141 -10.42578,-3.953116 -10.46875,-3.53125 -9.95312,-3.18359 -9.17188,-2.91797 -8.30859,-2.71485 -7.46485,-2.57031 -6.69531,-2.45703 -6.01172,-2.375 -5.42578,-2.3125 -4.92187,-2.26563 -4.49219,-2.22265 -4.13281,-2.19141 -3.83204,-2.16015 -3.57421,-2.13282 -3.35938,-2.11328 -3.17969,-2.08594 -3.02343,-2.0625 -2.90235,-2.03906 -2.78906,-2.01562 -2.70313,-1.99219 -2.6289,-1.96484 -2.56641,-1.94141 -2.51562,-1.91406 -2.47266,-1.88672 -2.44141,-1.85938 -2.41406,-1.83203 -2.39453,-1.80078 -2.375,-1.76953 -2.36719,-1.73438 -2.35937,-1.70703 -2.35156,-1.67187 -2.35547,-1.63672 -2.35157,-1.60156 -2.35546,-1.56641 -2.35938,-1.53125 -2.36719,-1.49219 -2.37109,-1.45312 -2.38281,-1.41797 -2.39063,-1.375 -2.39844,-1.33594 -2.41015,-1.29687 -2.41797,-1.25391 -2.42969,-1.21094 -2.4414,-1.17187 -2.44922,-1.12891 -2.46094,-1.08203 -2.47266,-1.04297 -2.48437,-0.99609 -2.49219,-0.95313 -2.50391,-0.9062506 -2.50781,-0.86328 -2.52344,-0.8164 -2.52734,-0.76954 -2.53516,-0.72656 -2.54687,-0.67578 -2.55078,-0.63281 -2.55469,-0.58594 -2.5625,-0.53906 -2.57031,-0.49219 -2.57031,-0.44531 -2.57813,-0.39453 -2.57812,-0.35157 -2.58204,-0.30468 -2.58203,-0.25391 -2.58203,-0.20703 -2.58594,-0.16406 -2.58593,-0.11328 -2.58203,-0.0664 -2.58204,-0.0195 -2.57812,0.0273 -2.57422,0.0742 -2.57422,0.11719 -2.5664,0.16797 -2.5625,0.21093 -2.5586,0.25782 -2.55078,0.30468 -2.54297,0.35157 -2.53515,0.39453 -2.52735,0.4375 -2.51953,0.48437 -2.51172,0.52735 -2.5,0.57031 -2.48828,0.61719 -2.48047,0.65625 -2.46875,0.69922 -2.45703,0.74609 -2.44531,0.78125 -2.4336,0.82812 -2.42187,0.86329 -2.40625,0.9062506 -2.39453,0.94531 -2.38281,0.98437 -2.3711,1.02344 -2.35547,1.0625 -2.34375,1.10156 -2.32812,1.13282 -2.32031,1.17187 -2.30469,1.21094 -2.29297,1.24219 -2.28125,1.27734 -2.27344,1.3125 -2.25781,1.34375 -2.25391,1.375 -2.24218,1.41016 -2.23829,1.4375 -2.23046,1.47265 -2.22657,1.4961 -2.22265,1.53125 -2.22266,1.55468 -2.22656,1.58594 -2.23438,1.60938 -2.23828,1.63671 -2.25,1.66407 -2.26953,1.6875 -2.28516,1.71093 -2.3164,1.73438 -2.34766,1.75391 -2.38281,1.77734 -2.43359,1.80078 -2.49219,1.82031 -2.5586,1.83594 -2.64062,1.85938 -2.73438,1.8789 -2.84765,1.89453 -2.98438,1.91797 -3.13672,1.9336 -3.32421,1.95312 -3.53907,1.97656 -3.79687,2 -4.09766,2.02344 -4.45703,2.05469 -4.87109,2.09375 -5.363276,2.14062 -5.9336,2.19532 -6.59375,2.27734 -7.34375,2.375 -8.17968,2.51562 -9.062505,2.69532 -9.910156,2.9414 -10.59375,3.25782 -10.863281,3.660146 -10.375,4.13672 -8.7148439,4.64453 -5.585938,5.10156 -1.06249997,5.3711 4.23437497,5.36328 9.2421879,5.02734 13.046875,4.44532 15.226562,3.75 15.933594,3.05078 15.57813,2.4375 14.60937,1.92968 13.367186,1.51954 12.05859,1.20703 10.79688,0.95703 9.64453,0.77344 8.61718,0.625 7.70704,0.51562 6.91796,0.42188 6.22657,0.35546 5.6289,0.29688 5.10547,0.25 4.65235,0.21484 4.2539,0.1836 3.90235,0.16015 3.59375,0.14063 3.32031,0.12109 3.08203,0.10547 2.86328,0.0937 2.67188,0.0859 2.49609,0.0742 2.34375,0.0664 2.20312,0.0586 2.07813,0.0547 1.96484,0.0469 1.85547,0.0469 1.76563,0.0391 1.67578,0.0351 1.59765,0.0352 1.52735,0.0312 1.45703,0.0273 1.39844,0.0234 1.33984,0.0234 1.28906,0.0234 1.23828,0.0195 1.19922,0.0195 1.15235,0.0156 1.11718,0.0156 1.07813,0.0156 1.04687,0.0117 1.01954,0.0156 0.98828,0.0117 0.96093,0.0117 0.9375,0.008 0.91016,0.0117 0.89453,0.008 0.8711,0.008 0.85546,0.008 0.83594,0.008 0.81641,0.004 0.80859,0.008 0.78906,0.008 0.77735,0.004 0.76562,0.004 0.75782,0.004 0.74218,0.004 0.73828,0.004 0.72657,0.004 0.71875,0.004 0.71093,0.004 h 0.70704 l 0.69921,0.004 h 0.69532 l 0.6914,0.004 h 0.6875 l 0.6836,0.004 h 6.11718 l 0.6836,-0.004 h 0.6914 l 0.69141,-0.004 h 0.69922 l 0.70312,-0.004 h 0.70704 l 0.71875,-0.004 0.72265,-0.004 0.73047,-0.004 0.74219,-0.004 0.75,-0.004 0.75781,-0.004 0.77344,-0.008 0.78515,-0.004 0.79688,-0.004 0.8125,-0.008 0.82812,-0.008 0.84375,-0.008 0.86329,-0.008 0.88281,-0.008 0.90234,-0.008 0.92578,-0.0117 0.94922,-0.008 0.97266,-0.0117 1.0039,-0.0117 1.03125,-0.0156 1.0625,-0.0117 1.09766,-0.0156 1.13672,-0.0195 1.17578,-0.0156 1.21484,-0.0195 1.26563,-0.0195 1.3125,-0.0234 1.37109,-0.0234 1.42578,-0.0274 1.49219,-0.0312 1.5625,-0.0312 1.63672,-0.0351 1.71875,-0.0352 1.80859,-0.043 1.91016,-0.0469 2.01953,-0.0508 2.14063,-0.0547 2.27343,-0.0625 2.41797,-0.0703 2.58203,-0.082 2.76563,-0.0859 2.97266,-0.10156 3.19531,-0.11329 3.45703,-0.1289 3.74219,-0.14844 4.07422,-0.17187 4.44921,-0.19922 4.875,-0.23047 5.35938,-0.27344 5.92187,-0.32031 6.56641,-0.38672 7.30078,-0.46484 8.15235,-0.56641 9.12109,-0.69531 10.21484,-0.85938 11.42969,-1.07422 12.72656,-1.35156 14.03125,-1.71094 15.17578,-2.16797 15.89454,-2.73437 15.78906,-3.39453 14.41406,-4.10547 11.4375,-4.76563 z m 0,0"
     id="path166" />
  <path
     fill="none"
     stroke-width="1.5"
     stroke-linecap="butt"
     stroke-linejoin="miter"
     stroke="#000000"
     stroke-opacity="1"
     stroke-miterlimit="2"
     d="m 298.10749,124.81643 c 39.62868,2.81075 79.3312,4.47416 118.9961,6.71874 12.47425,1.9095 25.49588,1.58226 38.17581,2.65764 10.66534,0.60268 21.33066,1.20555 31.99606,1.80721"
     id="path167" />
  <path
     fill="none"
     stroke-width="1.5"
     stroke-linecap="butt"
     stroke-linejoin="miter"
     stroke="#000000"
     stroke-opacity="1"
     stroke-miterlimit="2"
     d="m 289.15437,126.25393 1.60937,0.16797 1.15235,0.22266 3.19531,0.34375 1.09375,0.23437 1.58203,0.17579 1.58594,0.17578 1.58984,0.17578 1.58985,0.17187 1.58984,0.17578 0.97656,0.25782 1.57422,0.17578 3.14844,0.35937 1.57812,0.17969 1.57813,0.17578 3.15625,0.35938 1.58203,0.17968 1.57812,0.17969 1.58204,0.17969 1.58203,0.17578 6.32812,0.71875 1.58594,0.17969 1.58203,0.17969 1.58594,0.17968 1.58203,0.17969 1.58594,0.17969 0.57812,0.3164 1.56641,0.1836 1.57031,0.17969 4.69922,0.55078 1.57031,0.18359 1.56641,0.17969 3.14062,0.36719 1.56641,0.18359 1.57031,0.18359 1.57031,0.17969 9.42188,1.10156 1.57031,0.17969 1.57031,0.18359 1.57422,0.1836 3.14063,0.36719 1.57422,0.18359 1.57031,0.18359 1.57422,0.1836 1.57031,0.18359 3.14844,0.36719 1.57031,0.17969 3.14844,0.36718 1.57031,0.1836 17.31641,2.01953 1.57812,0.18359 3.14844,0.36719 1.57812,0.18359 3.14844,0.36719 1.57813,0.18359 1.57422,0.1836 1.57812,0.18359 1.57422,0.1836 1.57812,0.18359 1.57422,0.18359 1.57813,0.1836 1.57422,0.18359 3.15625,0.36719 1.57422,0.18359 3.15625,0.36719 1.57812,0.1875 1.57422,0.18359 3.15625,0.36719"
     id="path168" />
  <path
     fill="none"
     stroke-width="1.5"
     stroke-linecap="butt"
     stroke-linejoin="miter"
     stroke="#000000"
     stroke-opacity="1"
     stroke-miterlimit="2"
     d="m 278.69343,127.2344 1.10547,0.23047 0.84375,0.2461 0.82422,0.24609 1.08203,0.23047 0.80078,0.2539 1.07422,0.23047 1.07422,0.23438 0.75781,0.2539 4.26563,0.9375 0.69921,0.26172 1.05469,0.23828 2.11719,0.46875 1.05859,0.23829 1.0586,0.23437 1.05859,0.23828 1.0625,0.23438 0.60156,0.26953 2.10157,0.47656 1.04687,0.23828 1.05078,0.23438 7.35547,1.66797 1.05469,0.23828 2.10156,0.47656 1.05469,0.23828 1.05078,0.23828 1.05469,0.23828 1.05078,0.23828 2.10937,0.47657 1.05078,0.23828 1.05469,0.23828 0.34766,0.28906 1.04297,0.24219 2.08593,0.47656 1.04297,0.24219 1.04297,0.23828 1.04297,0.24219 1.04297,0.23828 1.04687,0.23828 1.04297,0.24219 2.08594,0.47656 1.04688,0.24219 1.04296,0.23828 1.04688,0.24219 1.04297,0.23828 1.04687,0.24219 1.04297,0.23828 1.04688,0.24218 1.04297,0.23829 1.04687,0.23828 1.04297,0.24218 1.04687,0.23829 1.04688,0.24218 1.04687,0.23828 1.04297,0.24219 1.04688,0.23828 2.09375,0.48438 1.04687,0.23828 1.04688,0.24219 1.04687,0.23828 1.04297,0.24219 1.04688,0.23828 1.04687,0.24218 1.05078,0.23829 2.09375,0.48437 1.04688,0.23828 1.04687,0.24219 1.04688,0.23828 2.09375,0.48438 1.05078,0.23828 1.04687,0.24218 1.04688,0.23829 1.05078,0.24218 1.04688,0.24219 1.04687,0.23828 1.05078,0.24219 1.04688,0.24219 1.04687,0.23828 1.05078,0.24219 1.04688,0.24218 1.05078,0.23828 1.04687,0.24219"
     id="path169" />
  <path
     fill="none"
     stroke-width="1.5"
     stroke-linecap="butt"
     stroke-linejoin="miter"
     stroke="#000000"
     stroke-opacity="1"
     stroke-miterlimit="2"
     d="m 267.38874,127.76565 0.23047,0.26953 0.34766,0.26954 0.26953,0.26953 0.32812,0.26953 0.38672,0.26953 0.3125,0.26953 0.375,0.26563 0.73438,0.53906 0.35937,0.26953 0.35547,0.26953 0.35156,0.26953 0.34766,0.27344 0.42969,0.26562 0.33984,0.27344 0.42969,0.26563 0.33203,0.27343 0.42578,0.26954 0.32422,0.26953 1.27734,0.80859 0.3086,0.27344 0.42578,0.26953 0.84375,0.53906 0.29687,0.27344 0.84375,0.53906 0.41797,0.26953 0.42188,0.26953 0.28515,0.27344 0.41797,0.27344 1.25391,0.80859 0.41797,0.27344 0.83594,0.53906 0.26171,0.27735 0.41407,0.26953 0.41797,0.26953 0.41406,0.27344 0.41797,0.26953 0.41406,0.26953 0.41797,0.27344 0.41406,0.26953 0.41797,0.26953 0.41406,0.27344 0.41797,0.26953 0.41797,0.27344 0.41406,0.26953 0.41797,0.27343 0.22266,0.27344 0.41406,0.27344 0.41406,0.26953 0.41406,0.27344 0.41407,0.26953 0.41406,0.27344 0.41406,0.26953 0.82813,0.54687 0.41406,0.26953 0.41406,0.27344 0.41406,0.26953 0.41407,0.27344 0.41406,0.26953 0.41406,0.27344 0.41797,0.27344 0.41406,0.26953 0.82813,0.54687 0.41406,0.26953 0.41797,0.27344 0.41406,0.27344 0.41406,0.26953 0.41407,0.27344 0.41797,0.27344 0.41406,0.26953 0.82812,0.54687 0.41797,0.26953 0.14063,0.28125 0.41406,0.27344 0.41406,0.26953 0.41016,0.27344 0.82812,0.54687 0.41016,0.26954 1.24219,0.82031 0.41015,0.27344 0.41407,0.26953 0.82812,0.54687 0.41016,0.27344 0.82812,0.54687"
     id="path170" />
  <path
     fill="none"
     stroke-width="1.5"
     stroke-linecap="butt"
     stroke-linejoin="miter"
     stroke="#000000"
     stroke-opacity="1"
     stroke-miterlimit="2"
     d="m 255.54109,127.8555 -0.75782,0.53906 -0.32812,0.26953 -0.34375,0.26953 -0.33203,0.26953 -0.3086,0.27344 -0.32031,0.26953 -0.33203,0.26953 -0.30078,0.27344 -0.26953,0.27344 -0.31641,0.26953 -0.27734,0.27344 -0.32422,0.26953 -0.28516,0.27344 -0.28906,0.27343 -0.24219,0.26953 -0.59375,0.54688 -0.30078,0.27344 -0.24609,0.27343 -0.30469,0.26954 -0.25,0.27343 -0.30859,0.27344 -0.5,0.54688 -0.32032,0.27343 -0.25,0.27344 -0.2539,0.27344 -0.32422,0.27344 -0.76172,0.82031 -0.33203,0.27344 -0.25391,0.27343 -0.25781,0.27735 -0.50781,0.54687 -0.25781,0.27344 -0.25391,0.27344 -0.34766,0.27343 -0.25781,0.27344 -0.25781,0.27735 -0.25781,0.27343 -0.25391,0.27344 -0.25781,0.27734 -0.77344,0.82032 -0.25781,0.27734 -0.36328,0.27344 -0.26172,0.27344 -0.25782,0.27343 -0.26171,0.27735 -0.51563,0.54687 -0.26172,0.27735 -0.25781,0.27343 -0.26172,0.27735 -0.51562,0.54687 -0.26172,0.27735 -0.25782,0.27343 -0.26171,0.27735 -0.25782,0.27343 -0.26172,0.27735 -0.25781,0.27344 -0.26172,0.27343 -0.25781,0.27735 -0.26172,0.27343 -0.25781,0.27735 -0.26172,0.27344 -0.25781,0.27734 -0.40625,0.27344 -0.26172,0.27343 -0.26172,0.27735 -0.26172,0.27344 -0.52344,0.55468 -0.26171,0.27344 -0.26172,0.27734 -0.26172,0.27344 -0.26172,0.27735 -0.26172,0.27343 -0.52344,0.55469 -0.26172,0.27344 -0.26171,0.27734 -0.26172,0.27344 -0.52344,0.55469 -0.26172,0.27343 -0.52344,0.55469 -0.26172,0.27344 -0.52343,0.55469 -0.26563,0.27343 -0.52344,0.55469"
     id="path171" />
  <path
     fill="none"
     stroke-width="1.5"
     stroke-linecap="butt"
     stroke-linejoin="miter"
     stroke="#000000"
     stroke-opacity="1"
     stroke-miterlimit="2"
     d="m 244.09968,127.50393 -1.12109,0.23438 -1,0.24219 -1.01953,0.23828 -0.85547,0.25 -1.04688,0.24219 -0.86719,0.24609 -1.07812,0.23828 -0.875,0.25 -0.87109,0.25 -1.11719,0.23438 -0.88672,0.25 -0.88281,0.25 -0.88282,0.24609 -0.88671,0.25 -1.17579,0.23437 -0.89453,0.2461 -1.78906,0.5 -0.89453,0.24609 -2.68359,0.75 -0.89454,0.2461 -0.89843,0.25 -1.78907,0.5 -0.89843,0.24609 -0.89453,0.25 -1.31641,0.22656 -0.90625,0.2461 -0.90625,0.25 -0.90234,0.25 -0.90625,0.25 -0.90625,0.24609 -2.71875,0.75 -0.90625,0.24609 -0.91016,0.25 -1.8125,0.5 -0.90625,0.2461 -0.90625,0.25 -0.91016,0.25 -2.71875,0.75 -0.91015,0.24609 -0.90625,0.25 -0.91016,0.25 -0.90625,0.25 -0.91016,0.25 -0.90625,0.25 -0.91015,0.25 -0.90625,0.25 -0.91016,0.24609 -0.90625,0.25 -1.82031,0.5 -0.90625,0.25 -2.73047,0.75 -0.90625,0.25 -5.46094,1.5 -0.90625,0.25 -3.64062,1 -0.91406,0.25 -6.3711,1.75 -0.91406,0.25 -0.91016,0.25 -0.91015,0.25391 -0.91407,0.25 -2.73046,0.75 -0.91407,0.25 -0.91015,0.25 -0.91407,0.25 -0.91015,0.25 -0.91016,0.25391 -0.91406,0.25 -0.91016,0.25 -0.91406,0.25 -0.91016,0.25"
     id="path172" />
  <path
     fill="none"
     stroke-width="1.5"
     stroke-linecap="butt"
     stroke-linejoin="miter"
     stroke="#000000"
     stroke-opacity="1"
     stroke-miterlimit="2"
     d="m 233.70515,126.7344 -1.73828,0.16797 -1.41016,0.20313 -1.79687,0.16406 -2.85938,0.39844 -1.43359,0.20312 -1.42969,0.19922 -1.91016,0.14844 -13.04296,1.79297 -1.45313,0.19922 -4.34766,0.59765 -1.45312,0.19922 -1.44922,0.19922 -1.45312,0.19922 -1.44922,0.19922 -1.45313,0.19922 -1.44922,0.19921 -1.45312,0.19922 -1.44922,0.19922 -1.45313,0.19922 -2.35156,0.0937 -2.9375,0.39063 -1.47265,0.19921 -1.46875,0.19532 -1.47266,0.19922 -1.46875,0.19531 -1.47266,0.19922 -1.46875,0.19531 -1.47265,0.19922 -1.46875,0.19531 -1.47266,0.19922 -1.46875,0.19531 -1.47266,0.19922 -1.47265,0.19531 -1.47266,0.19922 -1.46875,0.19531 -1.47265,0.19922 -1.47266,0.19532 -1.47266,0.19921 -1.47265,0.19532 -1.47266,0.19922 -1.47266,0.19531 -2.94531,0.39844 -1.47265,0.19531 -1.47266,0.19922 -1.47266,0.19531 -1.47265,0.19922 -1.47266,0.19531 -1.47266,0.19922 -1.47265,0.19531 -1.47656,0.19922 -1.47266,0.19922 -1.47266,0.19531 -1.47656,0.19922 -1.47266,0.19531 -1.47265,0.19922 -1.47656,0.19922 -1.47266,0.19531 -1.47266,0.19922 -1.47656,0.19531 -1.47266,0.19922 -1.47656,0.19922 -1.47656,0.19531 -1.47266,0.19922 -1.47656,0.19532 -1.47266,0.19921 -1.47656,0.19922 -1.47656,0.19532 -1.47266,0.19921 -1.47656,0.19922 -1.47656,0.19532 -2.95313,0.39843 -1.47265,0.19532 -2.95313,0.39843 -1.47656,0.19532 -2.953126,0.39843 -1.47656,0.19532 -2.95312,0.39843 -1.47657,0.19532 -2.95312,0.39843 -1.47656,0.19532 -1.47656,0.19921"
     id="path173" />
  <path
     fill="none"
     stroke-width="1.5"
     stroke-linecap="butt"
     stroke-linejoin="miter"
     stroke="#000000"
     stroke-opacity="1"
     stroke-miterlimit="2"
     d="m 224.83015,125.57034 -1.84375,0.13672 -2.32422,0.0508 -1.85937,0.13281 -1.86329,0.13282 -1.85937,0.1289 -1.86328,0.13281 -1.85938,0.13282 -1.85937,0.1289 -1.85938,0.13282 -2.49609,0.008 -1.87891,0.125 -1.8789,0.1289 -1.875,0.125 -1.87891,0.12891 -1.875,0.125 -1.87891,0.12891 -1.875,0.125 -1.875,0.1289 -1.8789,0.125 -1.875,0.125 -1.875,0.12891 -1.875,0.125 -1.87891,0.12891 -1.875,0.125 -1.875,0.1289 -3.75,0.25 -1.875,0.12891 -1.8789,0.125 -1.875,0.1289 -3.75,0.25 -1.875,0.12891 -1.875,0.125 -1.875,0.12891 -1.875,0.125 -1.87891,0.1289 -3.75,0.25 -1.875,0.12891 -1.875,0.125 -1.875,0.12891 -1.87891,0.125 -1.875,0.1289 -3.75,0.25 -1.8789,0.12891 -1.875,0.125 -1.875,0.1289 -1.875,0.125 -1.87891,0.12891 -3.75,0.25 -1.87891,0.12891 -1.875,0.125 -1.875,0.1289 -1.8789,0.125 -1.875,0.12891 -1.87891,0.125 -1.875,0.125 -1.875,0.12891 -1.8789,0.125 -1.875,0.1289 -1.87891,0.125 -1.875,0.12891 -1.87891,0.125 -1.874996,0.1289 -1.8789,0.125 -1.875,0.125 -1.87891,0.12891 -1.87891,0.125 -1.875,0.12891 -1.8789,0.125 -1.87891,0.1289 -1.875,0.125 -1.8789,0.12891 -1.87891,0.125 -1.875,0.12891 -3.75781,0.25 -1.87891,0.1289 -1.875,0.125 -1.8789,0.12891 -1.87891,0.125 -1.87891,0.1289 -1.8789,0.125 -1.87891,0.12891 -1.875,0.125 -1.878906,0.12891 -1.878906,0.125 -1.878907,0.1289 -1.878906,0.125 -1.878906,0.12891 -1.878907,0.125 -1.878906,0.12891 -3.757812,0.25 -1.878906,0.1289 -1.878907,0.125"
     id="path174" />
  <path
     fill="none"
     stroke-width="1.5"
     stroke-linecap="butt"
     stroke-linejoin="miter"
     stroke="#000000"
     stroke-opacity="1"
     stroke-miterlimit="2"
     d="m 218.32234,124.15237 -2.53125,-0.0664 -2.125,0.0508 -2.125,0.0469 -2.11719,0.0508 -2.12109,0.0508 -2.58204,-0.10937 -2.1289,0.043 -2.1211,0.043 -2.125,0.043 -2.12109,0.0469 -2.12109,0.043 -6.35157,0.12891 -2.11328,0.043 -2.11718,0.043 -6.33985,0.12891 -2.10937,0.043 -2.11328,0.043 -2.10938,0.043 -2.11328,0.043 -6.32813,0.12891 -2.10546,0.043 -4.21875,0.0859 -2.10547,0.043 -2.10938,0.043 -4.21094,0.0859 -2.10937,0.043 -18.94922,0.38672 -2.10156,0.043 -6.31641,0.1289 -2.10156,0.043 -4.21094,0.0859 -2.10156,0.043 -2.10547,0.043 -2.10156,0.043 -2.10547,0.043 -2.10156,0.043 -2.105466,0.043 -2.10156,0.043 -2.10547,0.043 -4.20313,0.0859 -2.10547,0.043 -2.10156,0.043 -2.10547,0.0391 -4.20312,0.0859 -2.10547,0.043 -4.20313,0.0859 -2.10546,0.043 -4.20313,0.0859 -2.10547,0.043 -6.30469,0.1289 -2.105465,0.043 -6.304687,0.12891 -2.105469,0.043 -6.304688,0.1289 -2.105469,0.043 -6.304687,0.12891 -2.105469,0.043 -6.304687,0.1289 -2.105469,0.043 -8.40625,0.17188 -2.105469,0.043 -4.2031249,0.0859"
     id="path175" />
  <path
     fill="none"
     stroke-width="1.5"
     stroke-linecap="butt"
     stroke-linejoin="miter"
     stroke="#000000"
     stroke-opacity="1"
     stroke-miterlimit="2"
     d="m 213.60359,122.30081 -2.22266,-0.0352 -2.21484,-0.0391 -2.45703,-0.20703 -2.20704,-0.043 -2.19921,-0.0469 -2.19532,-0.043 -2.1875,-0.043 -2.1875,-0.0469 -2.1875,-0.043 -2.17968,-0.0469 -2.17579,-0.043 -2.39062,-0.27344 -6.50391,-0.15234 -2.16406,-0.0508 -6.48047,-0.15235 -4.3125,-0.10156 -8.60937,-0.20312 -8.59375,-0.20313 -8.57813,-0.20312 -2.14062,-0.0508 -2.14453,-0.0469 -8.5625,-0.20312 -2.13672,-0.0508 -2.14063,-0.0508 -2.13672,-0.0508 -2.14062,-0.0469 -8.54688,-0.20313 -2.13281,-0.0508 -4.27344,-0.10156 -2.13281,-0.0469 -2.13281,-0.0508 -2.136716,-0.0508 -6.39844,-0.15234 -2.13281,-0.0469 -6.39844,-0.15234 -2.1289,-0.0508 -2.13282,-0.0508 -2.1289,-0.0469 -2.13281,-0.0508 -2.12891,-0.0508 -2.13281,-0.0508 -2.12891,-0.0508 -2.13281,-0.0508 -2.12891,-0.0469 -10.64453,-0.25391 -2.128906,-0.0469 -8.515625,-0.20313 -2.128907,-0.0469 -2.125,-0.0508 -4.257812,-0.10157 -2.125,-0.0508 -2.128906,-0.0508 -2.125,-0.0469 -2.128906,-0.0508 -2.125,-0.0508 -2.128907,-0.0508 -2.125,-0.0508 -2.128906,-0.0469 -4.25,-0.10157 -2.128906,-0.0508 -2.1249999,-0.0508 -2.125,-0.0469 -2.128907,-0.0508 -4.24999997,-0.10157"
     id="path176" />
  <path
     fill="none"
     stroke-width="1.5"
     stroke-linecap="butt"
     stroke-linejoin="miter"
     stroke="#000000"
     stroke-opacity="1"
     stroke-miterlimit="2"
     d="m 211.25202,120.17972 -2.15234,-0.12891 -2.20703,-0.30078 -2.12109,-0.13672 -2.11329,-0.13672 -2.10546,-0.13281 -2.09766,-0.13672 -2.08984,-0.32813 -2.07422,-0.14062 -2.06641,-0.14063 -2.05859,-0.14062 -2.0586,-0.13672 -2.05078,-0.14062 -4.08594,-0.27344 -2.03906,-0.13672 -2.03515,-0.14063 -4.0625,-0.27343 -1.85938,-0.39844 -2.00781,-0.14063 -2.00781,-0.14453 -2,-0.14062 -2.00391,-0.14063 -2,-0.14062 -1.99609,-0.14063 -1.99219,-0.14062 -1.9961,-0.14063 -7.95312,-0.5625 -1.98047,-0.14062 -1.98437,-0.14063 -5.94141,-0.42187 -1.97656,-0.13672 -1.97657,-0.14063 -1.97265,-0.14062 -1.97656,-0.14063 -1.97266,-0.13671 -1.97266,-0.14063 -1.96875,-0.14062 -1.96875,-0.13672 -1.96875,-0.14063 -1.96875,-0.13672 -1.96875,-0.14062 -1.96484,-0.14063 -1.96484,-0.13672 -1.96485,-0.14062 -1.96484,-0.13672 -1.96485,-0.14062 -1.96093,-0.13672 -1.96094,-0.14063 -1.96484,-0.13672 -1.957036,-0.14062 -1.96093,-0.13672 -1.96094,-0.14063 -1.95703,-0.13671 -1.96094,-0.13672 -1.95703,-0.14063 -1.95703,-0.13672 -1.95703,-0.14062 -1.95313,-0.13672 -1.95703,-0.13672 -1.95703,-0.14062 -1.95312,-0.13672 -1.95313,-0.14063 -3.90625,-0.27344 -1.95312,-0.14062 -3.90625,-0.27344 -1.95313,-0.14062 -1.94922,-0.13672 -1.95312,-0.13672 -1.949222,-0.13672 -1.949219,-0.14062 -3.898438,-0.27344 -1.949219,-0.14063 -5.847656,-0.41015 -1.945312,-0.14063 -1.949219,-0.13672 -1.945313,-0.13672 -1.949218,-0.13671 -1.945313,-0.13672 -1.945312,-0.14063 -1.949219,-0.13672 -5.835938,-0.41015 -1.945312,-0.14063 -1.941406,-0.13672 -5.835938,-0.41015"
     id="path177" />
  <path
     fill="none"
     stroke-width="1.5"
     stroke-linecap="butt"
     stroke-linejoin="miter"
     stroke="#000000"
     stroke-opacity="1"
     stroke-miterlimit="2"
     d="M 210.74812,117.42581 C 156.14214,108.90209 101.28067,102.12491 46.517654,94.644564"
     id="path178" />
  <path
     fill="none"
     stroke-width="1.5"
     stroke-linecap="butt"
     stroke-linejoin="miter"
     stroke="#000000"
     stroke-opacity="1"
     stroke-miterlimit="2"
     d="m 211.84187,113.33987 c -18.42105,-5.95671 -37.08124,-10.9481 -55.75246,-15.999016 -10.42095,-2.64875 -20.66838,-5.87192 -31.16168,-8.2944 -10.03256,-2.55441 -20.06504,-5.10913 -30.097576,-7.66361 -0.20017,-1.15075 -1.80316,-0.74115 -2.45703,-1.17969"
     id="path179" />
  <path
     fill="none"
     stroke-width="1.5"
     stroke-linecap="butt"
     stroke-linejoin="miter"
     stroke="#000000"
     stroke-opacity="1"
     stroke-miterlimit="2"
     d="m 215.59577,104.42581 c -7.9213,-8.390116 -16.12808,-16.507356 -24.90999,-23.978476 -4.95311,-4.4082 -10.16072,-8.42363 -15.12554,-12.7838 -4.16419,-3.34403 -8.38761,-6.56267 -12.44534,-10.04887 -3.07879,-2.34842 -6.29914,-4.57877 -9.11251,-7.22026 -1.47384,-0.89999 -2.83626,-1.97694 -4.27771,-2.92953"
     id="path180" />
  <path
     fill="none"
     stroke-width="1.5"
     stroke-linecap="butt"
     stroke-linejoin="miter"
     stroke="#000000"
     stroke-opacity="1"
     stroke-miterlimit="2"
     d="m 248.08015,74.964874 c 15.97106,-10.54915 35.82191,-12.69573 51.87832,-23.09552 8.62669,-5.36917 16.5514,-11.76201 24.02126,-18.57513 4.33954,-4.17586 9.09954,-8.14115 13.14729,-12.64966"
     id="path181" />
  <path
     fill="none"
     stroke-width="1.5"
     stroke-linecap="butt"
     stroke-linejoin="miter"
     stroke="#000000"
     stroke-opacity="1"
     stroke-miterlimit="2"
     d="m 308.71296,99.531284 c 13.47356,1.750126 26.59988,-3.31409 39.54665,-6.22216 22.22288,-6.04959 44.28253,-12.63123 66.34382,-19.20789 l 1.61734,-0.51503"
     id="path182" />
  <path
     fill="none"
     stroke-width="1.5"
     stroke-linecap="butt"
     stroke-linejoin="miter"
     stroke="#000000"
     stroke-opacity="1"
     stroke-miterlimit="2"
     d="m 312.77546,112.40628 c 19.56584,-1.39762 38.9208,-4.68347 58.31176,-7.473 16.53528,-2.81115 33.19063,-4.60266 49.71733,-7.500746 13.74947,-2.17387 27.49917,-4.34629 41.24826,-6.5226"
     id="path183" />
  <path
     fill="none"
     stroke-width="1.5"
     stroke-linecap="butt"
     stroke-linejoin="miter"
     stroke="#000000"
     stroke-opacity="1"
     stroke-miterlimit="2"
     d="m 312.08406,117.52347 c 26.03003,-1.13467 51.95805,-3.8373 77.9427,-5.60025 35.66092,-3.02777 71.32207,-6.05279 106.98308,-9.07944"
     id="path184" />
  <path
     fill="none"
     stroke-width="1.5"
     stroke-linecap="butt"
     stroke-linejoin="miter"
     stroke="#000000"
     stroke-opacity="1"
     stroke-miterlimit="2"
     d="m 309.40827,120.68753 1.83204,0.0781 2.07031,-0.0898 2.07031,-0.0937 1.84766,0.10547 2.07422,-0.0859 2.07812,-0.0859 2.07422,-0.082 2.07422,-0.0859 1.88281,0.14063 2.08594,-0.0781 2.08203,-0.0781 2.08594,-0.0781 2.08203,-0.082 2.08594,-0.0781 2.08203,-0.0781 2.08593,-0.0781 2.08204,-0.0781 4.17187,-0.15625 2.08203,-0.0781 2.08594,-0.0781 2.08203,-0.0781 2.08594,-0.0781 2.08594,-0.082 2.00781,0.2461 2.08984,-0.0703 2.09375,-0.0742 2.09375,-0.0703 2.09375,-0.0742 2.09375,-0.0703 2.09375,-0.0742 2.09375,-0.0703 2.09375,-0.0742 2.09375,-0.0703 2.09375,-0.0742 2.09375,-0.0703 2.09375,-0.0742 2.09375,-0.0703 2.09375,-0.0742 2.09375,-0.0703 2.09375,-0.0742 2.09375,-0.0703 2.09375,-0.0742 2.09375,-0.0703 2.09375,-0.0742 2.08985,-0.0703 2.09375,-0.0742 2.09375,-0.0703 2.09375,-0.0742 2.09375,-0.0703 2.09375,-0.0742 2.09375,-0.0703 2.09375,-0.0742 2.09375,-0.0703 2.09375,-0.0742 2.09375,-0.0703 2.09375,-0.0742 2.09375,-0.0703 2.09375,-0.0742 2.09375,-0.0703 2.08984,-0.0742 2.09375,-0.0703 2.09375,-0.0742 2.09375,-0.0703 2.09375,-0.0742 2.09375,-0.0703 2.09375,-0.0742 2.09375,-0.0703 2.08984,-0.0742 2.09375,-0.0703 2.09375,-0.0742 4.1875,-0.14063 2.08985,-0.0742 2.09375,-0.0703 2.09375,-0.0742 2.09375,-0.0703 2.09375,-0.0742 2.08984,-0.0703 2.09375,-0.0742 2.09375,-0.0703 2.09375,-0.0742 2.08984,-0.0703 2.09375,-0.0742 2.09375,-0.0703 2.09375,-0.0742 2.08985,-0.0703 2.09375,-0.0742 2.09375,-0.0703 2.08984,-0.0742 2.09375,-0.0703 2.09375,-0.0742 2.09375,-0.0703 2.08985,-0.0742 2.09375,-0.0703 2.08984,-0.0742 2.09375,-0.0703 2.09375,-0.0742 2.08984,-0.0703"
     id="path185" />
  <path
     fill="none"
     stroke-width="1.5"
     stroke-linecap="butt"
     stroke-linejoin="miter"
     stroke="#000000"
     stroke-opacity="1"
     stroke-miterlimit="2"
     d="m 304.56843,123.07815 h 4.20703 l 1.67969,0.16407 2.10547,0.004 2.10937,0.008 2.10547,0.008 2.11328,0.008 1.64453,0.19922 4.21875,0.0234 2.11329,0.0156 2.11328,0.0117 2.10937,0.0156 2.11719,0.0117 2.11328,0.0117 2.11719,0.0156 2.11328,0.0117 2.11719,0.0156 2.12109,0.0117 2.11719,0.0117 2.11719,0.0156 2.12109,0.0117 2.11719,0.0156 4.24218,0.0234 2.1211,0.0156 2.12109,0.0117 2.1211,0.0156 1.52734,0.33985 10.58594,0.0977 2.12109,0.0234 2.11719,0.0195 2.12109,0.0195 2.11719,0.0195 2.12109,0.0195 2.11719,0.0195 4.24219,0.0391 2.11719,0.0195 2.12109,0.0195 2.12109,0.0234 16.96875,0.15625 2.1211,0.0234 2.12109,0.0195 2.125,0.0195 6.36328,0.0586 2.125,0.0195 4.24219,0.0391 2.125,0.0234 2.12109,0.0195 2.125,0.0195 4.24219,0.0391 2.125,0.0195 2.12109,0.0195 2.125,0.0195 2.1211,0.0195 2.125,0.0234 2.125,0.0195 2.12109,0.0195 2.125,0.0195 2.1211,0.0195 4.25,0.0391 2.12109,0.0195 2.125,0.0234 2.125,0.0195 2.12109,0.0195 6.375,0.0586 2.1211,0.0195 4.25,0.0391 2.125,0.0234 4.25,0.0391 2.12109,0.0195 10.625,0.0977 2.125,0.0234 2.125,0.0195"
     id="path186" />
</svg>
